<?xml version="1.0" encoding="utf-8"?>
<!-- Generator: Adobe Illustrator 24.2.1, SVG Export Plug-In . SVG Version: 6.00 Build 0)  -->
<svg version="1.1" id="Layer_1" xmlns="http://www.w3.org/2000/svg" xmlns:xlink="http://www.w3.org/1999/xlink" x="0px" y="0px"
	 viewBox="0 0 1000 1000" style="enable-background:new 0 0 1000 1000;" xml:space="preserve">
<style type="text/css">
	.st0{fill:#FFFFFF;}
	.st1{fill:#114873;}
	.st2{fill:#FFC7A8;}
	.st3{fill:#1C75BC;}
	.st4{fill:#1866A3;}
	.st5{fill:#F1F1F2;}
	.st6{fill:#81C243;}
	.st7{opacity:0.25;fill:#231F20;}
	.st8{fill:#E6E7E8;}
	.st9{fill:#58331B;}
	.st10{opacity:0.25;fill:#716558;}
	.st11{fill:#FCFDFF;}
	.st12{fill:#177CB4;}
	.st13{fill:#FFC964;}
	.st14{fill:#F68C21;}
	.st15{opacity:0.25;}
	.st16{fill:#716558;}
	.st17{opacity:0.25;fill:#FFFFFF;}
	.st18{fill:#FDC987;}
	.st19{fill:#FFDBAE;}
	.st20{opacity:0.25;fill:#F9B86E;}
	.st21{fill:#FFC016;}
	.st22{fill:#FCD121;}
	.st23{fill:#303030;}
	.st24{fill:#060808;}
	.st25{fill:#29A7DF;}
	.st26{fill:#42B7E2;}
	.st27{fill:#CBEBFB;}
	.st28{opacity:0.15;fill:#FFFFFF;}
	.st29{fill:#0066B2;}
	.st30{fill:#1B75BB;}
	.st31{opacity:0.15;}
	.st32{fill:#231F20;}
	.st33{fill:#F05A28;}
	.st34{fill:#E4F4FC;}
	.st35{fill:#B1D5F1;}
	.st36{fill:#E3F4FC;}
	.st37{opacity:0.5;}
	.st38{fill:#F7FBFF;}
	.st39{fill:#37B34A;}
	.st40{fill:#F9EC31;}
	.st41{fill:#80664D;}
	.st42{fill:#86C55B;}
	.st43{fill:#009345;}
	.st44{fill:#40833E;}
	.st45{fill:#408740;}
	.st46{fill:#4CB548;}
	.st47{fill:#E81F4D;}
	.st48{fill:#6DBF67;}
	.st49{fill:#E9A450;}
	.st50{fill:#E89844;}
	.st51{fill:#E19745;}
	.st52{fill:#CE7E2C;}
</style>
<rect class="st0" width="1000" height="1000"/>
<g>
	<g>
		<path class="st1" d="M440.38,599.93c-0.98,12.75-14.13,43.75-25.39,65.19l-0.01,0.02c-4.07,7.74-7.9,14.22-10.83,18.17
			c-2.14,2.87-3.79,4.38-4.71,4.04l-8.7-3.51c-2.4-0.96-4.77-1.93-7.15-2.91c-0.02,0-0.03-0.01-0.04-0.01
			c-2.45-1.01-4.9-2.01-7.33-3.03c-77.39-32.4-138.96-68.44-187.03-100.7c-0.04-0.03-0.06-0.05-0.1-0.08
			C170.35,564.52,67.88,502.42,0,460.41V277.12l1.66-4.03c110.85,177.16,294.55,253.15,402.12,305.17c2.17,1.06,4.36,2.1,6.56,3.14
			c0.06,0.03,0.13,0.06,0.19,0.1c1.91,0.89,3.83,1.79,5.75,2.69c2.57,1.19,5.14,2.37,7.73,3.53c2.28,1.04,4.58,2.07,6.88,3.09
			l7.92,3.5C440.16,594.89,440.62,596.89,440.38,599.93z"/>
		<path class="st2" d="M655.95,702.42c-1.75,7.63-11.37,11.57-21.15,9.88c-30.05-4.96-59.43-10.49-87.68-19.65
			c-2.79-0.94-5.86-0.14-7.19,1.9c-0.01,0.03-0.03,0.05-0.06,0.08c-1.45,2.21-0.34,5.1,2.54,6.49
			c21.42,10.66,43.81,20.17,67.11,28.4c9.4,3.17,14.13,9.86,10.29,17.01c-0.63,1.18-1.47,2.21-2.47,3.09
			c-5.07,4.49-14.33,5.24-22.45,2.38c-6.97-2.3-13.86-4.72-20.67-7.24h-0.01c-17.68-6.54-34.86-13.81-51.53-21.75
			c-0.92-0.43-1.84-0.87-2.75-1.31c-2.05-1.04-4.52-1.28-6.62-0.67c-0.05,0.01-0.11,0.03-0.17,0.05c-4.69,1.37-5.36,6.29-1.11,9.13
			c0.02,0.01,0.03,0.02,0.05,0.04c8.01,5.62,16.22,11.1,24.62,16.41h0.01c6.2,3.94,12.5,7.78,18.9,11.53
			c7.2,3.96,9.62,9.64,5.37,14.69c-0.19,0.23-0.4,0.45-0.62,0.68c-4.3,4.42-12.54,4.81-19.62,2.15c-0.94-0.35-1.88-0.77-2.78-1.23
			c0,0-0.01,0-0.02,0c-0.29-0.16-0.57-0.32-0.86-0.48c-0.13-0.09-0.27-0.16-0.38-0.23c-14.06-8.04-27.94-16.13-41.55-24.44h-0.01
			c-14.47-8.82-28.64-17.89-42.42-27.4c-0.4-0.27-0.8-0.55-1.19-0.83c-7.16-4.96-14.22-10.03-21.15-15.27
			c-4.45-3.35-8.48-7.05-12.03-11.06c-2.38-2.64-4.54-5.44-6.48-8.33c-2.59-1.05-5.17-2.08-7.72-3.13c-2.13-0.87-4.23-1.73-6.34-2.6
			c-3.75-1.55-7.45-3.09-11.13-4.64c-0.4-0.18-0.81-0.34-1.21-0.52h-0.01c-79.26-33.31-144.04-66.79-196.27-98.36
			c-0.04-0.03-0.06-0.05-0.1-0.08C170.79,566.05,68.41,505.22,0,463.7V277.39l0.97-2.36c114.24,219.21,312.74,268.16,421.97,317.3
			c3.41,1.55,6.84,3.06,10.3,4.56c2.36,1.02,4.74,2.04,7.14,3.04c0.48,0.22,0.96,0.42,1.44,0.61c5.46-2.06,11.29-3.56,17.33-4.38
			c2.63-0.38,5.23-0.61,7.82-0.73c1.94-0.09,3.88-0.19,5.8-0.33c25.23-1.67,49.47-6.72,71.58-15.5c2.09-0.84,4.19-1.68,6.26-2.55
			c1.37-0.56,2.73-1.14,4.09-1.72c0.26-0.1,0.53-0.21,0.8-0.3c0,0,0,0,0.01,0c6.66-2.36,14.2,0.37,17.39,6.79
			c0.57,1.18,0.98,2.39,1.21,3.62l0.01,0.01c0.88,4.64-0.68,9.43-4.25,12.62c-0.89,0.8-1.92,1.51-3.06,2.08
			c-0.46,0.23-0.92,0.45-1.38,0.69c-7.26,3.93-14.69,7.71-22.29,11.3c-3.34,1.58-6.7,3.14-10.11,4.66c-1.79,0.78-2.7,2.23-2.83,3.74
			l0.01,0.01c-0.24,2.33,1.38,4.85,4.51,5.44c0.2,0.04,0.41,0.07,0.61,0.11c11.02,2.02,22.11,3.7,33.22,5.02
			c16.06,1.94,32.21,3.14,48.38,3.6c4.53,0.14,9.06,0.22,13.59,0.23c8.65-0.1,15.91,4.71,16.37,12.44
			c0.47,7.72-6.64,13.2-15.77,13.31c-23.99,0.69-48.06-0.16-72.04-2.55c-3.21-0.37-5.93,1.79-5.61,4.56
			c0.01,0.02,0.01,0.06,0.02,0.08c0.19,1.73,1.55,3.27,3.5,3.91c27.32,9.41,55.87,15.22,85.17,20.47
			C651.49,688.73,657.69,694.79,655.95,702.42z"/>
		<path class="st3" d="M422.94,592.33c-5.38,15.8-27.82,67.65-36.26,83.74c-1.61,3.08-2.71,4.86-3.09,4.86
			c-0.02,0-0.03-0.01-0.04-0.01c-2.47-1-4.91-2.01-7.35-3.03c-3.19-1.31-6.35-2.64-9.49-3.96c-2.4-1.02-4.96-0.99-7.2-0.11
			c-6.1,2.37-12.78,1.59-18.9-0.71C270.66,646.84,132.36,584.49,0,478.1V243.12c86.12,121.42,233.05,237.19,386.61,318.65
			c5.89,3.13,10.58,7.93,14.03,13.63c0.72,1.2,1.79,2.21,3.14,2.86c2.17,1.06,4.36,2.1,6.56,3.14c0.06,0.03,0.13,0.06,0.19,0.1
			c1.91,0.89,3.83,1.79,5.75,2.69c2.57,1.19,5.14,2.37,7.73,3.53C424.3,587.86,423.89,589.53,422.94,592.33z"/>
		<path class="st4" d="M438.82,594.3l-7.92-3.5c-9.23-4.07-18.26-8.26-27.12-12.55c-27.34,31.25-39.63,63.14-37.07,95.66
			c7.86,3.33,15.86,6.64,24.02,9.92l8.71,3.5C389.65,681.26,425.68,591.16,438.82,594.3z"/>
	</g>
	<g>
		<g>
			<g>
				<g>
					<path class="st5" d="M481.86,337.86h-35.02v116c0,2.24,1.82,4.06,4.06,4.06h26.89c2.24,0,4.06-1.82,4.06-4.06V337.86z"/>
					<rect x="446.84" y="74.39" class="st6" width="35.02" height="263.46"/>
					<polygon class="st7" points="475.4,211.75 454.18,220.7 449.44,222.73 446.84,216.66 446.84,121.22 					"/>
					<polygon class="st7" points="481.86,149.56 481.86,244.98 480.43,248.31 453.51,237.39 					"/>
					<polygon class="st8" points="451.43,457.92 448.09,466.26 480.61,466.26 477.28,457.92 					"/>
				</g>
				<g>
					<polygon class="st6" points="504.65,116.5 448.25,247.84 480.43,261.66 542.71,116.61 542.45,116.5 					"/>
				</g>
				<g>
					<polygon class="st6" points="481.64,222.27 425.7,92.01 387.59,92.01 449.46,236.09 					"/>
				</g>
			</g>
			<g>
				<path class="st9" d="M471.84,269.31l30.09,244.17c1.11,8.98-4.82,17.18-13.45,19.09c-0.55,0.12-1.11,0.23-1.67,0.29
					l-86.94,10.71c-0.56,0.07-1.12,0.1-1.69,0.12c-8.84,0.24-16.58-6.28-17.68-15.26l-30.09-244.17c-1.17-9.52,5.6-18.2,15.12-19.37
					c9.78-1.21,16.72-10.1,15.52-19.86l-10.95-88.9l51.54-6.35l10.95,88.9c1.2,9.77,10.09,16.71,19.88,15.5
					C461.99,253.01,470.66,259.78,471.84,269.31z"/>
				<path class="st10" d="M488.47,532.57c-0.55,0.12-1.11,0.23-1.67,0.29l-86.94,10.71c-0.56,0.07-1.12,0.1-1.69,0.12
					c9.73-7.44,25.56-13.4,43.9-15.66C460.43,525.78,477.25,527.71,488.47,532.57z"/>
				<g>
					
						<rect x="363.44" y="338.83" transform="matrix(0.9925 -0.1223 0.1223 0.9925 -44.0457 54.8279)" class="st11" width="122.35" height="94.77"/>
					
						<rect x="363.44" y="347.04" transform="matrix(0.9925 -0.1223 0.1223 0.9925 -44.0462 54.8287)" class="st12" width="122.35" height="78.34"/>
					<g>
						
							<ellipse transform="matrix(0.9925 -0.1223 0.1223 0.9925 -44.0818 54.8348)" class="st11" cx="424.64" cy="386.51" rx="42.82" ry="57.97"/>
						
							<ellipse transform="matrix(0.9925 -0.1223 0.1223 0.9925 -44.0826 54.8359)" class="st13" cx="424.64" cy="386.51" rx="35.85" ry="48.52"/>
					</g>
				</g>
				<path class="st10" d="M452.47,254.19c-9.78,1.21-18.67-5.73-19.88-15.5l-10.95-88.9l-13.98,1.72l10.95,88.9
					c1.2,9.77,10.09,16.71,19.88,15.5c9.52-1.17,18.2,5.6,19.37,15.12l30.09,244.17c1.18,9.54-5.6,18.21-15.12,19.39l13.98-1.72
					c9.52-1.17,16.29-9.85,15.12-19.39l-30.09-244.17C470.66,259.78,461.99,253.01,452.47,254.19z"/>
				<polygon class="st7" points="421.64,149.79 422.36,155.69 370.09,156.14 				"/>
				<g>
					<path class="st9" d="M424.53,136.16l1.19,9.66c0.23,1.89-1.1,3.59-2.99,3.83l-53.74,6.62c-1.89,0.23-3.59-1.1-3.83-2.99
						l-1.19-9.66L424.53,136.16z"/>
					<path class="st10" d="M412.3,137.67l1.19,9.66c0.23,1.89-1.1,3.59-2.99,3.83l12.23-1.51c1.89-0.23,3.22-1.94,2.99-3.83
						l-1.19-9.66L412.3,137.67z"/>
					<path class="st7" d="M424.53,136.16l0.62,5c-1.22-0.58-1.77-2.6-3.38-2.4c-1.94,0.24-1.57,3.26-3.52,3.5
						c-1.94,0.24-2.31-2.78-4.27-2.54c-1.94,0.24-1.57,3.26-3.52,3.5c-1.94,0.24-2.31-2.78-4.25-2.54c-1.96,0.24-1.58,3.26-3.52,3.5
						c-1.94,0.24-2.31-2.78-4.27-2.54c-1.94,0.24-1.57,3.26-3.52,3.5c-1.94,0.24-2.31-2.78-4.25-2.54c-1.96,0.24-1.58,3.26-3.52,3.5
						c-1.94,0.24-2.31-2.78-4.27-2.54c-1.94,0.24-1.57,3.26-3.52,3.5c-1.94,0.24-2.31-2.78-4.25-2.54c-1.94,0.24-1.57,3.26-3.52,3.5
						c-1.94,0.24-2.31-2.78-4.25-2.54c-1.62,0.2-1.63,2.31-2.7,3.15l-0.62-5L424.53,136.16z"/>
					<path class="st14" d="M362.92,142.24l0.61,4.98c0,0,0,0,0.01,0c1.96-0.22,1.58-3.26,3.53-3.5c1.94-0.24,2.32,2.78,4.26,2.54
						c1.95-0.24,1.57-3.26,3.52-3.5c1.94-0.24,2.32,2.78,4.26,2.54c1.95-0.24,1.57-3.26,3.52-3.5c1.94-0.24,2.32,2.78,4.26,2.54
						c1.95-0.24,1.57-3.26,3.52-3.5c1.95-0.24,2.32,2.78,4.26,2.54c1.95-0.24,1.57-3.26,3.52-3.5c1.95-0.24,2.32,2.78,4.27,2.54
						c1.94-0.24,1.57-3.26,3.51-3.5c1.95-0.24,2.32,2.78,4.26,2.54c1.95-0.24,1.58-3.26,3.52-3.5c1.95-0.24,2.32,2.78,4.27,2.54
						c1.95-0.24,1.58-3.26,3.53-3.5c1.95-0.24,2.32,2.78,4.28,2.54l0,0l-0.61-4.97c-0.27-2.2-2.26-3.76-4.46-3.49
						c-11.31,1.38-43.08,5.28-54.38,6.69C364.19,138.05,362.65,140.05,362.92,142.24z"/>
					<g class="st15">
						<path class="st16" d="M420.77,131.09c-9.56,1.17-13.98,1.72-13.98,1.72c2.2-0.27,4.19,1.29,4.46,3.49l0.49,3.95
							c0.52-0.95,0.84-2.13,2.03-2.28c1.95-0.24,2.32,2.78,4.27,2.54c1.95-0.24,1.58-3.26,3.53-3.5c1.95-0.24,2.32,2.78,4.28,2.54
							l0,0l-0.61-4.97C424.95,132.38,422.96,130.82,420.77,131.09z"/>
					</g>
				</g>
				<path class="st17" d="M392.6,241.61c-2.41,0.3-4.61-1.42-4.91-3.83l-8.77-71.2c-0.3-2.41,1.42-4.61,3.83-4.91
					c2.41-0.3,4.61,1.42,4.91,3.83l8.77,71.2C396.72,239.11,395.01,241.31,392.6,241.61z"/>
			</g>
			<g>
				<path class="st18" d="M361.88,181.65l63.65,589.93c1.71,15.82-3.16,30.84-12.41,42.33c-3.44,4.27-7.48,8.06-12.02,11.2
					c-7.67,5.34-16.75,8.88-26.69,9.95c-0.39,0.04-0.78,0.08-1.17,0.11c-0.29,0.03-0.58,0.06-0.87,0.07
					c-0.34,0.03-0.68,0.05-1.01,0.07c-0.35,0.01-0.7,0.04-1.05,0.05c-1.18,0.05-2.34,0.05-3.5,0.02c-1.16-0.03-2.32-0.09-3.47-0.19
					c-5.99-0.5-11.74-1.93-17.12-4.16c-18.84-7.79-32.95-25.39-35.29-47.09l-63.65-589.93c-2.83-26.19,12.36-50.18,35.63-59.59
					c0.37-0.15,0.76-0.31,1.14-0.45c0.38-0.15,0.77-0.28,1.16-0.43c0.78-0.28,1.55-0.54,2.34-0.78c1.26-0.4,2.55-0.75,3.85-1.05
					c0.33-0.08,0.65-0.15,0.98-0.22c0.33-0.08,0.66-0.14,0.98-0.2c0.32-0.07,0.64-0.12,0.96-0.19c0.34-0.06,0.69-0.11,1.04-0.18
					c0.33-0.05,0.67-0.1,1.01-0.15c0.28-0.05,0.57-0.09,0.87-0.12c0.39-0.05,0.77-0.1,1.17-0.14
					C330.04,127.11,358.46,150,361.88,181.65z"/>
				<g>
					<path class="st19" d="M359.76,305.92l-66.38-33.46c-14.59-7.35-24.46-21.61-26.22-37.85l-2.52-23.31l65.28,31.2
						c15.07,7.2,25.33,21.69,27.12,38.3L359.76,305.92z"/>
					<path class="st19" d="M371.86,418.01l-66.38-33.46c-14.59-7.35-24.46-21.61-26.22-37.85l-2.52-23.31l65.28,31.2
						c15.07,7.2,25.33,21.69,27.12,38.3L371.86,418.01z"/>
					<path class="st19" d="M383.95,530.11l-66.38-33.46c-14.59-7.35-24.46-21.61-26.22-37.85l-2.52-23.31l65.28,31.2
						c15.07,7.2,25.33,21.69,27.12,38.3L383.95,530.11z"/>
					<path class="st19" d="M396.05,642.2l-66.38-33.46c-14.59-7.35-24.46-21.61-26.22-37.85l-2.52-23.31l65.28,31.2
						c15.07,7.2,25.33,21.69,27.12,38.3L396.05,642.2z"/>
					<path class="st19" d="M408.14,754.29l-66.38-33.46c-14.59-7.35-24.46-21.61-26.22-37.85l-2.52-23.31l65.28,31.2
						c15.07,7.2,25.33,21.69,27.12,38.3L408.14,754.29z"/>
				</g>
				<path class="st20" d="M361.88,181.65l63.65,589.93c1.71,15.82-3.16,30.84-12.41,42.33c-3.44,4.27-7.48,8.06-12.02,11.2
					c-7.67,5.34-16.75,8.88-26.69,9.95c-0.39,0.04-0.78,0.08-1.17,0.11c-0.29,0.03-0.58,0.06-0.87,0.07
					c-0.34,0.03-0.68,0.05-1.01,0.07c-0.35,0.01-0.7,0.04-1.05,0.05c-2.35,0.08-4.68,0.03-6.97-0.17c-1.64-0.14-3.28-0.36-4.89-0.63
					c3.98-1.61,7.72-3.65,11.17-6.05c16.76-11.64,26.8-31.82,24.46-53.54l-63.65-589.93c-2.83-26.19-22.78-46.36-47.52-50.62
					c1.51-0.61,3.07-1.17,4.64-1.66c1.27-0.38,2.55-0.74,3.85-1.05c0.33-0.08,0.65-0.15,0.98-0.22c0.33-0.08,0.66-0.14,0.98-0.2
					c0.32-0.07,0.64-0.12,0.96-0.19c0.34-0.06,0.69-0.11,1.04-0.18c0.33-0.05,0.67-0.1,1.01-0.15c0.28-0.05,0.57-0.09,0.87-0.12
					c0.39-0.05,0.77-0.1,1.17-0.14C330.04,127.11,358.46,150,361.88,181.65z"/>
			</g>
			<g>
				<g>
					<g>
						<path class="st21" d="M517.34,347.13c-0.02,2.16-0.16,4.32-0.27,6.49l-0.21,3.25l-0.35,3.25c-0.25,2.16-0.49,4.35-0.82,6.5
							c-0.37,2.16-0.77,4.31-1.18,6.47c-1.77,8.57-4.22,17.03-7.53,25c-1.54,4.02-3.46,7.85-5.33,11.63
							c-0.97,1.87-2.02,3.69-3.06,5.49c-1.02,1.81-2.07,3.58-3.22,5.28c-2.25,3.43-4.52,6.74-7.02,9.8
							c-2.36,3.14-4.98,5.99-7.51,8.73c-1.32,1.44-2.44,2.5-3.67,3.62c-1.21,1.11-2.38,2.23-3.59,3.27
							c-2.38,2.11-4.76,4.13-7.1,6.02c-4.68,3.79-9.24,7.12-13.47,9.95c-1.62,1.09-5.33,3.17-9.29,5.34
							c-3.09,1.68-6.52,1.44-9.21-0.1c-2.68-1.55-4.62-4.39-4.71-7.92c-0.11-4.51-0.16-8.77-0.03-10.72
							c0.33-5.08,0.92-10.68,1.86-16.63c0.46-2.98,1.02-6.03,1.65-9.17c0.3-1.57,0.67-3.14,1.03-4.74c0.32-1.6,0.81-3.27,1.03-4.66
							c0.26-1.47,0.59-2.91,0.9-4.37c0.33-1.45,0.58-2.94,0.9-4.41c0.15-0.74,0.31-1.47,0.45-2.22c0.16-0.74,0.36-1.46,0.49-2.21
							c0.28-1.5,0.57-3.01,0.91-4.49c2.41-11.6,4.98-23.97,7.56-36.35c0.3-1.53,0.62-3.04,0.97-4.56c0.29-1.54,0.57-3.07,0.9-4.58
							c0.34-1.52,0.64-3.05,0.91-4.57c0.33-1.53,0.64-3.05,0.96-4.56c1.23-6.17,2.44-12.25,3.61-18.13
							c0.67-3.06,1.17-5.44,1.86-8.44c0.24-1.71,0.51-3.42,0.81-5.09c0.15-0.85,0.3-1.69,0.43-2.51l0.02-0.08
							c0.01,0.01,0.1,0.91,0.05,0.44l0.03-0.15l0.05-0.31l0.12-0.63l0.22-1.24c1.15-6.6,2.56-12.85,4.14-18.67
							c1.57-5.81,3.31-11.17,5.08-15.94c1.77-4.77,3.52-8.95,5.18-12.42c0.42-0.86,0.8-1.69,1.16-2.46c0.4-0.78,0.77-1.5,1.12-2.18
							c0.68-1.35,1.33-2.5,1.85-3.44c1.05-1.87,1.72-2.88,1.72-2.88s0.86,0.86,2.27,2.48c0.71,0.81,1.58,1.82,2.51,3
							c0.48,0.59,0.99,1.23,1.53,1.9c0.51,0.68,1.06,1.41,1.63,2.18c2.33,3.06,4.89,6.8,7.59,11.12c2.69,4.32,5.48,9.21,8.19,14.59
							c2.72,5.37,5.37,11.22,7.82,17.44l0.46,1.17l0.23,0.59l0.12,0.29l0.06,0.16c-0.04-0.44,0.08,0.68,0.07,0.59l0.03,0.08
							c0.28,0.8,0.55,1.6,0.83,2.41c0.58,1.6,1.12,3.24,1.63,4.9c0.14,0.37,0.26,0.91,0.38,1.42l0.37,1.53
							c0.24,1.02,0.45,2.05,0.68,3.1c0.43,2.07,0.93,4.25,1.21,6.2c0.33,2.02,0.64,4.06,0.92,6.12c0.29,2.06,0.43,4.15,0.62,6.25
							C517.33,338.55,517.32,342.82,517.34,347.13z"/>
						<path class="st22" d="M457.31,427.58l-22.79,39.54c-2.68-1.55-4.62-4.39-4.71-7.92c-0.11-4.51-0.16-8.77-0.03-10.72
							c0.33-5.08,0.92-10.68,1.86-16.63c0.46-2.98,1.02-6.03,1.65-9.17c0.3-1.57,0.67-3.14,1.03-4.74c0.32-1.6,0.81-3.27,1.03-4.66
							c0.26-1.47,0.59-2.91,0.9-4.37c0.33-1.45,0.58-2.94,0.9-4.41c0.15-0.74,0.31-1.47,0.45-2.22c0.16-0.74,0.36-1.46,0.49-2.21
							c0.28-1.5,0.57-3.01,0.91-4.49c2.41-11.6,4.98-23.97,7.56-36.35c0.3-1.53,0.62-3.04,0.97-4.56c0.29-1.54,0.57-3.07,0.9-4.58
							c0.34-1.52,0.64-3.05,0.91-4.57c0.33-1.53,0.64-3.05,0.96-4.56c1.23-6.17,2.44-12.25,3.61-18.13
							c0.67-3.06,1.17-5.44,1.86-8.44c0.24-1.71,0.51-3.42,0.81-5.09c0.15-0.85,0.3-1.69,0.43-2.51l0.02-0.08
							c0.01,0.01,0.1,0.91,0.05,0.44l0.03-0.15l0.05-0.31l0.12-0.63l0.22-1.24c1.15-6.6,2.56-12.85,4.14-18.67
							c1.57-5.81,3.31-11.17,5.08-15.94c1.77-4.77,3.52-8.95,5.18-12.42c0.42-0.86,0.8-1.69,1.16-2.46c0.4-0.78,0.77-1.5,1.12-2.18
							c0.68-1.35,1.33-2.5,1.85-3.44c1.05-1.87,1.72-2.88,1.72-2.88l5.88,57.66C488,347.27,478.79,390.33,457.31,427.58z"/>
					</g>
					<g>
						<polygon class="st22" points="458.72,223.53 466.7,270.54 480.11,268.62 472.4,222.89 						"/>
						<polygon class="st23" points="470.8,213.43 457.43,215.97 458.72,223.53 472.4,222.89 						"/>
						<polygon class="st24" points="480.15,222.53 477.21,212.22 470.8,213.43 472.4,222.89 						"/>
						<polygon class="st21" points="472.4,222.89 480.11,268.62 492.78,266.83 480.15,222.53 						"/>
					</g>
				</g>
				<g>
					<g>
						<path class="st21" d="M571.9,310.83c0.89,1.97,1.67,3.99,2.49,6l1.18,3.04l1.05,3.09c0.68,2.07,1.38,4.15,1.99,6.25
							c0.58,2.11,1.12,4.24,1.66,6.37c2,8.52,3.33,17.23,3.69,25.85c0.29,4.3,0.17,8.58,0.06,12.79c-0.1,2.1-0.28,4.2-0.46,6.27
							c-0.16,2.07-0.38,4.12-0.7,6.15c-0.6,4.06-1.27,8.02-2.25,11.84c-0.82,3.84-2,7.53-3.14,11.08c-0.59,1.86-1.16,3.3-1.8,4.83
							c-0.63,1.52-1.22,3.02-1.88,4.48c-1.27,2.92-2.58,5.74-3.91,8.45c-2.65,5.41-5.38,10.35-8.03,14.69
							c-1.01,1.67-3.5,5.12-6.18,8.75c-2.09,2.82-5.31,4.05-8.4,3.78c-3.08-0.28-6.04-2.04-7.6-5.2c-2-4.05-3.83-7.89-4.54-9.71
							c-1.84-4.75-3.66-10.08-5.31-15.87c-0.83-2.9-1.62-5.9-2.36-9.02c-0.39-1.55-0.71-3.13-1.06-4.73
							c-0.38-1.58-0.64-3.31-1.02-4.66c-0.38-1.44-0.69-2.89-1.02-4.34c-0.31-1.45-0.71-2.91-1.04-4.38
							c-0.18-0.73-0.34-1.46-0.52-2.2c-0.17-0.73-0.28-1.48-0.49-2.21c-0.38-1.48-0.75-2.97-1.07-4.46
							c-2.7-11.53-5.57-23.84-8.44-36.15c-0.37-1.51-0.72-3.02-1.04-4.55c-0.38-1.52-0.77-3.02-1.11-4.54
							c-0.33-1.52-0.7-3.03-1.1-4.53c-0.35-1.52-0.7-3.03-1.05-4.54c-1.48-6.11-2.93-12.14-4.35-17.97
							c-0.68-3.05-1.23-5.42-1.86-8.44c-0.5-1.65-0.97-3.31-1.41-4.96c-0.22-0.84-0.44-1.66-0.67-2.46l-0.02-0.08
							c0.02,0,0.47,0.78,0.24,0.38l-0.04-0.15l-0.08-0.3l-0.16-0.62l-0.33-1.21c-1.73-6.47-3.08-12.74-4.1-18.68
							c-1.02-5.93-1.69-11.53-2.1-16.6c-0.4-5.07-0.57-9.6-0.53-13.44c0.01-0.96,0.01-1.87,0.02-2.72c0.03-0.88,0.07-1.69,0.1-2.45
							c0.05-1.51,0.15-2.82,0.23-3.9c0.17-2.14,0.35-3.34,0.35-3.34s1.14,0.42,3.1,1.29c0.98,0.44,2.19,0.98,3.54,1.67
							c0.69,0.33,1.42,0.7,2.19,1.08c0.75,0.4,1.55,0.83,2.39,1.29c3.4,1.79,7.3,4.11,11.56,6.89c4.26,2.79,8.85,6.05,13.57,9.79
							c4.73,3.73,9.59,7.92,14.44,12.53l0.91,0.87l0.46,0.44l0.23,0.21l0.12,0.11c-0.23-0.38,0.36,0.58,0.31,0.5l0.06,0.06
							c0.59,0.61,1.18,1.22,1.77,1.84c1.2,1.21,2.38,2.47,3.54,3.76c0.28,0.27,0.62,0.72,0.94,1.12l0.98,1.23
							c0.65,0.83,1.27,1.67,1.92,2.52c1.26,1.7,2.63,3.46,3.71,5.12c1.15,1.69,2.29,3.41,3.41,5.17c1.13,1.74,2.14,3.58,3.19,5.41
							C568.28,303.05,570.07,306.93,571.9,310.83z"/>
						<path class="st22" d="M551.29,409.07l-4.04,45.46c-3.08-0.28-6.04-2.04-7.6-5.2c-2-4.05-3.83-7.89-4.54-9.71
							c-1.84-4.75-3.66-10.08-5.31-15.87c-0.83-2.9-1.62-5.9-2.36-9.02c-0.39-1.55-0.71-3.13-1.06-4.73
							c-0.38-1.58-0.64-3.31-1.02-4.66c-0.38-1.44-0.69-2.89-1.02-4.34c-0.31-1.45-0.71-2.91-1.04-4.38
							c-0.18-0.73-0.34-1.46-0.52-2.2c-0.17-0.73-0.28-1.48-0.49-2.21c-0.38-1.48-0.75-2.97-1.07-4.46
							c-2.7-11.53-5.57-23.84-8.44-36.15c-0.37-1.51-0.72-3.02-1.04-4.55c-0.38-1.52-0.77-3.02-1.11-4.54
							c-0.33-1.52-0.7-3.03-1.1-4.53c-0.35-1.52-0.7-3.03-1.05-4.54c-1.48-6.11-2.93-12.14-4.35-17.97
							c-0.68-3.05-1.23-5.42-1.86-8.44c-0.5-1.65-0.97-3.31-1.41-4.96c-0.22-0.84-0.44-1.66-0.67-2.46l-0.02-0.08
							c0.02,0,0.47,0.78,0.24,0.38l-0.04-0.15l-0.08-0.3l-0.16-0.62l-0.33-1.21c-1.73-6.47-3.08-12.74-4.1-18.68
							c-1.02-5.93-1.69-11.53-2.1-16.6c-0.4-5.07-0.57-9.6-0.53-13.44c0.01-0.96,0.01-1.87,0.02-2.72c0.03-0.88,0.07-1.69,0.1-2.45
							c0.05-1.51,0.15-2.82,0.23-3.9c0.17-2.14,0.35-3.34,0.35-3.34l29.59,49.84C545.34,323.3,555.1,366.24,551.29,409.07z"/>
					</g>
					<g>
						<polygon class="st22" points="466.72,223.37 493.74,262.65 505.1,255.27 478.86,217.03 						"/>
						<polygon class="st23" points="473.44,209.12 462.38,217.04 466.72,223.37 478.86,217.03 						"/>
						<polygon class="st24" points="485.74,213.44 478.74,205.33 473.44,209.12 478.86,217.03 						"/>
						<polygon class="st21" points="478.86,217.03 505.1,255.27 515.84,248.31 485.74,213.44 						"/>
					</g>
				</g>
				<g>
					<g>
						<path class="st21" d="M606.47,267.42c1.45,1.61,2.8,3.29,4.19,4.96l2.04,2.54l1.94,2.63c1.28,1.76,2.58,3.54,3.79,5.35
							c1.19,1.84,2.35,3.7,3.51,5.57c4.49,7.51,8.4,15.4,11.36,23.51c1.58,4.01,2.76,8.12,3.94,12.17c0.55,2.03,1,4.09,1.46,6.11
							c0.47,2.02,0.89,4.04,1.2,6.07c0.66,4.05,1.23,8.03,1.45,11.96c0.38,3.91,0.38,7.78,0.37,11.51c0,1.95-0.11,3.5-0.25,5.15
							c-0.14,1.64-0.24,3.25-0.43,4.84c-0.33,3.17-0.72,6.26-1.16,9.24c-0.89,5.96-1.99,11.49-3.19,16.43
							c-0.46,1.9-1.78,5.94-3.23,10.21c-1.14,3.32-3.83,5.47-6.86,6.15c-3.02,0.67-6.37-0.11-8.82-2.65
							c-3.13-3.25-6.04-6.35-7.27-7.87c-3.19-3.97-6.54-8.5-9.87-13.52c-1.67-2.51-3.33-5.13-4.98-7.87
							c-0.84-1.36-1.63-2.77-2.44-4.19c-0.84-1.4-1.61-2.96-2.39-4.13c-0.8-1.26-1.53-2.54-2.29-3.83
							c-0.74-1.29-1.56-2.56-2.32-3.86c-0.39-0.64-0.77-1.29-1.17-1.94c-0.38-0.65-0.72-1.32-1.13-1.96
							c-0.81-1.3-1.62-2.6-2.37-3.92c-6.07-10.17-12.54-21.03-19.01-31.89c-0.81-1.33-1.6-2.66-2.37-4.02
							c-0.82-1.33-1.65-2.65-2.43-3.99c-0.78-1.35-1.59-2.68-2.42-3.99c-0.79-1.35-1.59-2.68-2.38-4.01
							c-3.27-5.37-6.48-10.67-9.59-15.8c-1.58-2.7-2.82-4.8-4.34-7.48c-0.98-1.42-1.93-2.86-2.85-4.3
							c-0.46-0.73-0.92-1.44-1.38-2.14l-0.04-0.07c0.02,0,0.69,0.6,0.34,0.29l-0.08-0.13l-0.17-0.26l-0.34-0.55l-0.68-1.06
							c-3.61-5.64-6.8-11.2-9.58-16.55c-2.77-5.34-5.11-10.47-7.04-15.18c-1.92-4.71-3.46-8.97-4.58-12.65
							c-0.28-0.92-0.55-1.78-0.81-2.59c-0.24-0.84-0.45-1.63-0.65-2.36c-0.42-1.45-0.71-2.74-0.96-3.79
							c-0.49-2.09-0.68-3.29-0.68-3.29s1.21,0.05,3.35,0.29c1.07,0.12,2.39,0.27,3.88,0.52c0.76,0.11,1.56,0.24,2.41,0.36
							c0.84,0.16,1.73,0.32,2.67,0.5c3.78,0.68,8.21,1.71,13.11,3.06c4.91,1.36,10.27,3.08,15.9,5.21
							c5.64,2.12,11.54,4.63,17.56,7.56l1.14,0.55l0.57,0.28l0.28,0.14l0.15,0.07c-0.33-0.3,0.52,0.45,0.45,0.38l0.07,0.04
							c0.74,0.4,1.49,0.81,2.24,1.21c1.51,0.79,3.01,1.63,4.51,2.51c0.35,0.18,0.81,0.5,1.24,0.78l1.31,0.88
							c0.87,0.59,1.72,1.21,2.6,1.82c1.72,1.24,3.55,2.5,5.09,3.75c1.61,1.26,3.22,2.55,4.82,3.89c1.6,1.32,3.12,2.76,4.69,4.19
							C600.66,261.11,603.54,264.26,606.47,267.42z"/>
						<path class="st22" d="M616.64,367.29l9.94,44.54c-3.02,0.67-6.37-0.11-8.82-2.65c-3.13-3.25-6.04-6.35-7.27-7.87
							c-3.19-3.97-6.54-8.5-9.87-13.52c-1.67-2.51-3.33-5.13-4.98-7.87c-0.84-1.36-1.63-2.77-2.44-4.19
							c-0.84-1.4-1.61-2.96-2.39-4.13c-0.8-1.26-1.53-2.54-2.29-3.83c-0.74-1.29-1.56-2.56-2.32-3.86
							c-0.39-0.64-0.77-1.29-1.17-1.94c-0.38-0.65-0.72-1.32-1.13-1.96c-0.81-1.3-1.62-2.6-2.37-3.92
							c-6.07-10.17-12.54-21.03-19.01-31.89c-0.81-1.33-1.6-2.66-2.37-4.02c-0.82-1.33-1.65-2.65-2.43-3.99
							c-0.78-1.35-1.59-2.68-2.42-3.99c-0.79-1.35-1.59-2.68-2.38-4.01c-3.27-5.37-6.48-10.67-9.59-15.8
							c-1.58-2.7-2.82-4.8-4.34-7.48c-0.98-1.42-1.93-2.86-2.85-4.3c-0.46-0.73-0.92-1.44-1.38-2.14l-0.04-0.07
							c0.02,0,0.69,0.6,0.34,0.29l-0.08-0.13l-0.17-0.26l-0.34-0.55l-0.68-1.06c-3.61-5.64-6.8-11.2-9.58-16.55
							c-2.77-5.34-5.11-10.47-7.04-15.18c-1.92-4.71-3.46-8.97-4.58-12.65c-0.28-0.92-0.55-1.78-0.81-2.59
							c-0.24-0.84-0.45-1.63-0.65-2.36c-0.42-1.45-0.71-2.74-0.96-3.79c-0.49-2.09-0.68-3.29-0.68-3.29l43.32,38.51
							C584.95,287.37,607.28,325.32,616.64,367.29z"/>
					</g>
					<g>
						<polygon class="st22" points="479.71,216 517.37,245.24 525.96,234.76 489.35,206.28 						"/>
						<polygon class="st23" points="481.78,200.39 473.65,211.3 479.71,216 489.35,206.28 						"/>
						<polygon class="st24" points="494.82,200.78 485.68,195.17 481.78,200.39 489.35,206.28 						"/>
						<polygon class="st21" points="489.35,206.28 525.96,234.76 534.07,224.87 494.82,200.78 						"/>
					</g>
				</g>
			</g>
			<g>
				<path class="st25" d="M666.75,281.48l-0.98-7.21c-1.32-9.73-6.33-18.59-13.99-24.73l-31.05-24.93
					c-5.65-4.54-9.35-11.07-10.32-18.25l-48.1,6.54c0.98,7.18-0.84,14.46-5.08,20.34l-23.28,32.31c-5.74,7.97-8.2,17.84-6.88,27.57
					l0.98,7.21c0.67,4.94,5.22,8.4,10.16,7.73l21.89,161.07c-4.94,0.67-8.4,5.22-7.73,10.16l3.74,27.54
					c2.74,20.17,24.07,32.07,42.67,23.82l5.74-2.54c15.47-6.87,32.58-9.19,49.32-6.7l6.2,0.92c20.14,2.99,37.51-14.17,34.77-34.34
					l-3.74-27.54c-0.67-4.94-5.22-8.4-10.16-7.73l-21.89-161.07C663.96,290.97,667.42,286.42,666.75,281.48z"/>
				<g>
					<path class="st26" d="M556.11,506.84c2.74,20.17,24.07,32.07,42.67,23.82l5.74-2.54c15.47-6.86,32.58-9.19,49.32-6.7l6.2,0.92
						c20.14,2.99,37.51-14.17,34.77-34.34l-3.74-27.54c-0.67-4.94-5.22-8.4-10.16-7.73l-120.8,16.42c-4.94,0.67-8.4,5.22-7.73,10.16
						L556.11,506.84z"/>
					<path class="st26" d="M546.6,369.81l120.8-16.42c4.94-0.67,8.4-5.22,7.73-10.16l-0.85-6.26c-0.67-4.94-5.22-8.4-10.16-7.73
						l-120.8,16.42c-4.94,0.67-8.4,5.22-7.73,10.16l0.85,6.26C537.11,367.02,541.66,370.48,546.6,369.81z"/>
					<path class="st26" d="M550.8,400.68l120.8-16.42c4.94-0.67,8.4-5.22,7.73-10.16l-0.85-6.26c-0.67-4.94-5.22-8.4-10.16-7.73
						l-120.8,16.42c-4.94,0.67-8.4,5.22-7.73,10.16l0.85,6.26C541.3,397.89,545.85,401.35,550.8,400.68z"/>
					<path class="st26" d="M554.99,431.55l120.8-16.42c4.94-0.67,8.4-5.22,7.73-10.16l-0.85-6.26c-0.67-4.94-5.22-8.4-10.16-7.73
						l-120.8,16.42c-4.94,0.67-8.4,5.22-7.73,10.16l0.85,6.26C545.5,428.76,550.05,432.22,554.99,431.55z"/>
					<path class="st26" d="M559.19,462.42l120.8-16.42c4.94-0.67,8.4-5.22,7.73-10.16l-0.85-6.26c-0.67-4.94-5.22-8.4-10.16-7.73
						l-120.8,16.42c-4.94,0.67-8.4,5.22-7.73,10.16l0.85,6.26C549.69,459.63,554.24,463.09,559.19,462.42z"/>
					<path class="st26" d="M531.39,324.94l0.85,6.26c0.67,4.94,5.22,8.4,10.16,7.73l120.8-16.42c4.94-0.67,8.4-5.22,7.73-10.16
						l-0.85-6.26c-0.67-4.94-5.22-8.4-10.16-7.73l-120.8,16.42C534.18,315.45,530.72,320,531.39,324.94z"/>
					<path class="st26" d="M644.29,243.52l-104.72,14.23l-5.61,7.79c-5.74,7.97-8.2,17.84-6.88,27.57l0.98,7.21
						c0.67,4.94,5.22,8.4,10.16,7.73l120.8-16.42c4.94-0.67,8.4-5.22,7.73-10.16l-0.98-7.21c-1.32-9.73-6.33-18.59-13.99-24.73
						L644.29,243.52z"/>
				</g>
				<path class="st27" d="M620.72,224.61c-5.65-4.54-9.35-11.07-10.32-18.25l-1.01-7.46l-2.69-19.81l-48.1,6.54l2.69,19.81
					l1.01,7.46c0.98,7.18-0.84,14.46-5.08,20.34l-17.66,24.52l104.72-14.23L620.72,224.61z"/>
				<path class="st28" d="M561.98,210.51l0.32,2.38c0.98,7.18-0.84,14.46-5.08,20.34l-23.28,32.31c-5.74,7.97-8.2,17.84-6.88,27.57
					l0.98,7.21c0.67,4.94,5.22,8.4,10.16,7.73l0.91,6.71c-4.94,0.67-8.4,5.22-7.73,10.16l0.85,6.26c0.67,4.94,5.22,8.4,10.16,7.73
					l0.91,6.71c-4.94,0.67-8.4,5.22-7.73,10.16l0.85,6.26c0.67,4.94,5.22,8.4,10.16,7.73l0.91,6.71c-4.94,0.67-8.4,5.22-7.73,10.16
					l0.85,6.26c0.67,4.94,5.22,8.4,10.16,7.73l0.91,6.71c-4.94,0.67-8.4,5.22-7.73,10.16l0.85,6.26c0.67,4.94,5.22,8.4,10.16,7.73
					l0.91,6.71c-4.94,0.67-8.4,5.22-7.73,10.16l0.85,6.26c0.67,4.94,5.22,8.4,10.16,7.73l0.91,6.71c-4.94,0.67-8.4,5.22-7.73,10.16
					l3.74,27.54c2.74,20.17,24.07,32.07,42.67,23.82l1.67-0.74c-12.15-2.49-22.37-12.27-24.21-25.81l-3.74-27.54
					c-0.67-4.94,2.79-9.49,7.73-10.16l-0.91-6.71c-4.94,0.67-9.49-2.79-10.16-7.73l-0.85-6.26c-0.67-4.94,2.79-9.49,7.73-10.16
					l-0.91-6.71c-4.94,0.67-9.49-2.79-10.16-7.73l-0.85-6.26c-0.67-4.94,2.79-9.49,7.73-10.16l-0.91-6.71
					c-4.94,0.67-9.49-2.79-10.16-7.73l-0.85-6.26c-0.67-4.94,2.79-9.49,7.73-10.16l-0.91-6.71c-4.94,0.67-9.49-2.79-10.16-7.73
					l-0.85-6.26c-0.67-4.94,2.79-9.49,7.73-10.16l-0.91-6.71c-4.94,0.67-9.49-2.79-10.16-7.73l-0.85-6.26
					c-0.67-4.94,2.79-9.49,7.73-10.16l-0.91-6.71c-4.94,0.67-9.49-2.79-10.16-7.73l-0.98-7.21c-1.32-9.73,1.14-19.6,6.88-27.57
					l23.28-32.31c4.24-5.88,6.05-13.16,5.08-20.34l-0.32-2.38L561.98,210.51z"/>
				<g>
					<g>
						
							<rect x="560.68" y="204.11" transform="matrix(0.9909 -0.1347 0.1347 0.9909 -22.6771 77.5652)" class="st29" width="2.73" height="4.61"/>
						
							<rect x="567.39" y="203.2" transform="matrix(0.9909 -0.1347 0.1347 0.9909 -22.4939 78.4641)" class="st29" width="2.73" height="4.61"/>
						
							<rect x="574.1" y="202.29" transform="matrix(0.9909 -0.1347 0.1347 0.9909 -22.3092 79.3561)" class="st29" width="2.73" height="4.61"/>
						
							<rect x="580.81" y="201.38" transform="matrix(0.9909 -0.1347 0.1347 0.9909 -22.1257 80.2533)" class="st29" width="2.73" height="4.61"/>
						
							<rect x="587.52" y="200.47" transform="matrix(0.9909 -0.1346 0.1346 0.9909 -21.9391 81.1357)" class="st29" width="2.73" height="4.61"/>
						
							<rect x="594.23" y="199.55" transform="matrix(0.9909 -0.1347 0.1347 0.9909 -21.7574 82.0425)" class="st29" width="2.73" height="4.61"/>
						
							<rect x="600.95" y="198.64" transform="matrix(0.9909 -0.1347 0.1347 0.9909 -21.5742 82.9418)" class="st29" width="2.73" height="4.61"/>
						
							<rect x="607.66" y="197.73" transform="matrix(0.9909 -0.1346 0.1346 0.9909 -21.3874 83.8217)" class="st29" width="2.73" height="4.61"/>
					</g>
					<path class="st30" d="M611.38,200.48l-51.59,7.01c-0.48,0.06-0.81,0.51-0.75,0.98l0.38,2.83c0.07,0.48,0.51,0.81,0.98,0.75
						l51.59-7.01c0.48-0.07,0.81-0.51,0.75-0.98l-0.38-2.83C612.29,200.75,611.85,200.41,611.38,200.48z"/>
					<g class="st31">
						
							<rect x="560.48" y="203.71" transform="matrix(0.9909 -0.1347 0.1347 0.9909 -22.4828 77.5272)" class="st32" width="2.73" height="2.51"/>
						
							<rect x="567.19" y="202.79" transform="matrix(0.9909 -0.1347 0.1347 0.9909 -22.2995 78.4256)" class="st32" width="2.73" height="2.51"/>
						
							<rect x="573.9" y="201.88" transform="matrix(0.9909 -0.1346 0.1346 0.9909 -22.1098 79.2935)" class="st32" width="2.73" height="2.51"/>
						
							<rect x="580.61" y="200.97" transform="matrix(0.9909 -0.1347 0.1347 0.9909 -21.931 80.2136)" class="st32" width="2.73" height="2.51"/>
						
							<rect x="587.32" y="200.06" transform="matrix(0.9909 -0.1346 0.1346 0.9909 -21.7432 81.0899)" class="st32" width="2.73" height="2.51"/>
						
							<rect x="594.04" y="199.14" transform="matrix(0.9909 -0.1347 0.1347 0.9909 -21.5625 82.0015)" class="st32" width="2.73" height="2.51"/>
						
							<rect x="600.75" y="198.23" transform="matrix(0.9909 -0.1347 0.1347 0.9909 -21.3791 82.9)" class="st32" width="2.73" height="2.51"/>
						
							<rect x="607.46" y="197.32" transform="matrix(0.9909 -0.1347 0.1347 0.9909 -21.1964 83.8025)" class="st32" width="2.73" height="2.51"/>
					</g>
					<path class="st30" d="M599.4,172.91l-35.42,4.81c-4.94,0.67-8.4,5.22-7.73,10.16l2.31,17.03c0.07,0.48,0.51,0.81,0.98,0.75
						l51.59-7.01c0.48-0.06,0.81-0.51,0.75-0.98l-2.31-17.03C608.89,175.7,604.34,172.24,599.4,172.91z"/>
					<g class="st31">
						
							<rect x="558.98" y="186.99" transform="matrix(0.9909 -0.1346 0.1346 0.9909 -21.2152 77.1202)" class="st32" width="1.13" height="16.84"/>
						
							<rect x="561.87" y="186.59" transform="matrix(0.9909 -0.1346 0.1346 0.9909 -21.136 77.5057)" class="st32" width="1.13" height="16.84"/>
						
							<rect x="564.76" y="186.2" transform="matrix(0.9909 -0.1345 0.1345 0.9909 -21.0452 77.8328)" class="st32" width="1.13" height="16.84"/>
						
							<rect x="567.65" y="185.81" transform="matrix(0.9909 -0.1347 0.1347 0.9909 -20.9788 78.2827)" class="st32" width="1.13" height="16.84"/>
						
							<rect x="570.54" y="185.41" transform="matrix(0.9909 -0.1347 0.1347 0.9909 -20.8998 78.6693)" class="st32" width="1.13" height="16.84"/>
						
							<rect x="573.43" y="185.02" transform="matrix(0.9909 -0.1347 0.1347 0.9909 -20.8206 79.0548)" class="st32" width="1.13" height="16.84"/>
						
							<rect x="576.32" y="184.63" transform="matrix(0.9909 -0.1346 0.1346 0.9909 -20.7401 79.4332)" class="st32" width="1.13" height="16.84"/>
						
							<rect x="579.21" y="184.24" transform="matrix(0.9909 -0.1346 0.1346 0.9909 -20.6609 79.8187)" class="st32" width="1.13" height="16.84"/>
						
							<rect x="582.1" y="183.84" transform="matrix(0.9909 -0.1347 0.1347 0.9909 -20.5828 80.2104)" class="st32" width="1.13" height="16.84"/>
						
							<rect x="584.99" y="183.45" transform="matrix(0.9909 -0.1347 0.1347 0.9909 -20.5038 80.5969)" class="st32" width="1.13" height="16.84"/>
						
							<rect x="587.88" y="183.06" transform="matrix(0.9909 -0.1346 0.1346 0.9909 -20.4233 80.9752)" class="st32" width="1.13" height="16.84"/>
						
							<rect x="590.77" y="182.67" transform="matrix(0.9909 -0.1346 0.1346 0.9909 -20.3441 81.3607)" class="st32" width="1.13" height="16.84"/>
						
							<rect x="593.65" y="182.27" transform="matrix(0.9909 -0.1346 0.1346 0.9909 -20.2649 81.7462)" class="st32" width="1.13" height="16.84"/>
						
							<rect x="596.54" y="181.88" transform="matrix(0.9909 -0.1347 0.1347 0.9909 -20.195 82.1848)" class="st32" width="1.13" height="16.84"/>
						
							<rect x="599.43" y="181.49" transform="matrix(0.9909 -0.1346 0.1346 0.9909 -20.1068 82.5183)" class="st32" width="1.13" height="16.84"/>
						
							<rect x="602.32" y="181.1" transform="matrix(0.9909 -0.1347 0.1347 0.9909 -20.0355 82.95)" class="st32" width="1.13" height="16.84"/>
						
							<rect x="605.21" y="180.7" transform="matrix(0.9909 -0.1346 0.1346 0.9909 -19.9469 83.2808)" class="st32" width="1.13" height="16.84"/>
						
							<rect x="608.1" y="180.31" transform="matrix(0.9909 -0.1347 0.1347 0.9909 -19.8782 83.7289)" class="st32" width="1.13" height="16.84"/>
					</g>
				</g>
			</g>
			<g>
				<g>
					<path class="st33" d="M649.06,171.61l-1,11.24l82.67,7.38l1-11.24c0.48-5.32-3.45-10.02-8.78-10.5l-63.4-5.66
						C654.23,162.36,649.53,166.29,649.06,171.61z"/>
					<g>
						<path class="st7" d="M660.07,169.76c-0.95-0.08-1.79,0.62-1.88,1.57l-1.56,17.43c-0.08,0.95,0.62,1.79,1.57,1.88
							c0.95,0.08,1.79-0.62,1.88-1.57l1.56-17.43C661.72,170.69,661.02,169.85,660.07,169.76z"/>
						<path class="st7" d="M666.86,170.37c-0.95-0.09-1.79,0.62-1.88,1.57l-1.56,17.43c-0.09,0.95,0.62,1.79,1.57,1.88
							c0.95,0.08,1.79-0.62,1.88-1.57l1.56-17.43C668.52,171.29,667.82,170.45,666.86,170.37z"/>
						<path class="st7" d="M673.66,170.97L673.66,170.97c-0.95-0.09-1.79,0.62-1.88,1.57l-1.56,17.43
							c-0.09,0.95,0.62,1.79,1.57,1.88h0c0.95,0.08,1.79-0.62,1.88-1.57l1.56-17.43C675.31,171.9,674.61,171.06,673.66,170.97z"/>
						<path class="st7" d="M680.45,171.58c-0.95-0.08-1.79,0.62-1.88,1.57l-1.56,17.43c-0.09,0.95,0.62,1.79,1.57,1.88
							c0.95,0.09,1.79-0.62,1.88-1.57l1.56-17.43C682.11,172.51,681.4,171.67,680.45,171.58z"/>
						<path class="st7" d="M687.25,172.19c-0.95-0.08-1.79,0.62-1.88,1.57l-1.56,17.43c-0.09,0.95,0.62,1.79,1.57,1.88
							c0.95,0.08,1.79-0.62,1.88-1.57l1.56-17.43C688.9,173.11,688.2,172.27,687.25,172.19z"/>
						<path class="st7" d="M694.04,172.79L694.04,172.79c-0.95-0.09-1.79,0.62-1.88,1.57l-1.56,17.43
							c-0.08,0.95,0.62,1.79,1.57,1.88h0c0.95,0.09,1.79-0.62,1.88-1.57l1.56-17.43C695.7,173.72,694.99,172.88,694.04,172.79z"/>
						<path class="st7" d="M700.84,173.4c-0.95-0.08-1.79,0.62-1.88,1.57l-1.56,17.43c-0.09,0.95,0.62,1.79,1.57,1.88
							c0.95,0.09,1.79-0.62,1.88-1.57l1.56-17.43C702.49,174.33,701.79,173.49,700.84,173.4z"/>
						<path class="st7" d="M707.63,174.01L707.63,174.01c-0.95-0.09-1.79,0.62-1.88,1.57l-1.56,17.43
							c-0.08,0.95,0.62,1.79,1.57,1.88h0c0.95,0.08,1.79-0.62,1.88-1.57l1.56-17.43C709.29,174.93,708.58,174.09,707.63,174.01z"/>
						<path class="st7" d="M714.43,174.61L714.43,174.61c-0.95-0.08-1.79,0.62-1.88,1.57l-1.56,17.43
							c-0.09,0.95,0.62,1.79,1.57,1.88h0c0.95,0.08,1.79-0.62,1.88-1.57l1.56-17.43C716.08,175.54,715.38,174.7,714.43,174.61z"/>
						<path class="st7" d="M721.22,175.22L721.22,175.22c-0.95-0.09-1.79,0.62-1.88,1.57l-1.56,17.43
							c-0.09,0.95,0.62,1.79,1.57,1.88h0c0.95,0.08,1.79-0.62,1.88-1.57l1.56-17.43C722.88,176.15,722.17,175.31,721.22,175.22z"/>
					</g>
					<path class="st34" d="M739.25,315.28l-3.45-12.49c-7.36-26.61-9.87-54.32-7.41-81.82l1.16-13.03l-83.48-7.45l-1.16,13.03
						c-2.45,27.5-9.83,54.33-21.79,79.21l-5.61,11.68c-11.95,24.88-19.33,51.72-21.79,79.21l-14.07,157.59
						c-1.43,15.97,10.36,30.07,26.33,31.49l93.11,8.31c15.97,1.43,30.07-10.36,31.49-26.33l14.07-157.59
						C749.12,369.6,746.61,341.88,739.25,315.28z"/>
					<g>
						<path class="st0" d="M734.09,322.3l-3.2-11.56c-3.91-14.13-6.29-28.6-7.22-43.17c-13.25-2.47-14.29-9.18-30.48-10.63
							c-17.92-1.6-18.65,6.49-36.57,4.89c-7.02-0.63-11.17-2.25-14.71-4.09c-3.53,15.05-8.66,29.7-15.37,43.68l-5.19,10.81
							c-11.07,23.05-17.9,47.9-20.18,73.36l-13.03,145.95c-1.32,14.79,9.6,27.85,24.39,29.17l86.23,7.7
							c14.79,1.32,27.85-9.6,29.17-24.39l13.03-145.95C743.23,372.6,740.91,346.94,734.09,322.3z"/>
					</g>
					<path class="st35" d="M710.12,459.31l-89.44-7.98c-1.25-0.11-2.17-1.21-2.06-2.46l7.98-89.44c0.11-1.25,1.21-2.17,2.46-2.06
						l89.44,7.98c1.25,0.11,2.17,1.21,2.06,2.46l-7.98,89.44C712.47,458.5,711.37,459.42,710.12,459.31z"/>
					<path class="st36" d="M739.25,315.28l-3.45-12.49c-7.36-26.61-9.87-54.32-7.41-81.82l1.16-13.03l-33.59-3
						c-1.57,25.44-3.79,50.54,3.01,75.13l3.45,12.49c7.36,26.61,9.87,54.32,7.41,81.82l-14.07,157.59
						c-1.43,15.97-15.53,27.76-31.49,26.33l-81.8-7.3c2.97,11.58,12.93,20.58,25.51,21.71l93.11,8.31
						c15.97,1.43,30.07-10.36,31.49-26.33l14.07-157.59C749.12,369.6,746.61,341.88,739.25,315.28z"/>
					<path class="st36" d="M639.58,189.38l-0.29,3.21c-0.36,3.99,2.59,7.52,6.58,7.87l83.88,7.49c3.99,0.36,7.52-2.59,7.87-6.58
						l0.29-3.21c0.36-3.99-2.59-7.52-6.58-7.87l-83.88-7.49C643.46,182.45,639.93,185.39,639.58,189.38z"/>
				</g>
				<g class="st37">
					<path class="st38" d="M639.35,316.06c-0.6-0.05-1.2-0.22-1.77-0.51c-2.38-1.22-3.32-4.13-2.11-6.51
						c16.98-33.23,20.66-92.14,20.69-92.73c0.16-2.67,2.45-4.7,5.12-4.54c2.45,0.15,4.7,2.45,4.54,5.12
						c-0.15,2.49-3.83,61.51-21.74,96.56C643.17,315.25,641.26,316.23,639.35,316.06z"/>
				</g>
			</g>
			<g>
				<g>
					<g>
						<path class="st39" d="M714.63,286.39c-2.72-9.4,6.22-20.25,6.22-20.25s4.21,7.04,6.93,16.43c2.72,9.4,2.93,17.59,2.93,17.59
							S717.35,295.79,714.63,286.39z"/>
					</g>
					<g>
						<path class="st39" d="M753.47,307.7c9.4-2.72,13.78-16.08,13.78-16.08s-8.2,0.21-17.59,2.93c-9.4,2.72-16.43,6.93-16.43,6.93
							S744.08,310.42,753.47,307.7z"/>
					</g>
					<g>
						<path class="st40" d="M741.44,412.58c11.82-29.06,8.1-59.43-7.36-76.83c0.2-9.88-4.07-18.45-11.77-21.58
							c-7.7-3.13-16.74,0.02-23.49,7.23c-23.22,1.67-47.08,20.82-58.9,49.88c-12.14,29.85-7.88,61.08,8.66,78.22
							c0.91,8.08,4.98,14.77,11.59,17.46c6.6,2.69,14.19,0.74,20.48-4.41C704.45,461.81,729.3,442.42,741.44,412.58z"/>
					</g>
					<g>
						<path class="st39" d="M721.07,318.84c-0.32,0-0.64-0.09-0.92-0.28c-0.74-0.51-0.94-1.52-0.43-2.26l22.51-33.05
							c0.51-0.74,1.52-0.94,2.26-0.43c0.74,0.51,0.94,1.52,0.43,2.26l-22.51,33.05C722.1,318.59,721.59,318.84,721.07,318.84z"/>
					</g>
				</g>
				<g class="st37">
					<g>
						<path class="st0" d="M688.97,336.74c-0.77,1.89-2.93,2.8-4.82,2.03c-1.89-0.77-2.8-2.93-2.03-4.82
							c0.77-1.89,2.93-2.8,4.82-2.03C688.83,332.69,689.74,334.85,688.97,336.74z"/>
					</g>
					<g>
						<path class="st0" d="M684.78,347.02c-0.68,1.68-2.6,2.49-4.28,1.81c-1.68-0.68-2.49-2.6-1.81-4.28
							c0.68-1.68,2.6-2.49,4.28-1.81C684.66,343.42,685.47,345.34,684.78,347.02z"/>
					</g>
					<g>
						<path class="st0" d="M693.78,348.17c-0.6,1.47-2.28,2.18-3.75,1.58c-1.47-0.6-2.18-2.28-1.58-3.75
							c0.6-1.47,2.28-2.18,3.75-1.58C693.67,345.02,694.38,346.7,693.78,348.17z"/>
					</g>
					<g>
						<path class="st0" d="M698.55,343.01c-0.37,0.91-1.41,1.35-2.32,0.98c-0.91-0.37-1.35-1.41-0.98-2.32
							c0.37-0.91,1.41-1.35,2.32-0.98C698.48,341.05,698.92,342.09,698.55,343.01z"/>
					</g>
					<g>
						<path class="st0" d="M698.18,335.9c-0.34,0.84-1.3,1.25-2.14,0.9c-0.84-0.34-1.25-1.3-0.9-2.14c0.34-0.84,1.3-1.25,2.14-0.9
							C698.12,334.1,698.52,335.06,698.18,335.9z"/>
					</g>
					<g>
						<path class="st0" d="M693.67,341.17c-0.46,1.12-1.73,1.66-2.86,1.2c-1.12-0.46-1.66-1.74-1.2-2.86
							c0.46-1.12,1.74-1.66,2.86-1.2C693.59,338.77,694.13,340.05,693.67,341.17z"/>
					</g>
					<g>
						<path class="st0" d="M708.28,340.9c-0.46,1.12-1.74,1.66-2.86,1.2c-1.12-0.46-1.66-1.74-1.2-2.86
							c0.46-1.12,1.74-1.66,2.86-1.2C708.19,338.5,708.73,339.78,708.28,340.9z"/>
					</g>
					<g>
						<path class="st0" d="M703.44,349.88c-0.68,1.68-2.6,2.49-4.28,1.81s-2.49-2.6-1.81-4.28c0.68-1.68,2.6-2.49,4.28-1.81
							C703.32,346.28,704.13,348.2,703.44,349.88z"/>
					</g>
				</g>
				<g class="st37">
					<g>
						<path class="st0" d="M695.54,432.69c0.68,1.93,2.8,2.93,4.72,2.25c1.93-0.68,2.93-2.8,2.25-4.72
							c-0.68-1.93-2.8-2.93-4.72-2.25C695.87,428.65,694.86,430.76,695.54,432.69z"/>
					</g>
					<g>
						<path class="st0" d="M699.24,443.15c0.61,1.71,2.49,2.61,4.2,2c1.71-0.61,2.61-2.49,2-4.2c-0.61-1.71-2.49-2.61-4.2-2
							C699.53,439.56,698.64,441.44,699.24,443.15z"/>
					</g>
					<g>
						<path class="st0" d="M690.2,443.88c0.53,1.5,2.17,2.28,3.67,1.75c1.5-0.53,2.28-2.17,1.75-3.67c-0.53-1.5-2.17-2.28-3.67-1.75
							C690.45,440.74,689.67,442.38,690.2,443.88z"/>
					</g>
					<g>
						<path class="st0" d="M685.68,438.51c0.33,0.93,1.35,1.41,2.27,1.08c0.93-0.33,1.41-1.35,1.08-2.27
							c-0.33-0.93-1.35-1.41-2.27-1.08C685.84,436.56,685.35,437.58,685.68,438.51z"/>
					</g>
					<g>
						<path class="st0" d="M686.37,431.43c0.3,0.86,1.24,1.3,2.1,1c0.86-0.3,1.3-1.24,1-2.1c-0.3-0.86-1.24-1.3-2.1-1
							C686.52,429.63,686.07,430.57,686.37,431.43z"/>
					</g>
					<g>
						<path class="st0" d="M690.63,436.9c0.4,1.14,1.66,1.74,2.8,1.33c1.14-0.4,1.74-1.66,1.33-2.8c-0.4-1.14-1.66-1.74-2.8-1.33
							C690.83,434.5,690.23,435.76,690.63,436.9z"/>
					</g>
					<g>
						<path class="st0" d="M676.06,435.95c0.4,1.14,1.66,1.74,2.8,1.33c1.14-0.4,1.74-1.66,1.33-2.8c-0.4-1.14-1.66-1.74-2.8-1.33
							C676.25,433.56,675.65,434.81,676.06,435.95z"/>
					</g>
					<g>
						<path class="st0" d="M680.47,445.15c0.61,1.71,2.49,2.61,4.2,2c1.71-0.61,2.61-2.49,2-4.2c-0.61-1.71-2.49-2.61-4.2-2
							C680.76,441.56,679.87,443.43,680.47,445.15z"/>
					</g>
				</g>
			</g>
			<g>
				<g>
					<path class="st41" d="M616.21,330.77c0.11-0.32-0.02-0.54-0.2-0.76c-0.17-0.22-0.23-0.49-0.34-0.74
						c-0.2-0.51-0.39-1.06-0.64-1.6c-0.25-0.54-0.51-1.09-0.78-1.67c-0.26-0.58-0.57-1.15-0.9-1.72c-0.33-0.57-0.65-1.17-1.01-1.76
						c-0.76-1.14-1.51-2.35-2.42-3.47c-0.85-1.17-1.85-2.23-2.82-3.32c-1.05-1.02-2.05-2.08-3.18-2.98
						c-1.07-0.96-2.24-1.77-3.34-2.59c-0.56-0.39-1.15-0.74-1.7-1.09c-0.56-0.36-1.11-0.7-1.67-0.98c-0.56-0.3-1.1-0.59-1.62-0.87
						c-0.53-0.27-1.07-0.49-1.57-0.72c-0.25-0.12-0.51-0.19-0.73-0.37c-0.2-0.21-0.44-0.31-0.76-0.19c-0.2,0.06-1.03,0.41-2.03,0.84
						c-2.43,1.04-3.43,3.95-2.17,6.27c0.42,0.76,0.74,1.36,0.81,1.51c0.06,0.12,0.11,0.24,0.2,0.29c0.08,0.06,0.19,0.05,0.3,0.06
						c0.21,0.01,0.38,0.14,0.58,0.21c0.38,0.18,0.79,0.33,1.19,0.54c0.4,0.21,0.81,0.44,1.24,0.66c0.43,0.21,0.85,0.48,1.28,0.75
						c0.43,0.28,0.87,0.54,1.31,0.84c0.84,0.64,1.75,1.25,2.58,2c0.87,0.69,1.65,1.52,2.46,2.31c0.74,0.86,1.53,1.67,2.18,2.58
						c0.71,0.86,1.28,1.8,1.87,2.67c0.28,0.45,0.52,0.91,0.77,1.35c0.26,0.44,0.5,0.87,0.69,1.32c0.21,0.44,0.41,0.86,0.6,1.27
						c0.19,0.41,0.32,0.83,0.48,1.22c0.06,0.2,0.18,0.38,0.17,0.59c-0.02,0.22,0.03,0.41,0.27,0.52
						C607.75,333.96,616.03,331.39,616.21,330.77z"/>
				</g>
				<g>
					<g>
						<path class="st42" d="M608.02,314.81c0,0-6.87-15.15-1.25-27.31c5.63-12.16,21.62-16.73,21.62-16.73s6.87,15.15,1.25,27.31
							C624.01,310.24,608.02,314.81,608.02,314.81z"/>
					</g>
				</g>
				<g>
					<path class="st39" d="M656.51,317.39c-11.38-3.33-23.6-1.71-34.02,3.95c-3.82,2.08-8.06,4.13-11.35,5.07
						c-3.29,0.93-7.98,1.41-12.32,1.65c-11.84,0.65-23.09,5.69-31.03,14.5c-11.53,12.8-15.94,31-8.43,57.45
						c6.86,24.2,25.53,41.85,47.93,48.4c12.16,3.56,22.91-5.02,35.98-8.73c13.07-3.71,26.72-2.05,35.2-11.46
						c15.62-17.34,22.25-42.16,15.38-66.36C686.35,335.41,673.04,322.23,656.51,317.39z"/>
				</g>
				<g>
					<g class="st37">
						<path class="st0" d="M589.07,374.66c-1.06,6.47-4.93,11.22-8.64,10.61c-3.71-0.61-5.85-6.35-4.79-12.82
							c1.06-6.47,4.93-11.22,8.64-10.61C587.99,362.46,590.14,368.2,589.07,374.66z"/>
					</g>
					<g class="st37">
						<path class="st0" d="M593.39,349.61c-1.57,3.64-4.54,5.86-6.63,4.96c-2.09-0.9-2.51-4.59-0.93-8.23
							c1.57-3.64,4.54-5.86,6.63-4.96C594.55,342.29,594.97,345.97,593.39,349.61z"/>
					</g>
				</g>
				<g class="st15">
					<g>
						<path class="st43" d="M569.24,341.03c-0.49,0.5-0.98,1-1.45,1.52c-11.53,12.8-15.94,31-8.43,57.45
							c6.86,24.2,25.53,41.85,47.93,48.4c6.27,1.84,12.17,0.44,18.2-1.85c-25.13-15.02-44.25-38.11-52.41-66.91
							C569.44,366.82,568.25,353.81,569.24,341.03z"/>
					</g>
				</g>
			</g>
			<g>
				<path class="st44" d="M475.05,339.09c-1.11-5.47,1.28-12.55-1.79-17.11c-3.07-4.56-10.53-5-15.18-8.09
					c-4.49-2.98-7.74-9.74-13.36-10.83c-5.62-1.1-11.17,3.95-16.45,5.02c-3.58,0.73-7.85-0.04-11.65,0.2
					c-3.43-1.65-7.67-2.54-10.72-4.56c-4.49-2.98-7.74-9.74-13.36-10.83c-5.62-1.1-11.17,3.95-16.45,5.02
					c-5.47,1.11-12.55-1.28-17.11,1.79c-4.56,3.07-5,10.53-8.09,15.18c-2.98,4.49-9.74,7.74-10.83,13.36
					c-1.1,5.62,3.95,11.17,5.02,16.45c1.11,5.47-1.28,12.55,1.79,17.11c3.07,4.56,10.53,5,15.18,8.09
					c4.49,2.98,7.74,9.74,13.36,10.83c5.62,1.1,11.17-3.95,16.45-5.02c3.58-0.73,7.85,0.04,11.65-0.2
					c3.43,1.65,7.67,2.54,10.72,4.56c4.49,2.98,7.74,9.74,13.36,10.83c5.62,1.1,11.17-3.95,16.45-5.02
					c5.47-1.11,12.55,1.28,17.11-1.79c4.56-3.07,5-10.53,8.09-15.18c2.98-4.49,9.74-7.74,10.83-13.36
					C481.16,349.93,476.12,344.38,475.05,339.09z"/>
				<path class="st6" d="M442.32,427.32l-10.67-15.84l-21.81,14.69c-2.82,1.9-6.52-0.56-5.87-3.89l6.01-30.82l-18.74-3.66
					l-6.01,30.82c-0.65,3.33-5,4.21-6.9,1.4l-14.69-21.81l-15.84,10.67l25.06,37.21c3.48,5.16,4.76,11.49,3.57,17.6l-19.32,67.74
					l30.5,5.95l7.56-70.03c1.19-6.11,4.76-11.49,9.92-14.97L442.32,427.32z"/>
				<g>
					<path class="st45" d="M307.22,371.42c1.1-5.62,7.86-8.87,10.83-13.36c3.09-4.65,3.53-12.11,8.09-15.18
						c4.56-3.07,11.64-0.68,17.11-1.79c5.28-1.07,10.84-6.11,16.45-5.02c5.62,1.1,8.87,7.86,13.36,10.83
						c4.65,3.09,12.11,3.53,15.18,8.09c3.07,4.56,0.67,11.64,1.79,17.11c1.07,5.28,6.11,10.84,5.02,16.45
						c-1.1,5.62-7.85,8.87-10.83,13.36c-3.09,4.65-3.53,12.11-8.09,15.18c-4.56,3.07-11.64,0.68-17.11,1.79
						c-5.28,1.07-10.84,6.11-16.45,5.02c-5.62-1.1-8.87-7.86-13.36-10.83c-4.65-3.09-12.11-3.53-15.18-8.09
						c-3.07-4.56-0.67-11.64-1.79-17.11C311.17,382.59,306.13,377.03,307.22,371.42z"/>
					<path class="st45" d="M406.43,390.77c1.1-5.62,7.86-8.87,10.83-13.36c3.09-4.65,3.53-12.11,8.09-15.18
						c4.56-3.07,11.64-0.67,17.11-1.79c5.28-1.07,10.84-6.11,16.45-5.02c5.62,1.1,8.87,7.86,13.36,10.83
						c4.65,3.09,12.11,3.53,15.18,8.09c3.07,4.56,0.67,11.64,1.79,17.11c1.07,5.28,6.11,10.84,5.02,16.45
						c-1.1,5.62-7.86,8.87-10.83,13.36c-3.09,4.65-3.53,12.11-8.09,15.18c-4.56,3.07-11.64,0.68-17.11,1.79
						c-5.28,1.07-10.84,6.11-16.45,5.02c-5.62-1.1-8.87-7.86-13.36-10.83c-4.65-3.09-12.11-3.53-15.18-8.09
						c-3.07-4.56-0.68-11.64-1.79-17.11C410.38,401.94,405.33,396.39,406.43,390.77z"/>
				</g>
				<path class="st46" d="M361.99,354.64c1.1-5.62,7.86-8.87,10.83-13.36c3.09-4.65,3.53-12.11,8.09-15.18
					c4.56-3.07,11.64-0.67,17.11-1.79c5.28-1.07,10.84-6.11,16.45-5.02c5.62,1.1,8.87,7.86,13.36,10.83
					c4.65,3.09,12.11,3.53,15.18,8.09c3.07,4.56,0.67,11.64,1.79,17.11c1.07,5.28,6.11,10.84,5.02,16.45
					c-1.1,5.62-7.86,8.87-10.83,13.36c-3.09,4.65-3.53,12.11-8.09,15.18c-4.56,3.07-11.64,0.67-17.11,1.79
					c-5.28,1.07-10.84,6.11-16.45,5.02c-5.62-1.1-8.87-7.85-13.36-10.83c-4.65-3.09-12.11-3.53-15.18-8.09
					c-3.07-4.56-0.67-11.64-1.79-17.11C365.93,365.81,360.89,360.25,361.99,354.64z"/>
			</g>
			<g>
				<g>
					<path class="st47" d="M578.59,400.31c0,37.27-20.75,67.91-47.33,71.66c-1.8,0.26-3.65,0.38-5.5,0.38
						c-14.53,0-27.66-8-37.22-20.92c-9.56,12.92-22.69,20.92-37.22,20.92c-1.85,0-3.7-0.12-5.5-0.38
						c-26.58-3.75-47.33-34.39-47.33-71.66c0-39.79,23.65-72.04,52.83-72.04c14.34,0,27.33,7.78,36.81,20.44
						c0.17,0.17,0.29,0.34,0.41,0.5c0.12-0.17,0.24-0.34,0.41-0.5c9.49-12.66,22.48-20.44,36.81-20.44
						C554.93,328.27,578.59,360.52,578.59,400.31z"/>
				</g>
				<g class="st31">
					<path class="st32" d="M546.16,420.72c0,20.05-6.55,38.21-17.15,51.24c-1.71,0.26-3.46,0.38-5.21,0.38
						c-13.76,0-26.21-8-35.26-20.92c-9.05,12.92-21.5,20.92-35.26,20.92c-1.75,0-3.5-0.12-5.21-0.38
						c-10.6-13.04-17.15-31.19-17.15-51.24c0-39.62,25.59-71.78,57.24-72.02c0.14-0.02,0.25-0.02,0.39-0.02c0.14,0,0.25,0,0.39,0.02
						C520.57,348.94,546.16,381.1,546.16,420.72z"/>
				</g>
				<g>
					<ellipse class="st47" cx="488.53" cy="420.73" rx="52.83" ry="72.04"/>
				</g>
				<g>
					<ellipse class="st47" cx="488.53" cy="342.68" rx="34.22" ry="24.01"/>
				</g>
				<g>
					<ellipse class="st48" cx="488.53" cy="348.99" rx="23.11" ry="14.71"/>
				</g>
				<g>
					<path class="st39" d="M488.35,352.61c-3.45,0-6.25-2.8-6.25-6.25v-8.63c0-14.17,4.99-27.97,14.05-38.86
						c1.18-1.42,2.45-2.81,3.75-4.12c2.44-2.44,6.39-2.44,8.84,0c2.44,2.44,2.44,6.4,0,8.84c-1.04,1.04-2.04,2.14-2.99,3.27
						c-7.19,8.65-11.16,19.61-11.16,30.87v8.63C494.6,349.81,491.8,352.61,488.35,352.61z"/>
				</g>
			</g>
		</g>
		<g>
			<g>
				<polygon class="st49" points="641.23,396.47 623.06,384.46 604.9,396.47 586.73,384.46 568.56,396.47 550.4,384.46 
					532.24,396.47 514.07,384.46 495.91,396.47 477.74,384.46 459.58,396.47 441.41,384.46 423.25,396.47 405.09,384.46 
					386.92,396.47 368.76,384.46 350.59,396.47 332.43,384.46 314.27,396.47 296.1,384.46 277.94,396.47 259.78,384.46 
					259.78,925.61 641.26,925.61 641.26,396.47 				"/>
				<polygon class="st50" points="750.24,396.47 732.07,384.46 713.9,396.47 695.97,384.46 695.97,925.61 750.24,925.61 				"/>
				<polygon class="st51" points="695.97,384.46 677.56,396.47 659.39,384.46 641.23,396.47 641.25,396.47 641.25,925.61 
					695.97,925.61 695.97,384.46 				"/>
			</g>
			<polygon class="st52" points="696.13,841.61 641.24,925.61 750.24,925.61 			"/>
		</g>
	</g>
	<g>
		<path class="st1" d="M390.81,801.48l-0.01,0.02c-2.96,8.23-5.86,15.17-8.22,19.48c-1.73,3.15-3.15,4.87-4.11,4.66l-9.1-2.28
			c-2.51-0.63-5.01-1.26-7.5-1.9c-0.01,0-0.01,0-0.02,0c-2.57-0.67-5.13-1.32-7.67-1.99c-81.12-21.43-147.08-48.63-199.13-73.96
			c-0.04-0.03-0.07-0.05-0.11-0.07C138.8,737.58,65.9,706,0,677.18v-134.6c124.58,104.31,273.3,143.93,367.74,174.41
			c2.3,0.75,4.61,1.48,6.93,2.21c0.07,0.02,0.13,0.04,0.2,0.07c2.01,0.62,4.04,1.25,6.06,1.87c2.71,0.83,5.42,1.64,8.15,2.44
			c2.4,0.71,4.82,1.41,7.24,2.1l8.32,2.38c1.42,0.38,2.15,2.3,2.34,5.35C407.76,746.17,399.01,778.69,390.81,801.48z"/>
		<path class="st2" d="M634.61,805.21c-0.67,7.8-9.66,13.02-19.58,12.7c-30.45-0.77-60.31-2.2-89.56-7.38
			c-2.89-0.55-5.82,0.67-6.85,2.88c-0.01,0.03-0.02,0.05-0.05,0.08c-1.13,2.39,0.36,5.1,3.41,6.08
			c22.68,7.61,46.17,13.95,70.38,18.88c9.75,1.85,15.35,7.82,12.54,15.43s-13.83,10.91-23.94,8.86
			c-26.93-4.94-53.12-11.56-78.41-19.69c-2.18-0.74-4.66-0.64-6.65,0.25c-0.05,0.02-0.1,0.05-0.16,0.07
			c-4.46,2.01-4.45,6.97,0.16,9.2c15.16,7.78,30.85,15.04,47.02,21.71c8.03,3.06,11.14,8.71,6.82,14.56
			c-3.65,4.98-11.76,6.5-19.13,4.84c-1.32-0.29-2.63-0.7-3.87-1.19c-0.14-0.07-0.28-0.12-0.4-0.17
			c-15.04-6.03-29.91-12.13-44.53-18.48h-0.01c-15.55-6.75-30.83-13.78-45.79-21.3c-8.21-4.13-16.34-8.4-24.35-12.87
			c-4.86-2.7-9.36-5.81-13.43-9.29c-2.72-2.29-5.25-4.76-7.57-7.35c-2.7-0.69-5.4-1.36-8.08-2.05c-2.22-0.56-4.42-1.13-6.63-1.7
			c-3.93-1.01-7.81-2.02-11.67-3.06c-0.42-0.12-0.85-0.22-1.27-0.34l-0.01-0.01c-83.09-22.06-151.87-46.29-207.95-70.36
			c-0.04-0.03-0.07-0.05-0.11-0.07c-15.68-6.73-88.73-37.46-154.94-65.7V555.96c133.31,124.69,292.14,144.1,388.65,172.33
			c3.59,1.06,7.2,2.08,10.83,3.09c2.48,0.69,4.98,1.37,7.5,2.03c0.5,0.15,1,0.28,1.5,0.41c5.13-2.8,10.7-5.09,16.56-6.73
			c2.56-0.74,5.1-1.33,7.65-1.8c1.91-0.36,3.82-0.73,5.7-1.12c4.43-0.92,8.81-1.94,13.14-3.07c19.87-5.16,38.63-12.51,55.62-22.16
			c1.96-1.11,3.92-2.24,5.85-3.38c1.28-0.75,2.55-1.51,3.81-2.27c0.24-0.14,0.5-0.28,0.75-0.41c0,0,0,0,0.01,0
			c6.27-3.26,14.12-1.59,18.16,4.32c0.73,1.1,1.3,2.24,1.7,3.43h0.01c1.51,4.48,0.63,9.44-2.47,13.09
			c-0.77,0.92-1.69,1.76-2.74,2.48c-0.42,0.29-0.85,0.58-1.27,0.88c-2.73,2.01-5.49,3.99-8.28,5.93c-3.48,2.47-7.02,4.88-10.6,7.24
			c-0.55,0.37-1.09,0.73-1.64,1.09c-3.09,2.03-6.21,4.04-9.38,6.01c-1.66,1.02-2.36,2.58-2.29,4.1h0.01
			c0.09,2.34,2.05,4.62,5.23,4.77c0.2,0.01,0.41,0.01,0.61,0.02c10.69,0.46,21.4,0.61,32.08,0.42h0.01c0.5,0,1.01-0.01,1.51-0.02
			c12.02-0.22,24.02-0.85,35.99-1.88h0.01c4.14-0.36,8.28-0.77,12.42-1.22c4.5-0.49,9-1.04,13.48-1.65
			c7.63-1.15,14.69,1.71,17.22,7.73c0.3,0.73,0.54,1.51,0.71,2.34c1.54,7.58-4.75,13.98-13.78,15.35
			c-14.34,2.42-28.78,4.28-43.29,5.57c-7.65,0.7-15.33,1.23-23.02,1.6c0,0-0.01,0-0.02,0c-1.79,0.08-3.58,0.16-5.37,0.23
			c-3.24,0.08-5.63,2.6-4.93,5.3c0.01,0.02,0.02,0.05,0.03,0.07c0.42,1.68,1.98,3.03,4,3.39c28.36,5.56,57.44,7.37,87.18,8.53
			C628.31,792.27,635.29,797.41,634.61,805.21z"/>
		<path class="st3" d="M388.65,728.29c-3.15,16.39-18.23,70.83-24.37,87.93c-1.19,3.32-2.04,5.24-2.41,5.24c-0.01,0-0.01,0-0.02,0
			c-2.58-0.65-5.14-1.31-7.7-1.98c-3.34-0.87-6.65-1.75-9.94-2.63c-2.52-0.67-5.06-0.29-7.15,0.89c-5.72,3.19-12.44,3.34-18.82,1.9
			C253.02,804.99,129.64,769.27,0,699.51v-187.1c97.39,77.92,222.37,144.67,348.46,190.62c6.27,2.28,11.57,6.39,15.78,11.56
			c0.87,1.09,2.07,1.94,3.5,2.4c2.3,0.75,4.61,1.48,6.93,2.21c0.07,0.02,0.13,0.04,0.2,0.07c2.01,0.62,4.04,1.25,6.06,1.87
			c2.71,0.83,5.42,1.64,8.15,2.44C389.39,723.67,389.21,725.38,388.65,728.29z"/>
		<path class="st4" d="M404.65,728.05l-8.32-2.37c-9.7-2.76-19.23-5.67-28.59-8.69c-22.77,34.72-30.55,68-23.53,99.86
			c8.24,2.22,16.62,4.39,25.16,6.52l9.11,2.27C367.94,820.95,391.21,726.75,404.65,728.05z"/>
	</g>
</g>
</svg>
