<?xml version="1.0" standalone="no"?>
<!DOCTYPE svg PUBLIC "-//W3C//DTD SVG 20010904//EN"
 "http://www.w3.org/TR/2001/REC-SVG-20010904/DTD/svg10.dtd">
<svg version="1.0" xmlns="http://www.w3.org/2000/svg"
 width="700.000000pt" height="700.000000pt" viewBox="0 0 700.000000 700.000000"
 preserveAspectRatio="xMidYMid meet">
<metadata>
Created by potrace 1.11, written by Peter Selinger 2001-2013
</metadata>
<g transform="translate(0.000000,700.000000) scale(0.100000,-0.100000)"
fill="#000000" stroke="none">
<path d="M3128 6245 l-3 -235 -74 170 -73 170 -129 0 c-118 0 -128 -1 -122
-17 4 -10 31 -72 59 -138 38 -85 50 -122 41 -126 -7 -4 -64 -12 -127 -19 -156
-17 -164 -21 -156 -68 11 -59 16 -72 32 -72 8 0 14 -2 14 -5 0 -3 18 -149 40
-326 44 -351 43 -361 -13 -406 -25 -19 -25 -21 -16 -99 19 -174 21 -154 -16
-154 -60 0 -83 -16 -109 -72 -13 -29 -40 -71 -61 -93 -32 -34 -36 -45 -32 -75
3 -19 8 -43 12 -52 6 -16 1 -18 -47 -18 -63 0 -76 -10 -106 -80 -11 -25 -36
-61 -56 -79 -42 -41 -43 -53 -15 -138 12 -35 19 -66 16 -70 -4 -3 -29 9 -57
27 -55 35 -57 35 -132 -13 l-53 -33 -60 38 -60 37 -3 -344 c-1 -190 -5 -345
-8 -345 -20 0 -397 276 -594 434 -480 385 -869 783 -1204 1231 -14 18 -15 -70
-16 -801 l0 -821 102 -80 c439 -341 941 -656 1475 -926 l243 -122 0 -97 c0
-88 -2 -97 -17 -91 -45 16 -498 239 -635 313 -385 208 -881 530 -1155 752 -10
8 -13 -122 -13 -645 l0 -655 178 -90 c457 -232 965 -437 1455 -588 l187 -58 0
-418 0 -418 1330 0 1330 0 3 743 2 742 3 -747 2 -748 380 0 380 0 0 1853 0
1852 -58 38 c-32 20 -63 37 -68 37 -5 0 -36 -18 -68 -40 l-60 -39 -60 42 -61
43 -7 74 c-15 176 -106 324 -233 382 -77 35 -180 32 -266 -9 -49 -23 -70 -28
-78 -20 -18 18 -12 57 13 80 13 12 39 37 59 55 45 42 61 89 53 151 -4 32 -1
62 9 92 9 24 25 75 35 112 l19 68 -32 -6 c-18 -3 -149 -21 -292 -40 -381 -51
-376 -50 -403 -82 -45 -55 -64 -109 -64 -180 0 -86 14 -122 52 -136 37 -14 38
-38 4 -72 -18 -18 -25 -34 -22 -50 5 -22 2 -23 -49 -24 -41 0 -62 5 -91 25
-20 14 -49 28 -64 31 -16 3 -28 9 -28 13 0 3 18 32 40 64 22 31 40 65 40 74 0
23 -19 42 -41 42 -24 0 -94 -82 -116 -135 -16 -39 -22 -44 -59 -50 -55 -8
-154 33 -154 64 0 32 29 161 51 228 19 58 19 65 5 125 -8 35 -20 92 -26 128
-6 36 -13 77 -16 93 -5 24 -3 27 21 27 42 0 106 38 172 103 l62 60 26 -17 c15
-10 28 -16 30 -14 4 4 265 608 265 614 0 2 -57 4 -128 4 l-127 0 -80 -186 -80
-187 -3 337 -2 336 -120 0 -120 0 -2 -235z m-69 -685 c69 -160 71 -166 71
-247 0 -93 -7 -101 -58 -58 -36 30 -36 30 -62 235 -11 91 -23 183 -26 205 -4
22 -4 38 -1 35 3 -3 37 -79 76 -170z m1099 -974 c5 -22 -24 -66 -43 -66 -10 0
-15 10 -15 29 0 50 50 81 58 37z m-54 -132 c10 -9 16 -33 16 -60 0 -35 -6 -51
-26 -71 -24 -24 -27 -24 -42 -9 -11 11 -17 33 -17 67 0 41 4 54 24 70 28 23
26 23 45 3z m383 -1166 c-1 -101 -2 -19 -2 182 0 201 1 283 2 183 2 -101 2
-265 0 -365z m0 -640 c-1 -62 -3 -14 -3 107 0 121 2 172 3 113 2 -59 2 -158 0
-220z m0 -400 c-2 -29 -3 -8 -3 47 0 55 1 79 3 53 2 -26 2 -71 0 -100z m-746
-117 c33 -33 39 -82 14 -118 -8 -11 -63 -53 -122 -93 -143 -96 -145 -98 -132
-121 9 -18 24 -19 207 -19 108 0 249 5 312 12 63 6 148 12 188 12 69 1 75 -1
98 -27 40 -46 29 -104 -26 -132 -35 -18 -174 -41 -335 -55 -263 -23 -245 -20
-245 -41 0 -11 10 -23 23 -28 41 -16 260 -42 460 -55 169 -11 202 -15 224 -32
52 -39 47 -96 -10 -138 -27 -20 -40 -21 -190 -19 -89 2 -232 11 -317 20 -85 9
-177 17 -205 18 -43 0 -50 -3 -50 -20 0 -27 73 -52 344 -121 231 -58 261 -72
261 -126 0 -37 -36 -74 -88 -87 -30 -9 -59 -7 -123 5 -110 20 -297 66 -432
106 -114 33 -142 32 -142 -8 0 -20 134 -93 288 -156 89 -37 117 -59 117 -92 0
-44 -31 -69 -91 -74 -50 -4 -70 2 -230 68 -372 154 -649 293 -756 380 -33 26
-79 55 -104 63 l-44 15 3 64 c8 152 86 432 148 525 11 18 19 21 37 14 17 -7
39 -2 81 16 32 13 108 35 169 49 166 36 311 89 444 160 140 75 178 80 224 35z"/>
<path d="M4570 5842 c-16 -13 -24 -32 -27 -69 l-5 -51 63 -6 c35 -3 141 -13
234 -21 94 -8 196 -17 228 -20 l57 -6 0 56 c0 59 -22 95 -57 95 -10 0 -112 9
-228 20 -255 24 -238 24 -265 2z"/>
<path d="M4045 5769 c-66 -10 -121 -18 -122 -18 -2 -1 -9 -11 -17 -24 -13 -18
-13 -34 -4 -92 5 -39 11 -79 12 -90 3 -26 42 -26 226 -1 135 18 158 25 145 45
-3 6 -8 40 -10 76 -4 63 -17 103 -39 117 -15 11 -53 8 -191 -13z m65 -189 c0
-5 -5 -10 -11 -10 -5 0 -7 5 -4 10 3 6 8 10 11 10 2 0 4 -4 4 -10z m47 4 c-3
-3 -12 -4 -19 -1 -8 3 -5 6 6 6 11 1 17 -2 13 -5z m-140 -20 c-3 -3 -12 -4
-19 -1 -8 3 -5 6 6 6 11 1 17 -2 13 -5z"/>
<path d="M5021 5089 c-31 -67 -27 -95 17 -138 20 -20 46 -41 57 -47 18 -10 18
-13 -18 -62 -20 -29 -37 -57 -37 -62 0 -23 17 -7 53 50 l38 59 40 -21 c78 -40
141 -22 179 52 l21 41 -23 -5 c-13 -3 -41 -8 -63 -11 -22 -4 -60 -15 -84 -26
-24 -11 -46 -17 -49 -14 -3 3 9 25 27 50 18 25 31 51 29 57 -3 7 -24 -16 -49
-51 l-44 -63 -7 51 c-9 57 -42 159 -58 175 -6 6 -16 -6 -29 -35z"/>
</g>
</svg>
