<?xml version="1.0" encoding="utf-8"?>
<!-- Generator: Adobe Illustrator 24.2.2, SVG Export Plug-In . SVG Version: 6.00 Build 0)  -->
<svg version="1.1" id="Layer_1" xmlns="http://www.w3.org/2000/svg" xmlns:xlink="http://www.w3.org/1999/xlink" x="0px" y="0px"
	 viewBox="0 0 841.89 595.28" style="enable-background:new 0 0 841.89 595.28;" xml:space="preserve">
<style type="text/css">
	.st0{fill-rule:evenodd;clip-rule:evenodd;fill:#050606;}
</style>
<path class="st0" d="M205.33,362.89c-0.14-1.13-0.21-2.3-0.21-3.48h-0.04c0-1.51,0.13-3.07,0.39-4.67l34.46-212.05
	c1.13-6.99,4.73-13.27,9.6-17.77c4.89-4.51,11.19-7.31,17.72-7.31h305.21c1.42,0,2.82,0.14,4.2,0.4c5.46,1.04,10.08,4.04,13.37,8.34
	c3.23,4.22,5.09,9.66,5.09,15.67h0.04c0,1.5-0.12,3.07-0.39,4.67l-4.12,25.37h74.15c6.73,0,7.4,8,9.79,15.04l34.25,100.94
	c4.5,9.66,5.91,22.16,2.6,39.02l-5.57,34.31h5.34c6.26,0,10.48,5.55,9.37,12.33l-7.49,46.08c-1.1,6.78-7.12,12.33-13.38,12.33
	h-18.71c1.8-4.91,3.16-10,4.01-15.24c3.15-19.4-1.25-36.97-10.92-49.68c-9.67-12.72-24.6-20.58-42.5-20.58
	c-17.9,0-35.39,7.87-49.19,20.58c-13.8,12.71-23.91,30.28-27.06,49.68c-0.85,5.23-1.15,10.33-0.95,15.24H338.06
	c1.8-4.91,3.16-10,4.01-15.24c3.15-19.4-1.25-36.97-10.92-49.68c-1.83-2.41-3.86-4.65-6.05-6.69h207.89c1.3,0,2.68-0.67,3.85-1.75
	c1.19-1.1,2.05-2.53,2.29-4.02l34.46-212.05c0.04-0.21,0.05-0.43,0.05-0.66h0.04c0-0.37-0.08-0.65-0.21-0.83
	c-0.08-0.1-0.25-0.18-0.51-0.23c-0.13-0.02-0.29-0.04-0.5-0.04H267.24c-1.3,0-2.68,0.67-3.85,1.75c-1.19,1.1-2.05,2.53-2.3,4.02
	l-34.46,212.05c-0.04,0.21-0.05,0.43-0.05,0.66h-0.04c0,0.37,0.08,0.65,0.21,0.83c0.08,0.1,0.25,0.18,0.51,0.23
	c0.13,0.02,0.29,0.04,0.5,0.04h19.91c-2.86,2.04-5.61,4.28-8.22,6.69c-13.8,12.71-23.91,30.28-27.06,49.68
	c-0.85,5.23-1.15,10.33-0.95,15.24h-11.92c-6.26,0-10.48-5.55-9.37-12.33l7.49-46.08C198.4,369.06,201.46,364.99,205.33,362.89
	L205.33,362.89z M214.08,188.16l4.41-29.69l-67.05,15.42l-1.26,8.48L214.08,188.16L214.08,188.16z M201.98,261.41l4.41-29.69
	l-67.05,15.42l-1.26,8.48L201.98,261.41L201.98,261.41z M179.31,402.13l3.97-29.69l-60.41,15.42l-1.13,8.48L179.31,402.13
	L179.31,402.13z M189.18,339.67l4.41-29.69l-67.05,15.42l-1.26,8.48L189.18,339.67L189.18,339.67z M512.12,277.45h-12.1
	c-1.7,7.58-2.92,13.94-3.68,19.1c-0.27-3.26-1.35-9.63-3.22-19.1h-12.11l9.3,30.88v17.52h12.18v-17.52L512.12,277.45L512.12,277.45z
	 M449.51,277.45v48.4h13.21v-21.84c1.81,0,2.92,0.31,3.33,0.93c0.43,0.62,0.64,2.22,0.64,4.81v16.1h12.24v-12.78
	c0-3.91-0.11-6.29-0.33-7.16c-0.21-0.87-0.77-1.82-1.67-2.86c-0.9-1.04-2.66-1.87-5.27-2.49c2.88-0.26,4.82-1.03,5.79-2.33
	c0.98-1.3,1.47-3.83,1.47-7.59c0-4.12-0.69-7.13-2.08-9.01c-1.39-1.88-3.18-3.06-5.38-3.52c-2.2-0.46-6.41-0.68-12.63-0.68H449.51
	L449.51,277.45z M462.72,285.71v10.77c1.48,0,2.5-0.19,3.09-0.58c0.59-0.39,0.89-1.65,0.89-3.79v-2.66c0-1.54-0.29-2.55-0.86-3.03
	C465.27,285.95,464.23,285.71,462.72,285.71L462.72,285.71z M422.87,277.45v48.4h22.89v-9.67h-9.68v-10.64h8.21v-9.18h-8.21v-9.24
	h8.78v-9.67H422.87L422.87,277.45z M420.6,277.45h-13.91l-0.88,9.03c-0.74,7.23-1.46,15.51-2.17,24.84
	c-0.72-9.23-1.86-20.52-3.43-33.87H386.3l7.65,48.4h19.97L420.6,277.45L420.6,277.45z M384.04,277.45h-13.21v48.4h13.21V277.45
	L384.04,277.45z M359.66,277.45h-13.21v48.4h21.16v-9.67h-7.95V277.45L359.66,277.45z M319.81,277.45v48.4h22.89v-9.67h-9.68v-10.64
	h8.21v-9.18h-8.21v-9.24h8.78v-9.67H319.81L319.81,277.45z M284.38,277.45v48.4H301c3.15,0,5.51-0.16,7.07-0.49
	c1.57-0.34,2.89-0.91,3.95-1.73c1.06-0.83,1.81-1.98,2.23-3.45c0.43-1.46,0.64-4.37,0.64-8.71v-16.95c0-4.59-0.15-7.66-0.44-9.23
	c-0.29-1.56-1.03-2.98-2.19-4.25c-1.17-1.27-2.88-2.19-5.12-2.75c-2.24-0.56-6.55-0.84-12.91-0.84H284.38L284.38,277.45z
	 M297.59,285.71v31.88c1.87,0,3.02-0.37,3.45-1.09c0.44-0.74,0.65-2.71,0.65-5.95v-18.83c0-2.19-0.07-3.6-0.21-4.22
	c-0.15-0.62-0.47-1.07-0.99-1.36C299.97,285.85,299.01,285.71,297.59,285.71L297.59,285.71z M486,161.55L466.95,263.5h48.21
	l3.81-20.36h-20.39l4.19-22.42h17.28l3.61-19.33h-17.29l3.64-19.46h18.5l3.8-20.36H486L486,161.55z M429.89,161.55L410.84,263.5
	h48.21l3.8-20.36h-20.39l4.19-22.42h17.28l3.61-19.33h-17.28l3.64-19.46h18.5l3.81-20.36H429.89L429.89,161.55z M357.17,161.55
	L338.13,263.5h27.82l8.59-46.01c3.81,0,6.02,0.65,6.66,1.96c0.66,1.31,0.48,4.68-0.54,10.14l-6.34,33.92h25.79l5.03-26.91
	c1.54-8.23,2.25-13.25,2.12-15.08c-0.11-1.83-0.9-3.85-2.39-6.01c-1.48-2.19-4.87-3.93-10.12-5.24c6.18-0.54,10.56-2.17,13.11-4.9
	c2.58-2.73,4.61-8.05,6.09-15.98c1.62-8.68,1.34-15.01-0.85-18.97c-2.18-3.97-5.5-6.44-9.96-7.41c-4.45-0.97-13.23-1.44-26.33-1.44
	H357.17L357.17,161.55z M381.74,178.95l-4.24,22.68c3.11,0,5.34-0.41,6.73-1.22c1.39-0.82,2.52-3.48,3.36-7.97l1.05-5.61
	c0.61-3.24,0.4-5.37-0.61-6.38C387.03,179.45,384.91,178.95,381.74,178.95L381.74,178.95z M303.43,161.55L284.38,263.5h27.82
	l7.99-42.79h17.02l3.61-19.33h-17.01l3.64-19.46h19.18l3.8-20.36H303.43L303.43,161.55z M285.75,364.44
	c-13.36,0-26.41,5.87-36.71,15.36c-10.3,9.49-17.85,22.6-20.2,37.08c-2.35,14.48,0.93,27.59,8.15,37.08
	c7.21,9.49,18.36,15.36,31.72,15.36c13.36,0,26.41-5.87,36.71-15.36c10.3-9.49,17.85-22.6,20.2-37.08
	c2.35-14.48-0.93-27.59-8.15-37.08C310.26,370.31,299.11,364.44,285.75,364.44L285.75,364.44z M265.33,401.23
	c-4.34,4-7.53,9.54-8.52,15.65c-0.99,6.11,0.39,11.65,3.44,15.65s7.75,6.48,13.39,6.48c5.64,0,11.15-2.48,15.49-6.48
	c4.35-4,7.53-9.54,8.52-15.65c0.99-6.11-0.39-11.65-3.44-15.65c-3.04-4-7.75-6.48-13.39-6.48
	C275.19,394.75,269.68,397.22,265.33,401.23L265.33,401.23z M628.67,364.44c-13.36,0-26.41,5.87-36.71,15.36
	c-10.3,9.49-17.85,22.6-20.2,37.08c-2.35,14.48,0.93,27.59,8.15,37.08c7.21,9.49,18.36,15.36,31.72,15.36
	c13.36,0,26.41-5.87,36.71-15.36c10.3-9.49,17.85-22.6,20.2-37.08c2.35-14.48-0.93-27.59-8.15-37.08
	C653.17,370.31,642.03,364.44,628.67,364.44L628.67,364.44z M608.25,401.23c-4.35,4-7.53,9.54-8.52,15.65
	c-0.99,6.11,0.39,11.65,3.44,15.65c3.04,4,7.75,6.48,13.39,6.48c5.64,0,11.15-2.48,15.5-6.48c4.34-4,7.53-9.54,8.52-15.65
	c0.99-6.11-0.39-11.65-3.44-15.65c-3.04-4-7.75-6.48-13.39-6.48C618.11,394.75,612.6,397.22,608.25,401.23L608.25,401.23z
	 M646.68,204.13h-52.54l-14.46,89.01h62.91l9.28,17.35h30.93c-0.28-1.55-0.72-3.04-1.35-4.4l-0.62-1.32L646.68,204.13z"/>
</svg>
