<?xml version="1.0" encoding="utf-8"?>
<!-- Generator: Adobe Illustrator 24.2.2, SVG Export Plug-In . SVG Version: 6.00 Build 0)  -->
<svg version="1.1" xmlns="http://www.w3.org/2000/svg" xmlns:xlink="http://www.w3.org/1999/xlink" x="0px" y="0px"
	 viewBox="0 0 5113.9 2002" style="enable-background:new 0 0 5113.9 2002;" xml:space="preserve">
<style type="text/css">
	.st0{opacity:0.69;}
	.st1{opacity:0.37;}
	.st2{opacity:0.47;}
	.st3{fill:#FFFFFF;}
	.st4{fill:#1765CF;}
	.st5{fill:#FE9592;}
	.st6{fill:#03277D;}
	.st7{fill:#6EAEF9;}
	.st8{fill:#4F94F9;}
	.st9{opacity:0.57;}
	.st10{fill:#FD9F02;}
	.st11{fill:#CE7C05;}
	.st12{fill:#CDDBFE;}
	.st13{fill:#FC8006;}
	.st14{fill:#48956B;}
	.st15{fill:#70BB92;}
	.st16{fill:#FE2D5D;}
	.st17{fill:#231F20;}
	.st18{fill:#CC5B06;}
	.st19{fill:#E31F26;}
	.st20{opacity:0.57;fill:#FE2D5D;}
	.st21{fill:#0A8657;}
	.st22{fill:#1AA671;}
	.st23{fill:#D9C6A5;}
	.st24{fill:#A5071A;}
	.st25{fill:#FFABAB;}
	.st26{fill:#3A3942;}
	.st27{fill:#FB7874;}
	.st28{fill:#0054CA;}
	.st29{opacity:0.72;}
	.st30{fill:#7E8387;}
	.st31{fill:#494E51;}
	.st32{fill:#FDB702;}
	.st33{fill:#436DD6;}
	.st34{fill:#CB0030;}
	.st35{fill:none;stroke:#03277D;stroke-width:13.1551;stroke-miterlimit:10;}
	.st36{fill:#7FC29D;}
	.st37{fill:#FCCB5E;}
	.st38{fill:#FD8200;}
	.st39{fill:none;stroke:#03277D;stroke-width:3.6523;stroke-linecap:round;stroke-linejoin:round;stroke-miterlimit:10;}
	.st40{opacity:0.4;fill:#48956B;}
	.st41{fill:#315FD2;}
	.st42{fill:#B2B2B2;}
	.st43{fill:#5BB182;}
	.st44{fill:#4A87DA;}
	.st45{fill:#1D1D1B;}
	.st46{fill:#575756;}
	.st47{fill:#878787;}
	.st48{fill:#706F6F;}
	.st49{fill:#3C3C3B;}
	.st50{fill:#FDC73A;}
	.st51{fill:none;stroke:#FFFFFF;stroke-width:5.3129;stroke-linecap:round;stroke-linejoin:round;stroke-miterlimit:10;}
	.st52{fill:none;stroke:#FFFFFF;stroke-width:10.6258;stroke-linecap:round;stroke-linejoin:round;stroke-miterlimit:10;}
	.st53{fill:#CEB58A;}
	.st54{fill:#C4A672;}
	.st55{fill:#B89556;}
	.st56{fill:#1157B1;}
	.st57{opacity:0.36;fill:#CB0030;}
	
		.st58{opacity:0.5;fill:none;stroke:#CDDBFE;stroke-width:1.0967;stroke-linecap:round;stroke-linejoin:round;stroke-miterlimit:10;}
	.st59{fill:#4EAB78;}
	.st60{fill:none;stroke:#03277D;stroke-width:13.8676;stroke-linecap:round;stroke-linejoin:round;stroke-miterlimit:10;}
	.st61{fill:#87C6A4;}
	.st62{fill:#DB9F48;}
</style>
<g id="Layer_1">
	<g id="New_Symbol_4" class="st0">
	</g>
	<g id="New_Symbol_3_1_" class="st1">
	</g>
	<g id="New_Symbol_3" class="st1">
	</g>
	<g id="New_Symbol_1_6_">
	</g>
	<g id="New_Symbol_1_5_" class="st2">
	</g>
	<g id="New_Symbol_1_4_">
	</g>
	<g id="New_Symbol_1_3_">
	</g>
	<g id="New_Symbol_1_2_">
	</g>
	<g id="New_Symbol_1_1_">
	</g>
	<g id="New_Symbol_1">
	</g>
	<g id="New_Symbol">
		<g id="New_Symbol_11">
		</g>
		<g id="New_Symbol_16">
		</g>
		<g id="New_Symbol_17">
		</g>
		<g id="New_Symbol_15">
		</g>
		<g id="New_Symbol_12">
		</g>
		<g id="New_Symbol_14">
		</g>
		<g id="New_Symbol_13">
		</g>
		<g id="New_Symbol_10">
		</g>
		<g id="New_Symbol_7">
		</g>
		<g id="New_Symbol_4_1_">
		</g>
		<g id="New_Symbol_5">
		</g>
		<g id="New_Symbol_8">
		</g>
		<g id="New_Symbol_1_7_">
		</g>
		<g id="New_Symbol_2">
		</g>
		<g id="New_Symbol_6">
		</g>
		<g id="New_Symbol_4_2_">
		</g>
		<g id="New_Symbol_5_1_">
		</g>
		<g id="New_Symbol_8_1_">
		</g>
		<g id="New_Symbol_1_8_">
		</g>
		<g id="New_Symbol_7_1_">
		</g>
		<g id="New_Symbol_2_1_">
		</g>
		<g id="New_Symbol_6_1_">
		</g>
		<g id="New_Symbol_11_1_">
		</g>
		<g id="New_Symbol_16_1_">
		</g>
		<g id="New_Symbol_17_1_">
		</g>
		<g id="New_Symbol_15_1_">
		</g>
		<g id="New_Symbol_12_1_">
		</g>
		<g id="New_Symbol_14_1_">
		</g>
		<g id="New_Symbol_13_1_">
		</g>
		<g id="New_Symbol_10_1_">
			<g id="New_Symbol_4_3_">
			</g>
			<g id="New_Symbol_5_2_">
			</g>
			<g id="New_Symbol_1_9_">
			</g>
			<g id="New_Symbol_2_2_">
			</g>
			<g id="New_Symbol_16_2_">
			</g>
			<g id="New_Symbol_17_2_">
			</g>
			<g id="New_Symbol_15_2_">
			</g>
			<g id="New_Symbol_12_2_">
			</g>
			<g id="New_Symbol_14_2_">
			</g>
			<g id="New_Symbol_10_2_">
			</g>
			<g id="New_Symbol_8_2_">
			</g>
		</g>
	</g>
	<g id="New_Symbol_4_4_">
		<g id="New_Symbol_7_2_">
			<g id="New_Symbol_2_4_">
			</g>
		</g>
		<g id="New_Symbol_9">
			<g id="New_Symbol_6_2_">
				<g id="New_Symbol_5_3_">
					<g id="New_Symbol_3_2_">
						<g id="New_Symbol_8_3_">
							<g id="New_Symbol_4_5_">
							</g>
						</g>
					</g>
				</g>
			</g>
		</g>
		<g id="New_Symbol_2_3_">
		</g>
		<g id="New_Symbol_1_10_">
		</g>
		<g id="New_Symbol_3_3_">
		</g>
		<g id="New_Symbol_5_4_">
		</g>
	</g>
</g>
<g id="Layer_55">
	<rect x="0" class="st3" width="5113.9" height="2002"/>
	<g>
		<g>
			<path class="st4" d="M1506.3,1457.7h42.3c45,0,81.4-36.4,81.4-81.4v-215.7h-123.8V1457.7z"/>
			<path class="st4" d="M1259.3,1457.7H1217c-45,0-81.4-36.4-81.4-81.4v-215.7h123.8V1457.7z"/>
			<path class="st4" d="M1346,982.7c0,0-173.7,36.1-200.6,100.6c-27,64.5-0.6,286.3,25.9,336.9c39.6,75.5,118,21.3,118,21.3
				l128.5-403.9L1346,982.7z"/>
			<path class="st4" d="M1417.6,982.7c0,0,173.7,36.1,200.6,100.6c27,64.5,4.7,278.8-32.6,340.1c-43.9,72.1-111.3,18-111.3,18
				l-128.5-403.9L1417.6,982.7z"/>
			<g>
				<path class="st5" d="M1419,1021.8c-6.2,3.9-14.6,6.7-20,8.5c-18.9,6.2-39.9,6.3-58.6-0.7c-5.5-2-10.9-4.7-15-8.9
					c-5.6-5.8-5.5-11.2-5.5-18.6c0-6.4,0-12.8,0-19.2c0-18.4,0-36.8,0-55.2c0,0,106.4,0,106.4,0c0,19.8,0,39.5,0,59.3
					c0,7.7,3.3,23-1.3,29.4C1423.5,1018.5,1421.4,1020.2,1419,1021.8z"/>
				<path class="st5" d="M1457.4,856.7c2.6-2.9,5.3-5.8,8.8-7.4c3.5-1.6,8-1.7,10.9,0.9c3.5,3.2,3.2,8.7,2,13.2
					c-3.4,12.5-12.1,23.5-23.4,29.7c-0.3-0.5-0.6-1-0.9-1.6L1457.4,856.7z"/>
				<path class="st5" d="M1448.3,749.7c-12.5-8.4-26.2-7-40.2-7.2c-11.5-0.1-23-0.2-34.5-0.4c-0.2,0-0.5,0-0.7,0
					c-11.5-0.1-23-0.2-34.5-0.4c-14-0.1-27.7-1.8-40.3,6.3c-12.2,7.8-20.5,20.6-20.6,35.9c-0.2,15.4-0.3,30.8-0.5,46.2l-0.8,70.8
					c-0.2,19.9,12,39.1,26.2,51.7c24,21.3,44.7,30.7,67.9,31.1l0,0c0.1,0,0.2,0,0.4,0c0.1,0,0.2,0,0.4,0v0
					c23.2,0.1,46-8.9,70.5-29.7c14.5-12.3,25.2-31.2,25.4-51.1l0.8-70.8c0.2-15.4,0.3-30.8,0.5-46.2
					C1468.3,770.8,1460.4,757.8,1448.3,749.7z"/>
				<path class="st6" d="M1257.9,797.1c0-0.9,0-1.9,0-2.8c0.2-10.8,1.4-21.9,6.5-31.2c2.6-4.8,6.3-8.9,10.8-11.7
					c4.4-2.7,9.2-2.3,13.5-4.1c-2.7-12.8,0.9-25.3,10.9-33.3c9.8-7.8,22.5-9.8,34.7-9.7c35.8,0.2,70.6,15.6,106.3,13.5
					c7.5-0.4,15.8-2.2,20.2-8.8c13.4,21.7,20.6,47.6,21.4,73.7c0.4,13-0.8,26.1-3.7,38.8c-1.4,6.4-3.4,12.5-5.6,18.6
					c-1.4,4.1-5.6,14.4-5.5,18.9c-0.2-21.1-2-47.7-7.1-68.1c-23.1,14.7-57.2,11.9-83,4c-23.1-7.1-59.3-39-59.2-39
					c-12.1,8.8-19.4,13.6-25.4,28.2c-5.2,12.6-16.1,88.5-15.6,100C1272.1,847.8,1257.8,825.1,1257.9,797.1z"/>
				<path class="st5" d="M1282.6,854.9c-2.5-2.9-5.2-5.9-8.6-7.6s-8-1.9-10.9,0.7c-3.5,3.1-3.4,8.6-2.2,13.2
					c3.1,12.6,11.6,23.7,22.8,30.2c0.3-0.5,0.6-1,0.9-1.5L1282.6,854.9z"/>
				<path class="st6" d="M1288.9,794l-4.1,80.7c0,0-3.4-20.9-10.8-27.4L1288.9,794z"/>
				<path class="st6" d="M1340.3,862.4c0,4.1-2.8,7.3-6.2,7.3c-3.4,0-6-3.4-6-7.4c0-4.1,2.8-7.3,6.2-7.3S1340.4,858.3,1340.3,862.4z
					"/>
				<path class="st6" d="M1428.7,863.3c0,4.1-2.8,7.3-6.2,7.3c-3.4,0-6-3.4-6-7.4c0-4.1,2.8-7.3,6.2-7.3
					C1426.1,855.9,1428.8,859.2,1428.7,863.3z"/>
				<g>
					<g>
						<g>
							<path class="st6" d="M1309.6,841.1c2.9-2.8,6.4-5,10.2-6.4c3.8-1.5,7.9-2.3,12-2.4c4.1-0.1,8.2,0.6,12,1.9
								c3.8,1.3,7.4,3.3,10.3,6c0.6,0.6,0.7,1.5,0.1,2.1c-0.4,0.5-1.2,0.6-1.7,0.4l0,0c-3.3-1.5-6.7-2.7-10.1-3.4
								c-3.4-0.7-6.9-1-10.4-0.8c-3.4,0.1-6.9,0.8-10.2,1.8c-3.3,1.1-6.5,2.5-9.6,4.3l0,0c-1,0.6-2.4,0.2-3-0.8
								C1308.7,842.9,1308.9,841.8,1309.6,841.1z"/>
						</g>
					</g>
					<g>
						<g>
							<path class="st6" d="M1402.1,840.7c3-2.6,6.7-4.5,10.5-5.7c3.8-1.2,7.9-1.8,12-1.6c4.1,0.2,8.1,1.1,11.8,2.7
								c3.7,1.6,7.1,3.9,9.8,6.8c0.5,0.6,0.5,1.4-0.1,1.9c-0.4,0.4-1.1,0.5-1.6,0.2l0,0c-3.2-1.8-6.5-3.2-9.9-4.2
								c-3.4-1-6.8-1.6-10.3-1.7c-3.5-0.1-7,0.2-10.4,1c-3.4,0.8-6.8,2-10,3.5l0,0c-0.9,0.4-1.9,0-2.3-0.8
								C1401.3,842,1401.5,841.2,1402.1,840.7z"/>
						</g>
					</g>
				</g>
				<g>
					<path class="st7" d="M1450.5,891.1l-0.6-9.4c0,0-52.8-7.3-77.3-7.3c-23.4,0-75.4,7.3-75.4,7.3l-1.1,9.3
						c9.1-1.2,54.3-7.1,75.9-7.1C1395.3,884,1442.9,890.1,1450.5,891.1z"/>
					<path class="st8" d="M1372.5,986.9c49.2,3.1,81.1-45.3,81.1-45.3l-3.1-50.5c-7.6-1-55.3-7.1-78.4-7.1
						c-21.6,0-66.8,5.9-75.9,7.1l-5.9,49C1294.9,945.8,1323.3,983.8,1372.5,986.9z"/>
				</g>
				<g class="st9">
					<g>
						<path class="st4" d="M1312.6,900.5c9.5-2.7,19.2-4.6,29-5.9l7.4-0.9l7.4-0.6c2.5-0.1,4.9-0.3,7.4-0.4l7.4-0.2
							c9.9-0.1,19.8,0.5,29.6,1.7c9.8,1.2,19.5,3.1,29,5.8c0.3,0.1,0.5,0.4,0.4,0.7c-0.1,0.3-0.3,0.4-0.6,0.4
							c-9.8-1.2-19.5-2.2-29.2-2.9c-9.7-0.7-19.5-1.1-29.2-1.1l-7.3,0.1c-2.4,0.1-4.9,0.1-7.3,0.2l-7.3,0.4l-7.3,0.5
							c-9.7,0.7-19.4,1.9-29.2,3.2c-0.3,0-0.6-0.2-0.6-0.5C1312.2,900.9,1312.4,900.6,1312.6,900.5z"/>
					</g>
					<g>
						<path class="st4" d="M1312.8,910.2c4.9,0.6,9.7,1.2,14.6,1.7c2.4,0.3,4.9,0.5,7.3,0.7c2.4,0.2,4.9,0.4,7.3,0.6
							c9.8,0.7,19.5,1.2,29.3,1.3l7.3,0c1.2,0,2.4,0,3.7,0l3.7-0.1l3.7-0.1c1.2,0,2.4-0.1,3.7-0.2l7.3-0.5
							c9.7-0.9,19.4-2.3,28.9-4.6l0,0c0.3-0.1,0.6,0.1,0.7,0.4c0.1,0.3-0.1,0.6-0.4,0.6c-9.4,3.1-19.1,5.1-28.9,6.3
							c-9.8,1.1-19.7,1.5-29.6,1.4c-9.9-0.1-19.7-0.8-29.5-1.8c-9.8-1-19.6-2.4-29.2-4.5c-0.3-0.1-0.5-0.3-0.4-0.6
							C1312.3,910.4,1312.5,910.2,1312.8,910.2L1312.8,910.2z"/>
					</g>
					<g>
						<path class="st4" d="M1312.4,920.6c9.3,4.6,19.1,7.7,29.2,9.9c10,2.1,20.3,3.3,30.5,3.2c5.1-0.1,10.3-0.4,15.4-0.9
							c5.1-0.5,10.2-1.2,15.2-2.3c5-1.1,9.9-2.5,14.7-4.4c4.8-1.8,9.4-4.2,13.8-6.8c0.3-0.2,0.6-0.1,0.7,0.2
							c0.1,0.2,0.1,0.5-0.1,0.7c-8.3,6.4-18.2,10.8-28.4,13.4c-10.3,2.6-20.8,3.5-31.3,3.7c-10.6,0-21.1-1.3-31.3-3.9
							c-10.2-2.6-20.1-6.4-29-11.9c-0.3-0.2-0.3-0.5-0.2-0.7C1311.8,920.6,1312.1,920.5,1312.4,920.6z"/>
					</g>
				</g>
			</g>
			<g>
				<g>
					<g>
						<path class="st10" d="M1424.8,1323.7c6.7,3.6,14.2,5.9,21.2,7.5c-9.9-8.3-15.9-18.1-20.7-29c0.5-7.9,1.2-16.4,2.3-25.3
							c8.6,6.5,19.9,10.2,30,12.5c-13.4-11-20.3-24.5-26.1-39.6c1-5.8,2-11.7,3.2-17.8c9.4,8.2,22.7,12.8,34.5,15.5
							c-14.8-11.9-22.2-26.5-28.7-42.9c1.1-5,2.3-10.1,3.6-15.3c10,8.6,24.1,13.5,36.6,16.4c-15-11.9-22.9-26.3-29.7-42.4
							c1.4-5,2.9-10.1,4.4-15.2c10.4,8,24.4,12.8,36.8,15.8c-14.4-11.2-22.7-24.5-29.5-39.3c1.8-5.5,3.7-11.1,5.6-16.6
							c10.5,7,23.6,11.3,35.4,14.1c-13.1-10.1-21.4-21.7-28.1-34.5c2.6-6.9,5.2-13.7,7.9-20.4c10.5,8.3,24.7,13.2,37.3,16.2
							c-13.8-10.7-21.9-23.4-28.6-37.5c2.7-6.3,5.4-12.5,8.1-18.6c10,9.1,24.7,14.2,37.6,17.3c-13.7-10.8-21.5-23.7-27.9-38.1
							c2.9-6,5.9-11.9,8.8-17.6c9.5,9.1,23.7,14.1,36.2,17c-12.8-10.3-20.1-22.6-26-36.3c3.4-6.1,6.8-12,10.1-17.7
							c8.9,8.1,21.6,12.6,33,15.1c-11-9-17.6-19.7-22.8-31.6c4.2-6.6,8.4-12.8,12.5-18.5c8,5.9,18.3,9.3,27.5,11.4
							c-8.3-6.9-13.8-14.9-18.2-23.7c18.7-23.6,34.6-35.6,44.4-32.1c26,9.2-19.3,118.3-68,255.4c-48.7,137.1-82.3,250.3-108.4,241.1
							C1430.1,1365.6,1425.3,1349.3,1424.8,1323.7z"/>
						<path class="st11" d="M1561.6,916.8c3.2-4.4,6.3-8.6,9.3-12.4c4.4,8.8,9.9,16.8,18.2,23.7
							C1579.9,926,1569.6,922.7,1561.6,916.8z"/>
						<path class="st11" d="M1572,966.9c-11.3-2.6-24.1-7-33-15.1c3.4-5.8,6.8-11.3,10.1-16.5C1554.4,947.2,1561,957.9,1572,966.9z"
							/>
						<path class="st11" d="M1555,1005.7c-12.5-2.9-26.7-7.8-36.2-17c3.4-6.7,6.8-13.1,10.2-19.3
							C1534.9,983.2,1542.2,995.4,1555,1005.7z"/>
						<path class="st11" d="M1537.9,1044.5c-12.9-3-27.5-8.1-37.6-17.3c3.2-7.1,6.5-14.1,9.7-20.9
							C1516.4,1020.8,1524.2,1033.7,1537.9,1044.5z"/>
						<path class="st11" d="M1483.4,1067.1c2.9-7.2,5.8-14.4,8.7-21.3c6.7,14.1,14.8,26.7,28.6,37.5
							C1508.1,1080.3,1493.9,1075.4,1483.4,1067.1z"/>
						<path class="st11" d="M1446,1331.1c-6.9-1.6-14.5-3.9-21.2-7.5c-0.1-6.6,0-13.8,0.5-21.6
							C1430.1,1313,1436.1,1322.9,1446,1331.1z"/>
						<path class="st11" d="M1457.5,1289.3c-10.1-2.3-21.4-6-30-12.5c1-8.6,2.3-17.6,3.8-27.1
							C1437.2,1264.9,1444.1,1278.4,1457.5,1289.3z"/>
						<path class="st11" d="M1469.1,1247.5c-11.8-2.8-25.1-7.4-34.5-15.5c1.7-8.9,3.7-18,5.8-27.4
							C1446.8,1221,1454.3,1235.6,1469.1,1247.5z"/>
						<path class="st11" d="M1480.6,1205.7c-12.5-2.9-26.6-7.8-36.6-16.4c2.1-8.5,4.4-17.2,6.9-26
							C1457.7,1179.4,1465.6,1193.8,1480.6,1205.7z"/>
						<path class="st11" d="M1455.3,1148.1c2.3-7.8,4.8-15.6,7.4-23.5c6.8,14.8,15.1,28.1,29.5,39.3
							C1479.7,1160.9,1465.7,1156.2,1455.3,1148.1z"/>
						<path class="st11" d="M1468.3,1107.9c0.9-2.5,1.7-4.9,2.6-7.4c1.6-4.4,3.1-8.7,4.7-13c6.7,12.8,15,24.5,28.1,34.5
							C1491.9,1119.2,1478.8,1114.9,1468.3,1107.9z"/>
					</g>
					<g>
						<path class="st3" d="M1414.5,1061.6c0-10.3,15.7-39.8,21.5-40.4l38.4-0.2c5.9,0.7,21.8,30,21.8,40.3l0.2,62.4l0.3,88.4
							c0,7-6.8,12.6-15.3,12.6l-51.1,0.2c-8.4,0.1-15.3-5.6-15.3-12.5l-0.3-88.4L1414.5,1061.6z"/>
						<g>
							<g>
								<path class="st12" d="M1409.2,1057.1l0.5,154.5c0,10.6,9.7,19.1,21.6,19.1l51-0.2c11.9,0,21.5-8.7,21.5-19.2l-0.6-154.5
									c0-10.6-16.1-47.6-28-47.6l-38.3,0.1C1425,1009.4,1409.2,1046.5,1409.2,1057.1z M1417.7,1061.7c0-10,14.8-38.6,20.3-39.2
									l36.3-0.1c5.5,0.6,20.6,29.1,20.6,39.1l0.2,60.6l0.3,85.7c0,6.7-6.5,12.2-14.4,12.2l-48.3,0.2c-7.9,0-14.4-5.4-14.5-12.2
									l-0.3-85.7L1417.7,1061.7z"/>
							</g>
							<path class="st8" d="M1422.7,999.9l0-12.4c0-5.7,4.5-10.2,10.2-10.2l45-0.2c5.7,0,10.2,4.5,10.3,10.2l0,12.4
								c0,1-0.2,2-0.5,2.9h-64.6C1422.9,1001.7,1422.7,1000.8,1422.7,999.9z"/>
							<path class="st4" d="M1487.7,1002.6c-1.2,4.2-5.1,7.3-9.7,7.4l-45,0.2c-4.7,0-8.7-3.2-9.9-7.5H1487.7z"/>
						</g>
					</g>
					<g>
						<path class="st13" d="M1282.3,991.6c-2.9-6.8-5.7-12.7-10.5-24.2l22.1-8.4c4,11.8,5.8,18.1,8.1,25.1L1282.3,991.6z"/>
						<path class="st6" d="M1298.2,1053.5c-4.2,24.7-12.6,19.5,7.2,71.9c19.8,52.4,37.7,99.7,37.7,99.7l67.6-25.5
							c0,0-17.9-47.3-37.7-99.7c-19.8-52.4-22.7-42.9-42.1-58.7c-11-8.9-23-38.9-29-57.3l-19.7,7.5
							C1289.8,1009.2,1300.6,1039.5,1298.2,1053.5z M1306.2,1102.9l51.4-19.4c2.2,5.2,4.8,11.5,7.7,19.3l18.2,48.1l-52.1,19.7
							l-18.2-48.1C1310.2,1114.7,1307.9,1108.2,1306.2,1102.9z"/>
						<path class="st3" d="M1306.2,1102.9l51.4-19.4c2.2,5.2,4.8,11.5,7.7,19.3l18.2,48.1l-52.1,19.7l-18.2-48.1
							C1310.2,1114.7,1307.9,1108.2,1306.2,1102.9z"/>
					</g>
					<g>
						<g>
							<path class="st14" d="M1257.3,1030.4c-4.5,6.6-8.3,13.4-11.4,20.4c-1.2,2.8-2.3,5.5-3.4,8.3c-1.6,4.4-3,8.9-4.1,13.4
								c-0.7,3-1.4,5.9-1.9,8.9c-1,5.8-1.6,11.7-1.8,17.6c-0.1,3.3-0.1,6.6,0,9.8c0.3,7.1,1.1,14.2,2.5,21.2
								c0.7,3.6,1.6,7.1,2.6,10.7c2.3,7.8,5.2,15.4,8.9,22.7c1.6,3.2,3.3,6.3,5.2,9.3c4.8,7.8,10.4,15.1,16.8,21.9
								c2.3,2.4,4.7,4.7,7.2,7c2.5,2.3,5.1,4.4,7.8,6.5c3.7,2.8,7.4,5.4,11.3,7.8c2.9,1.8,5.9,3.5,8.9,5c5.8,3,11.8,5.5,18,7.6
								c2.9,1,5.8,1.9,8.8,2.6c8,2.1,16,3.4,24.2,3.9c3.8,0.3,7.6,0.4,11.4,0.3c5.7-0.1,11.4-0.6,17.1-1.4c3.5-0.5,7-1.2,10.5-2
								c6.5-1.5,12.9-3.5,19.2-6.1c3.2-1.3,6.3-2.6,9.3-4.2c7.8-3.8,15.2-8.5,22.2-13.9c2.7-2.1,5.2-4.2,7.8-6.5
								c3.8-3.4,7.4-7.1,10.8-11L1257.3,1030.4z"/>
							<path class="st15" d="M1237.3,1130.2c0.7,3.6,1.6,7.1,2.6,10.7c0.2,0,0.3,0,0.5,0c2.1,0.3,4.6,1.4,6-0.2
								c0.4-0.5,0.6-1.1,1-1.6c0.7-0.8,1.8-0.9,2.9-1c3.5-0.3,7-0.6,10.5-1c-0.2,0-0.4,0-0.6,0l1.4-8.3c-0.9-1.6-3.1-2.1-4.9-1.7
								c-1.8,0.4-3.4,1.5-5,2.4c-1.6,1-3.4,1.8-5.2,1.8c-1.5-0.1-2.9-0.8-4.4-1.1C1240.5,1129.8,1238.9,1129.8,1237.3,1130.2z"/>
							<path class="st15" d="M1359.1,1216.8c-0.1,1.9,0.5,3.7,1,5.5c0.5,1.8,0.9,3.7,0.3,5.5c-0.5,1.4-1.5,2.6-2.2,3.9
								c-0.6,1.1-1,2.2-1.2,3.4c3.8,0.3,7.6,0.4,11.4,0.3c0.9-1.7,2.1-3.5,1.1-5.1c-0.3-0.5-0.9-0.9-1.2-1.4c-0.6-0.9-0.4-2-0.2-3
								c0.6-3.5,1.3-6.9,1.9-10.4c0,0.2-0.1,0.4-0.1,0.6l-7.6-3.6C1360.3,1213,1359.2,1215,1359.1,1216.8z"/>
							<path class="st15" d="M1383.8,1212.9c0.2,1.9,1.2,3.5,2,5.2c0.8,1.7,1.5,3.5,1.3,5.4c-0.2,1.5-1,2.8-1.5,4.3
								c-0.7,2-0.7,4.3-0.1,6.3c3.5-0.5,7-1.2,10.5-2c0-0.6,0-1.2,0.1-1.7c0.5-2.1,1.8-4.5,0.4-6c-0.4-0.5-1-0.7-1.5-1.2
								c-0.7-0.8-0.8-1.9-0.7-3c0-3.5,0-7,0-10.5c0,0.2,0,0.4,0,0.6l-8.2-2.1C1384.3,1208.9,1383.6,1211,1383.8,1212.9z"/>
							<path class="st15" d="M1409.3,1208.3c0.6,1.8,1.8,3.2,3,4.7c1.1,1.5,2.2,3.1,2.3,5c0.1,2.1-0.3,4,0.1,6.1
								c0.1,0.6,0.2,1.2,0.4,1.8c3.2-1.3,6.3-2.6,9.3-4.2c-0.2-1.5-0.1-3.2-0.8-4.5c-0.5-1.1-1.5-1.9-2.1-2.9
								c-1.1-1.6-1-3.4-1.4-5.2c-0.4-2-0.9-4.1-1.3-6.1c0,0.2,0,0.4,0.1,0.6l-8.4-0.5C1409,1204.3,1408.7,1206.5,1409.3,1208.3z"/>
							<path class="st15" d="M1248.8,1163.5c1.6,3.2,3.3,6.3,5.2,9.3c3-1.4,6.7-2,9.3-4.1c1.2-1,2.2-2.2,3.4-3.1
								c1.2-1,2.8-1.6,4.3-1.2l-5-12.3c-1.4-0.7-3.2,0.1-4.2,1.3c-1,1.2-1.5,2.7-2.2,4.2c-0.6,1.5-1.4,2.9-2.8,3.7
								c-2.3,1.3-5.4,0.3-7.5,1.8C1249.1,1163.2,1249,1163.4,1248.8,1163.5z"/>
							<path class="st15" d="M1435.6,1191.7c-0.2,1,0.9,1.6,1.7,2.1c4.2,2.7,4.4,8.9,7.7,12.6c0.5,0.5,1,1,1.5,1.5
								c2.7-2.1,5.2-4.2,7.8-6.5c-0.9-0.5-1.8-1.1-2.3-1.9c-1.4-2.2-0.6-5.4-2.2-7.4c-1.1-1.4-3-1.8-4.7-2.4
								c-1.7-0.6-3.4-1.9-3.4-3.7c-1.8,1.6-3.6,3.1-5.4,4.7C1436,1191,1435.7,1191.3,1435.6,1191.7z"/>
							<path class="st15" d="M1327.2,1209.6c0,1.6,0.5,3.1,1,4.6c0.5,1.5,0.8,3.2,0.2,4.7c-0.9,2.4-4,3.6-4.7,6.2
								c-0.3,1.2,0,2.4,0.3,3.6c2.9,1,5.8,1.9,8.8,2.6c1.1-3.7,4.4-7,5.3-10.9c0.3-1.5,0.3-3.1,0.6-4.6c0.3-1.5,1.1-3,2.6-3.6
								l-11.7-6.3C1328.1,1206.3,1327.2,1208,1327.2,1209.6z"/>
							<path class="st15" d="M1275,1185.6c-0.9,1.2-1.1,2.8-1.5,4.3c-0.5,1.8-1.5,3.4-2.6,4.8c2.3,2.4,4.7,4.7,7.2,7
								c1.1-1.1,2.3-2.1,3.2-3.4c0.9-1.4,1.4-2.9,2.1-4.4c1.4-2.8,3.5-5.2,6.2-6.9l-6.6-8.2c0,1.8-1.7,3.1-3.4,3.9
								C1277.9,1183.5,1276.1,1184.1,1275,1185.6z"/>
							<path class="st15" d="M1302.8,1205.3c-1,0.8-2.3,1.2-3.1,2.2c-1,1.3-0.8,3.1-1,4.8c-0.2,1.3-0.7,2.6-1.4,3.8
								c2.9,1.8,5.9,3.5,8.9,5c0.3-1.4,0.5-2.7,0.4-4.1c0-1.6-0.3-3.3,0.3-4.8c0.7-2,2.6-3.3,4.1-4.8c1.5-1.5,2.6-3.9,1.5-5.7
								l-6.3-4.1C1305.7,1200.3,1305.1,1203.6,1302.8,1205.3z"/>
							<path class="st15" d="M1245.9,1050.8c-1.2,2.8-2.3,5.5-3.4,8.3c0.6,0.4,1.1,0.8,1.7,1.1c3.3,1.7,7.2,1.2,10.9,1.5
								c3,0.2,6,0.9,8.8,1.9c2.3,0.9,4.8,3.3,7,3.9c3,0.7,2.7,0,3.6-2.8c0.3-1,1-7.9,1.8-8.2c-2.7,1-5.8,0.4-8.5-0.6
								c-2.7-1-5.4-2.3-8.2-2.8c-3.5-0.6-7.3,0.2-10.7-0.8C1247.9,1052,1246.9,1051.4,1245.9,1050.8z"/>
							<path class="st15" d="M1238,1075.4c-0.7,3-1.4,5.9-1.9,8.9c2.9,0.5,6.1-0.1,9.1-0.2c3-0.1,6,0.2,8.9,1
								c2.4,0.7,5.1,2.8,7.4,3.2c3,0.4,2.7-0.3,3.3-3.1c0.2-1.1,0.2-8,1-8.4c-2.6,1.3-5.7,1-8.5,0.3c-2.8-0.7-5.6-1.8-8.5-1.9
								C1245.2,1075,1241.6,1076.2,1238,1075.4C1238.1,1075.4,1238,1075.4,1238,1075.4z"/>
							<path class="st15" d="M1234.8,1099.1c-0.1,3.3-0.1,6.6,0,9.8c0.8,0,1.7,0.1,2.5,0.2c2.9,0.4,5.7,1.3,8.6,1.2
								c3.6-0.1,7.1-1.6,10.6-1.2c2.6,0.3,5,1.6,7.4,2.5c0.9,0.4,2,0.7,3,0.3c1.7-0.6,1.9-3,1.6-4.8c-0.3-1.8-1-3.8,0-5.4
								c-1.3,0.9-3,0.7-4.5,0.3c-1.5-0.5-2.9-1.3-4.4-1.7c-3.6-1-7.3,0.2-11,0.6c-3,0.4-6,0.3-9-0.2
								C1238.1,1100.6,1236.4,1099.7,1234.8,1099.1z"/>
							<path class="st3" d="M1269.8,1040c-33.5,50.2-22.8,118.4,25.7,155.7c48.5,37.3,117.2,30.2,157.1-15l-3.6-2.8l-175.5-135.1
								L1269.8,1040z"/>
							<path class="st5" d="M1273.5,1042.8l-0.2,0.2c-15.3,23.3-21.3,51.2-16.9,78.8c4.5,27.7,19.1,52.5,41.3,69.8l0.6,0.4
								c22.4,17.2,50.2,25.2,78.2,22.6c27.9-2.7,53.6-15.6,72.2-36.5l0.2-0.2L1273.5,1042.8z"/>
							<path class="st16" d="M1276.4,1045.1c-12.1,18.3-17.8,39.1-17.7,59.7c0.2,31.9,14.6,63.4,41.9,84.4
								c44.9,34.5,108.4,28.1,145.5-13.5l-3.1-2.4L1276.4,1045.1z"/>
						</g>
						<path class="st17" d="M1305.9,1121.1c-0.1,2.4,1.1,3.1,2.6,3.1c1.6,0.1,2.9-0.6,3-2.9c0.1-2.4-2.7-5.6-2.7-5.6
							S1305.9,1118.7,1305.9,1121.1z"/>
						<path class="st17" d="M1278.1,1128.4c-0.1,2.4,1.1,3.1,2.6,3.1s2.9-0.6,3-2.9c0.1-2.4-2.7-5.6-2.7-5.6
							S1278.2,1126.1,1278.1,1128.4z"/>
						<path class="st17" d="M1375.7,1138.6c-0.1,2.4,1.1,3.1,2.6,3.1s2.9-0.6,3-2.9c0.1-2.4-2.7-5.6-2.7-5.6
							S1375.8,1136.3,1375.7,1138.6z"/>
						<path class="st16" d="M1338.7,1143.9c-1.1,2.1-0.4,3.2,1,4c1.4,0.8,2.9,0.8,4-1.3c1.1-2.1,0.1-6.2,0.1-6.2
							S1339.8,1141.8,1338.7,1143.9z"/>
						<path class="st17" d="M1336.1,1183.1c-1.1,2.1-0.4,3.2,1,4c1.4,0.8,2.9,0.8,4-1.3c1.1-2.1,0.1-6.2,0.1-6.2
							S1337.3,1181,1336.1,1183.1z"/>
						<path class="st17" d="M1279.6,1073.2c-2.1,1-2.2,2.4-1.5,3.8c0.7,1.4,1.9,2.3,4,1.3c2.1-1,3.7-5,3.7-5
							S1281.7,1072.1,1279.6,1073.2z"/>
						<path class="st17" d="M1330.8,1103.5c-2.1,1-2.2,2.4-1.6,3.8s1.8,2.4,4,1.4c2.1-1,3.8-4.9,3.8-4.9
							S1332.9,1102.5,1330.8,1103.5z"/>
						<path class="st17" d="M1412.2,1173.2c-2.1,1-2.2,2.4-1.5,3.8c0.7,1.4,1.9,2.3,4,1.3c2.1-1,3.7-5,3.7-5
							S1414.3,1172.1,1412.2,1173.2z"/>
						<path class="st17" d="M1372.1,1173.2c-2,1.2-1.9,2.6-1.1,3.9c0.8,1.3,2.1,2.1,4.1,0.9c2-1.2,3.1-5.4,3.1-5.4
							S1374.1,1172,1372.1,1173.2z"/>
						<path class="st17" d="M1301.5,1164.9c-1.6,1.7-1.2,3-0.1,4.1c1.1,1.1,2.6,1.5,4.2-0.2c1.6-1.7,1.7-6,1.7-6
							S1303.2,1163.2,1301.5,1164.9z"/>
					</g>
					<g>
						<path class="st18" d="M1227.2,1083.6c0,0,27.8,29.6,40.2,136.9l-13.2,17.2l-10.2-6.2l-54.3-108.6l-1.8-23.6L1227.2,1083.6z"/>
						<g>
							<path class="st14" d="M1213.1,1094.2c-0.4-0.9-0.8-1.8-1.2-2.7l0,0c-8.1-19.7,7-54.7,22.2-69.4l0,0l-7.1-7.1
								c-17.2,17.6-34.2,53.2-24.5,80.1l0,0c0.5,1.3,1,2.5,1.6,3.7l0,0L1213.1,1094.2L1213.1,1094.2z"/>
						</g>
						<g>
							<g>
								<path class="st14" d="M1197.2,1095.6c-4.5-11.6-15.4-22.4-28-30.5l0,0c-12.7-8-27-13.4-39.7-11.9l0,0l1.2,10
									c8.8-1.2,21.8,3.2,33.1,10.4l0,0c11.4,7.2,21,17.3,24.1,25.6l0,0c0,0,0,0.1,0.1,0.3l0,0l0,0l9.5-3.3
									C1197.4,1096.1,1197.3,1095.9,1197.2,1095.6L1197.2,1095.6z"/>
							</g>
							<g>
								<path class="st14" d="M1198,1086.9c-8.9-22.6-31.7-45.2-48.4-53.5l0,0l0,0l-4.4,9c13.7,6.4,36.3,28.8,43.4,48.1l0,0
									c1.8,4.7,2.7,9.2,2.6,13l0,0l10.1,0.3C1201.4,1098.3,1200.1,1092.6,1198,1086.9L1198,1086.9z"/>
							</g>
							<g>
								<path class="st14" d="M1195.9,1091.1c-0.8-6-2.6-12.5-5.1-19.1c-7.4-19.3-20.6-39.1-30.1-51.1l8-6.2
									c9.8,12.6,23.5,32.9,31.5,53.7c2.4,6.3,4.3,12.8,5.3,19.1C1202.2,1088.4,1199,1089.7,1195.9,1091.1z"/>
							</g>
						</g>
						<g>
							<path class="st14" d="M1204.1,1014.2l-9.5-3.3c-8.2,24.3,2.6,53.9,6.4,75.5l0,0l9.9-1.9
								C1206.6,1062,1197.3,1033.2,1204.1,1014.2L1204.1,1014.2z"/>
						</g>
						<g>
							<path class="st13" d="M1179,1133.8c13.3,34.8,66,130.7,83.4,124c11.4-4.3,4.8-51.4-4.8-93.2c-10.5,3.4-21.4,8.7-28.8,11.4
								c8.4-7.4,17.7-12.7,27.5-17c-1.1-4.4-2.1-8.6-3.2-12.8c0.4,1.6,0.8,3.2,1.2,4.8c-11.2,3.3-23.3,9.3-31.2,12.2
								c9-8,19.1-13.5,29.7-18c-0.7-2.6-1.4-5.1-2-7.6c-11.8,3.1-24.9,9.7-33.4,12.8c9.6-8.5,20.3-14.2,31.7-18.8
								c0.5,1.8,1,3.7,1.6,5.6c-1.3-4.5-2.5-8.8-3.8-12.8c-12.2,2.9-26.3,10-35.3,13.3c10.1-8.9,21.3-14.7,33.3-19.4
								c-0.8-2.5-1.6-4.8-2.4-6.9c-12.5,2.7-27.3,10.2-36.6,13.6c10.3-9.1,21.9-14.9,34.2-19.8c0.6,1.5,1.2,2.9,1.8,4.5
								c-1.6-4.1-3.2-7.7-4.9-11.1c-12.6,2.6-27.5,10.2-36.8,13.7c10.1-9,21.5-14.8,33.6-19.5c1.1,1.8,2.2,3.8,3.2,5.9
								c-12.9-25.5-29.9-31.8-45.3-26C1174.4,1079.3,1165.7,1098.9,1179,1133.8z M1251.6,1227c4.8-4.3,9.9-7.8,15.3-10.8
								c0.2,1.5,0.3,2.9,0.5,4.3C1261.5,1222.9,1255.9,1225.5,1251.6,1227z M1245.9,1214.3c5.9-5.2,12.2-9.3,18.9-12.9
								c0.2,1.6,0.5,3.2,0.7,4.7C1258.2,1209.1,1251.2,1212.3,1245.9,1214.3z M1240.2,1201.5c6.9-6.1,14.3-10.6,22.1-14.5
								c0.3,1.7,0.6,3.4,0.9,5.1C1254.6,1195.3,1246.2,1199.3,1240.2,1201.5z M1234.5,1188.7c7.7-6.8,16.1-11.7,24.9-15.8
								c0.4,1.8,0.8,3.5,1.2,5.3C1250.9,1181.6,1241.2,1186.3,1234.5,1188.7z"/>
						</g>
					</g>
					<g>
						<path class="st14" d="M1570.8,1138.3c-0.5-0.2-8,4.7-9.1,5.2c-3.4,1.5-6.9,2.6-10.5,3.3c-7.2,1.5-14.8,1.5-22-0.1
							c-5.6-1.2-17.9-4.6-7.3-9c7.2-3,15-4.6,22.7-4.7C1553.6,1132.8,1562.6,1134.5,1570.8,1138.3z"/>
						<path class="st14" d="M1513.7,1139.3c5.7-11.8,23.2-22.8,35.5-25.8c1.9,3.4,3.6,7.3,4.7,11c-14.5-2.1-31.2,4.9-37.5,18.7
							L1513.7,1139.3z"/>
						<path class="st19" d="M1442.1,1148.2c-11.7,26.2-4.8,69.3,23.9,82.1c20.6,9.2,53-4.8,69.5-20.8c15.7-15.3,25.4-42.4,5.9-58.7
							c-7-5.9-16.1-8.6-24.1-13.1c-6.6-3.7-12.4-8.6-19.2-11.9C1475.3,1115.1,1451.9,1126.2,1442.1,1148.2z"/>
						<path class="st20" d="M1540.4,1184.8c-3.9,11.9-15.1,20.6-27.3,23.4c-1.5,0.3-3.2,0.5-4.3-0.5c-1.4-1.4-0.7-3.8,0.4-5.5
							c4.7-7,13.3-10.3,18.9-16.6c9.2-10.3,7-23.2,2.2-31.5C1540.5,1159.4,1543.7,1174.6,1540.4,1184.8z"/>
					</g>
					<g>
						<path class="st3" d="M1465.4,1099.4c-8.1-7.6-24.2-8.1-33.8-6.6c-11.8,1.8-22.9,6.6-33.7,11.6c-10.9,5-21.2,10.7-30.5,18.3
							c-9,7.4-7.3,13.7,0.9,22.1c4.9,5,10.9,8.9,16.5,13.2c11.7,9.1,21.6,20.5,29.1,33.2c2.5,4.2,4.8,8.7,8.5,11.9s9.5,4.6,13.6,1.9
							c5.9-3.9,4.7-12.6,3.9-19.6c-1.7-16.2,3.3-32.9,13.5-45.6c3.6-4.5,7.8-8.4,11.2-13c3.4-4.6,6.1-10.1,5.9-15.8
							C1470.4,1106,1468.5,1102.2,1465.4,1099.4z"/>
						<g>
							<path class="st21" d="M1410,1219.5l47-11.7c-10.4-15.6-9.2-61.8,16.1-87.6c-2.8-1.7-5.1-3.8-6.9-6.2
								c-10.5,11.8-23.6,30.3-25,44.3c-1.6-12.4-4-31.3-4.8-43.3c-2.3,1.2-4.8,2.3-7.5,2.9c-2,0.5-4,0.7-6,0.8
								c-4.4,17.5-1.4,44.6,3.5,60.4c-0.4-0.8-1-1.7-1.5-2.6c-8.8-15.4-30.1-34.2-48.1-38.6l-1.9,3.7c-0.8,4.8-1.7,4.8-4.6,9
								C1389.2,1165.3,1407,1195.3,1410,1219.5z"/>
							<path class="st22" d="M1337.5,1164.2c9.4,7.4,24.5,3.9,33.8-7.9c3.5-4.5,5.7-9.5,6.5-14.4c2.7-0.8,5.3-1.9,7.9-3.2
								c10.2-5,17.9-12.7,22.5-21.3c0.7,0.6,1.6,1,2.4,1.5c4.8,3,11.4,4.1,18.5,2.4c8.6-2.1,15.1-7.9,16.9-14.2
								c2.1,0.8,4.2,1.5,6.5,1.9c3.6,0.7,7,0.7,10.3,0.3c0.9,7.5,8.7,13.9,18.9,14.9c11.3,1.1,21.2-4.8,22.1-13.3
								c0.8-8.3-7.2-15.9-18.1-17.3c0.3-1,0.7-1.9,0.9-2.9c2.4-13.1-8.9-26.2-25.3-29.2c-0.9-0.2-1.8-0.2-2.8-0.3l-0.1-0.8
								c-3.6-14.6-23.2-22.3-43.8-17.2c-8,2-15,5.7-20.3,10.2c-5.2,4.5-8.8,10-10.2,15.6c-9.5-1.5-20.2,0-30.3,5
								c-22.1,10.9-32.8,34.2-24,52c1.3,2.6,3.1,4.9,5,7C1328.1,1144.3,1329,1157.6,1337.5,1164.2z"/>
						</g>
						<path class="st21" d="M1470.3,1098.2c1.3-0.9,2.4-2.1,3.4-3.4l1.2-1.6c4-7.5,0.7-17.2-7.3-21.9c1,0.3,2,0.8,3,1.3
							c8.1,4.5,11.9,13.3,8.5,19.8l-1,1.5C1476.2,1096.2,1473.5,1097.7,1470.3,1098.2z M1437.8,1089.6c2.9-2,5.3-4.6,7.1-7.8
							c3.3-6.2,3.3-13.2,0.9-19.7c-2.2-5.7-6.3-10.8-12.1-14.3c1.6,0.5,3.1,1.2,4.6,2.1c5.2,2.9,9.2,6.9,11.8,11.4
							c3.7,6.3,4.5,13.4,1.3,19.2C1448.6,1085.5,1443.7,1088.6,1437.8,1089.6z M1431.2,1115.3c1.7-1.2,3.1-2.7,4.2-4.6
							c1.5-2.7,2-5.5,1.8-8.3c-0.3-3-1.7-5.8-3.8-8c-0.9-0.9-1.9-1.7-3-2.4c0.9,0.3,1.7,0.6,2.5,1l1.6,1c3.8,2.6,5.9,6.5,5.9,10.5
							c0,1.8-0.4,3.6-1.3,5.2C1437.3,1112.6,1434.5,1114.5,1431.2,1115.3z M1353.1,1087c1.7-1.2,3.5-2.3,5.5-3.3
							c8.8-4.3,18.2-5,26-2.7c6.6,2,12.1,6,15.1,12c0.4,0.8,0.6,1.6,0.9,2.5c2.1,5.9,1.6,12.5-1.2,18.6c0-4.5-0.9-9-3-13.3
							C1388.9,1085.4,1369.7,1079.5,1353.1,1087z M1345.9,1129.9c0.5-0.8,1-1.5,1.6-2.2c4.9-5.7,12.9-6.6,17.7-2.1
							c2.4,2.3,3.6,5.5,3.6,8.9c-0.8-1.9-1.9-3.6-3.5-5.1C1359.6,1124.1,1351.1,1124.4,1345.9,1129.9z"/>
					</g>
					<g>
						<rect x="1198.9" y="1186.9" class="st23" width="351.6" height="320.4"/>
						<polygon class="st24" points="1266.3,1221.4 1266.3,1221.4 1266.3,1221.4 						"/>
						<polygon class="st24" points="1266.3,1221.4 1266.3,1221.4 1266.3,1221.4 						"/>
						<g>
							<polygon class="st23" points="1538,1174.7 1544.7,1181.4 1550.6,1187.2 1525.5,1187.2 							"/>
							<polygon class="st23" points="1514.5,1174.7 1527,1187.2 1502,1187.2 							"/>
							<polygon class="st23" points="1491,1174.7 1503.5,1187.2 1478.5,1187.2 							"/>
							<polygon class="st23" points="1467.5,1174.7 1480,1187.2 1454.9,1187.2 							"/>
							<polygon class="st23" points="1444,1174.7 1456.5,1187.2 1431.4,1187.2 							"/>
							<polygon class="st23" points="1420.4,1174.7 1433,1187.2 1407.9,1187.2 							"/>
							<polygon class="st23" points="1396.9,1174.7 1409.5,1187.2 1384.4,1187.2 							"/>
							<polygon class="st23" points="1373.4,1174.7 1385.9,1187.2 1360.9,1187.2 							"/>
							<polygon class="st23" points="1349.9,1174.7 1362.4,1187.2 1337.4,1187.2 							"/>
							<polygon class="st23" points="1326.4,1174.7 1338.9,1187.2 1313.9,1187.2 							"/>
							<polygon class="st23" points="1302.9,1174.7 1315.4,1187.2 1290.3,1187.2 							"/>
							<polygon class="st23" points="1279.4,1174.7 1291.9,1187.2 1266.8,1187.2 							"/>
							<polygon class="st23" points="1268.4,1187.2 1266.3,1187.2 1266.3,1185.2 							"/>
							<polygon class="st23" points="1255.8,1174.7 1266.3,1185.2 1266.3,1187.2 1243.3,1187.2 							"/>
							<polygon class="st23" points="1232.3,1174.7 1232.5,1174.9 1232.5,1187.2 1219.8,1187.2 							"/>
							<polygon class="st23" points="1244.9,1187.2 1232.5,1187.2 1232.5,1174.9 							"/>
							<polygon class="st23" points="1208.8,1174.7 1221.3,1187.2 1198.9,1187.2 1198.9,1184.7 							"/>
						</g>
					</g>
				</g>
			</g>
			<g>
				<g>
					<g>
						<path class="st5" d="M1520.5,1403.9c-5.9,0-10.8-4.9-10.8-11.1l0,0c0-6.2,4.8-11.2,10.7-11.2l39-0.6c5.9,0,10.8,4.9,10.8,11.1
							l0,0c0,6.2-4.7,11.2-10.7,11.2L1520.5,1403.9z"/>
						<path class="st25" d="M1522.5,1384.9c-5.3,0-9.6,3.7-9.6,8.2c0,4.5,4.3,8.2,9.6,8.2h0.8v-16.3H1522.5z"/>
					</g>
					<g>
						<path class="st5" d="M1517.1,1426.3c-5.9,0-10.8-4.9-10.8-11.1l0,0c0-6.2,4.8-11.2,10.7-11.2l39-0.6c5.9,0,10.8,4.9,10.8,11.1
							l0,0c0,6.2-4.7,11.2-10.7,11.2L1517.1,1426.3z"/>
						<path class="st25" d="M1518.8,1407.1c-5.3,0-9.6,3.7-9.6,8.2c0,4.5,4.3,8.2,9.6,8.2h0.8v-16.3H1518.8z"/>
					</g>
				</g>
				<g>
					<path class="st5" d="M1524.9,1379c-6,0-11-5-11-11.3l0,0c0-6.3,4.8-11.4,10.9-11.4l32.7-0.6c6,0,11,5,11,11.3l0,0
						c0,6.3-4.8,11.4-10.9,11.4L1524.9,1379z"/>
					<path class="st25" d="M1526.6,1359.5c-5.4,0-9.8,3.7-9.8,8.3c0,4.6,4.4,8.3,9.8,8.3h0.8v-16.6H1526.6z"/>
				</g>
				<g>
					<path class="st5" d="M1521.1,1446.2c-5.4,0-9.8-4.5-9.8-10l0,0c0-5.6,4.3-10.1,9.7-10.2l29.1-0.5c5.4,0,9.8,4.5,9.8,10l0,0
						c0,5.6-4.3,10.1-9.7,10.2L1521.1,1446.2z"/>
					<path class="st25" d="M1523.4,1429.1c-4.6,0-8.4,3.2-8.4,7.2s3.8,7.2,8.4,7.2h0.7v-14.3H1523.4z"/>
				</g>
			</g>
			<g>
				<g>
					<g>
						<path class="st5" d="M1232.5,1403.6c6.2,0,11.2-5.1,11.2-11.5l0,0c0.1-6.4-4.9-11.6-11.1-11.7l-40.5-0.6
							c-6.2,0-11.2,5.1-11.2,11.5l0,0c0,6.4,4.9,11.6,11.1,11.7L1232.5,1403.6z"/>
						<path class="st25" d="M1230.5,1383.8c5.5,0,10,3.8,10,8.5c0,4.7-4.5,8.5-10,8.5h-0.8v-16.9H1230.5z"/>
					</g>
					<g>
						<path class="st5" d="M1236,1426.8c6.2,0,11.2-5.1,11.2-11.5l0,0c0.1-6.4-4.9-11.6-11.1-11.7l-40.5-0.6
							c-6.2,0-11.2,5.1-11.2,11.5l0,0c0,6.4,4.9,11.6,11.1,11.7L1236,1426.8z"/>
						<path class="st25" d="M1234.4,1406.9c5.5,0,10,3.8,10,8.5c0,4.7-4.5,8.5-10,8.5h-0.8v-16.9H1234.4z"/>
					</g>
				</g>
				<g>
					<path class="st5" d="M1227.9,1377.7c6.3,0,11.4-5.2,11.4-11.7l0,0c0.1-6.5-5-11.8-11.3-11.8l-34-0.6c-6.3,0-11.4,5.2-11.4,11.7
						l0,0c0,6.5,5,11.8,11.3,11.9L1227.9,1377.7z"/>
					<path class="st25" d="M1226.2,1357.4c5.6,0,10.1,3.9,10.1,8.6c0,4.7-4.6,8.6-10.1,8.6h-0.8v-17.2H1226.2z"/>
				</g>
				<g>
					<path class="st5" d="M1231.9,1447.4c5.6,0,10.1-4.6,10.2-10.4l0,0c0-5.8-4.5-10.5-10-10.5l-30.2-0.5c-5.6,0-10.1,4.6-10.2,10.4
						l0,0c0,5.8,4.5,10.5,10,10.6L1231.9,1447.4z"/>
					<path class="st25" d="M1229.5,1429.7c4.8,0,8.7,3.3,8.7,7.4s-3.9,7.4-8.7,7.4h-0.7v-14.9H1229.5z"/>
				</g>
			</g>
		</g>
		<g>
			<rect x="1610.7" y="959.6" class="st3" width="2209.1" height="594.9"/>
			<g>
				<path class="st26" d="M1777.1,1458.9v-353.6H1884c36.3,0,66.2,13.7,89.9,41.2c23.6,27.4,35.5,62.8,35.5,106v59.5
					c0,43.2-11.8,78.5-35.5,105.9c-23.6,27.4-53.6,41-89.9,41H1777.1z M1846.3,1160.4v243.3h33.8c19.3,0,34.1-8.4,44.6-25.2
					c10.4-16.8,15.7-39,15.7-66.7v-60c0-27.5-5.2-49.7-15.7-66.4c-10.4-16.7-25.3-25-44.6-25H1846.3z"/>
				<path class="st26" d="M2244.6,1303.7h-118.8v100.1h139.6v55.1h-208.8v-353.6H2265v55.1h-139.2v88.2h118.8V1303.7z"/>
				<path class="st26" d="M2370.6,1403.8h129.2v55.1h-198.4v-353.6h69.2V1403.8z"/>
				<path class="st26" d="M2606.7,1458.9H2538v-353.6h68.7V1458.9z"/>
				<path class="st26" d="M2770.6,1368.5l2.7,13.6h1.5l2.7-12.9l59-264h72.6l-98.8,353.6h-71.9l-98.8-353.6h72.6L2770.6,1368.5z"/>
				<path class="st26" d="M3126.1,1303.7h-118.8v100.1H3147v55.1h-208.8v-353.6h208.4v55.1h-139.2v88.2h118.8V1303.7z"/>
				<path class="st26" d="M3252.2,1318.3v140.6h-69v-353.3h115.4c34.8,0,62.1,9.2,82,27.6c19.8,18.4,29.7,43.9,29.7,76.6
					c0,18.5-4.1,34.4-12.4,47.7c-8.3,13.4-20.3,24-36.2,31.9c18.1,6.2,31.2,16.4,39.2,30.6c8,14.2,12,32.1,12,53.4v25
					c0,9.7,1.1,20.1,3.4,31.2c2.3,11.1,6.2,19.1,11.9,24.2v5.1h-71.4c-5.7-5.2-9.2-13.6-10.7-25.3c-1.5-11.7-2.2-23.6-2.2-35.7v-24
					c0-17.6-3.6-31.3-10.8-41c-7.2-9.7-17.5-14.6-31-14.6H3252.2z M3252.2,1263.1h46.1c14.1,0,24.8-4.3,32.1-12.9
					c7.3-8.6,10.9-20.8,10.9-36.7c0-16.2-3.6-29.1-10.9-38.6c-7.3-9.6-17.9-14.3-31.8-14.3h-46.4V1263.1z"/>
				<path class="st26" d="M3562.3,1256.8h1.5l59-151.5h75l-101,227.8v125.8h-69v-130.2l-99.3-223.4h75.5L3562.3,1256.8z"/>
			</g>
		</g>
		<g>
			<g>
				<g>
					<polygon class="st5" points="4770.9,1096.5 4770.9,1096.5 4770.9,1096.5 					"/>
					<path class="st27" d="M4755.8,1070.8c-52.2,8.4-79.7-9-99-19.9c-13.2-7.4-24.9-17.7-34.6-29.7l-25,25.1
						c11.9,14,26.2,26,42.3,35.1c23.1,13.1,60.7,16.1,116.2,6.4L4755.8,1070.8z"/>
					<path class="st14" d="M4592.5,1052.8c-15.9-18.8-27.6-41.2-33.8-64.8c-1.6-6.1-0.5-12.7,2.9-18.1c3.5-5.5,9.2-9.2,15.6-10.3
						c1.2-0.2,2.3-0.3,3.5-0.3c10.6-0.2,19.9,6.9,22.7,17.3c4.2,15.7,12,30.9,22.6,44.1l3.1,3.9l-32.8,32.9L4592.5,1052.8z"/>
					<g>
						<path class="st6" d="M4741.5,1132.2l-8.6-26.2c-2.7-8.1,0.9-16.7,8.5-20.6l24.8-12.5l4.4,8.8l-24.8,12.5
							c-3.2,1.6-4.8,5.3-3.6,8.7l8.6,26.2L4741.5,1132.2z"/>
					</g>
				</g>
				<g>
					<path class="st4" d="M4578.9,1292.3l-35.6-16.4c1.6-3.5,3-6.9,4.5-10.2c3.7-8.5,1.5-20.8,7.2-30.3c9-14.9,15.9-24.4,19.6-35.6
						c8.7-25.9,12-47.3-18.7-62.3c-21.3-10.4-41-2.6-67.8-4.2c-6.3-0.4-17.5-22.7-23.7-23.2l3.2-39.1c5.9,0.5,11.9,0.8,17.9,1.2
						c29.4,1.8,59.8,3.7,88.2,17.5c36.2,17.6,63.4,62.8,42.9,124c-6,18-15,33.8-22.1,45.6c-4.3,7.1-7.2,14-10.6,21.9
						C4582.2,1284.8,4580.7,1288.5,4578.9,1292.3z"/>
				</g>
				<g>
					<path class="st28" d="M4574.6,1199.8c-3.8,11.2-10.6,20.7-19.6,35.6c-5.7,9.5-3.5,21.8-7.2,30.3c-0.9,2.2-2,4.5-3,6.8
						c1.7-2.3,3.5-4.6,5.3-6.8c2.7-3.4,5.4-6.8,7.8-10.3c2.9-4.1,5.7-8.2,8.4-12.4c5.5-8.4,10.7-17,15.3-25.9
						c4.2-8.2,8.2-16.7,10.6-25.6c2.2-8.4,2.7-17.2,0-25.6c-2.7-8.4-8.2-15.9-14.3-22.2c-5.4-5.6-11.7-10.2-18.8-13.4
						c-3.7-1.7-7.6-2.9-11.6-3.9c-3.7-1-7.4-2.2-11.1-3.3c-4-1.1-8.1-2.1-12.2-2.3c-1.8-0.1-3.7-0.1-5.4,0.4c-1.7,0.5-3.4,1.1-5,1.9
						c-3.7,1.8-7.2,4.1-10.4,6.6c-1.6,1.2-3.1,2.5-4.6,3.9c21.4-0.4,38.6-4.9,56.9,4C4586.6,1152.5,4583.2,1174,4574.6,1199.8z"/>
				</g>
				<g class="st29">
					<path class="st3" d="M4894.5,1436.3c6-5.7,11.6-12.3,15.7-19.6l-108.5-62c-1.2-0.5-2.4-1-3.7-1.5l61.2,108.4
						C4871.8,1454.4,4884,1446.3,4894.5,1436.3z"/>
					<path class="st3" d="M4689.4,1288.3c-0.3,0.6-0.6,1.3-0.9,1.9l109,62.2l-64.9-115c-3.6,2.1-7,4.4-10.1,7
						C4708.3,1256.2,4697.8,1272.1,4689.4,1288.3z"/>
				</g>
				<g>
					<g>
						<g>
							<path class="st6" d="M4794.2,1488.4c-75.6,0-137.1-61.5-137.1-137.1s61.5-137.1,137.1-137.1c75.6,0,137.1,61.5,137.1,137.1
								S4869.8,1488.4,4794.2,1488.4z M4794.2,1229.6c-67.1,0-121.7,54.6-121.7,121.7c0,67.1,54.6,121.7,121.7,121.7
								c67.1,0,121.7-54.6,121.7-121.7C4915.9,1284.2,4861.3,1229.6,4794.2,1229.6z"/>
						</g>
						<g>
							<path class="st12" d="M4794.2,1477.4c-69.5,0-126.1-56.6-126.1-126.1c0-69.5,56.6-126.1,126.1-126.1
								c69.5,0,126.1,56.6,126.1,126.1C4920.3,1420.8,4863.7,1477.4,4794.2,1477.4z M4794.2,1239.4c-61.7,0-111.9,50.2-111.9,111.9
								s50.2,111.9,111.9,111.9c61.7,0,111.9-50.2,111.9-111.9S4855.9,1239.4,4794.2,1239.4z"/>
						</g>
					</g>
				</g>
				<g class="st29">
					<path class="st3" d="M4456.8,1451.5c6-5.2,11.4-11.2,16.5-17.3c5.8-7,11.1-14.3,16.1-21.9l-100.8-57.6c-1.2-0.5-2.4-1-3.7-1.5
						l60.3,106.8C4449.2,1457.4,4453.2,1454.7,4456.8,1451.5z"/>
					<path class="st3" d="M4274.1,1281.6c-1.3,1.9-2.5,3.8-3.6,5.7l114,65.1l-64.7-114.5c-3.7,2.2-7.3,4.7-10.8,7.3
						C4295.5,1255.3,4283.5,1267.7,4274.1,1281.6z"/>
				</g>
				<g>
					<g>
						<path class="st6" d="M4381,1488.4c-75.6,0-137.1-61.5-137.1-137.1s61.5-137.1,137.1-137.1c75.6,0,137.1,61.5,137.1,137.1
							S4456.6,1488.4,4381,1488.4z M4381,1229.6c-67.1,0-121.7,54.6-121.7,121.7c0,67.1,54.6,121.7,121.7,121.7
							s121.7-54.6,121.7-121.7C4502.6,1284.2,4448.1,1229.6,4381,1229.6z"/>
					</g>
					<g>
						<path class="st12" d="M4381,1477.4c-69.5,0-126.1-56.6-126.1-126.1c0-69.5,56.6-126.1,126.1-126.1
							c69.5,0,126.1,56.6,126.1,126.1C4507.1,1420.8,4450.5,1477.4,4381,1477.4z M4381,1239.4c-61.7,0-111.9,50.2-111.9,111.9
							s50.2,111.9,111.9,111.9c61.7,0,111.9-50.2,111.9-111.9S4442.7,1239.4,4381,1239.4z"/>
					</g>
				</g>
				<g>
					<g>
						<polygon class="st6" points="4591.9,1369.7 4454.4,1120.2 4468.1,1111.4 4594,1342.8 4712.2,1176.3 4724.3,1187.1 						"/>
					</g>
					<g>
						<polygon class="st6" points="4802.1,1345.8 4744.5,1133.4 4727.5,1133.4 4786.3,1349.9 						"/>
					</g>
					<g>
						<polygon class="st6" points="4748.6,1189.8 4505.3,1189.8 4488.1,1173.6 4748.6,1173.6 						"/>
					</g>
					<g>
						<g>
							<polygon class="st6" points="4592.8,1364.3 4366.4,1359.1 4489.6,1172.5 4497.7,1189.5 4394.8,1343.5 4593.2,1348.1 							
								"/>
						</g>
					</g>
				</g>
				<path class="st6" d="M4431.9,1109L4431.9,1109c7.7,10,18.2,15.7,29.1,15.7h72.6c4.5,0-1.1-7.2-4.4-11.2l0,0
					c-6.3-7.6-14.3-12.4-22.9-13.6l-68-8.2C4431,1090.6,4426.7,1102.2,4431.9,1109z"/>
				<path class="st6" d="M4811.4,1350.3c0,9.5-7.7,17.2-17.2,17.2c-9.5,0-17.2-7.7-17.2-17.2c0-9.5,7.7-17.2,17.2-17.2
					C4803.7,1333.1,4811.4,1340.8,4811.4,1350.3z"/>
				<path class="st3" d="M4384.1,1371.9c-11.8,0-21.4-9.6-21.4-21.4s9.6-21.4,21.4-21.4c11.8,0,21.4,9.6,21.4,21.4
					S4395.9,1371.9,4384.1,1371.9z"/>
				<circle class="st6" cx="4384.1" cy="1350.4" r="16.2"/>
				<g>
					<circle class="st6" cx="4581.8" cy="1351.3" r="26.3"/>
				</g>
				<g>
					<g>
						
							<rect x="4382.6" y="1318.6" transform="matrix(0.9978 -6.647456e-02 6.647456e-02 0.9978 -77.8926 300.8813)" class="st30" width="199.5" height="4.6"/>
					</g>
					<g>
						
							<rect x="4480" y="1280.9" transform="matrix(7.654060e-02 -0.9971 0.9971 7.654060e-02 2762.5752 5744.1895)" class="st30" width="4.6" height="199.6"/>
					</g>
					<g>
						<path class="st30" d="M4581.8,1390.7v-4.6c19.2,0,34.8-15.6,34.8-34.8c0-19.2-15.6-34.8-34.8-34.8v-4.6
							c21.7,0,39.4,17.7,39.4,39.4C4621.2,1373,4603.6,1390.7,4581.8,1390.7z"/>
					</g>
					<g>
						<path class="st30" d="M4382.8,1375.4c-13.8,0-25-11.2-25-25c0-13.8,11.2-25,25-25c0.6,0,1.2,0,1.8,0.1l-0.4,4.6
							c-0.5,0-1-0.1-1.4-0.1c-11.3,0-20.4,9.2-20.4,20.4c0,11.3,9.2,20.4,20.4,20.4V1375.4z"/>
					</g>
				</g>
				
					<rect x="4598.3" y="1367.1" transform="matrix(0.9299 -0.3678 0.3678 0.9299 -180.7598 1793.1294)" class="st31" width="30.7" height="7.3"/>
				<path class="st32" d="M4580.8,1357.3l10.6,20c0,0,26-13.8,56.8-20l-1.4-4.2c0,0-30.3-9.2-52.5-3.2
					C4572,1355.8,4580.8,1357.3,4580.8,1357.3z"/>
				<polygon class="st33" points="4452,1102.8 4582.1,1362.5 4610.6,1343.7 4526.8,1083.6 				"/>
				<polygon class="st4" points="4452,1102.8 4582.1,1362.5 4586,1360 4465.3,1099.4 				"/>
				<g>
					<path class="st6" d="M4730,1142.5l-2.5-7.7c-0.6-1.8,0.4-3.7,2.1-4.2l29.5-9.9c3.4-2.3,4.9-6.6,3.6-10.6l-1.7-5
						c-2.8-8.1,0.3-17.2,7.5-21.9l20.8-13.8l5.4,8.2l-20.8,13.8c-3.5,2.3-4.9,6.6-3.6,10.6l1.7,5c2.9,8.4-0.5,17.8-8.1,22.4
						l-0.8,0.4L4730,1142.5z"/>
				</g>
				<path class="st5" d="M4768,1082.9c3.5-0.3,9.3-4,12-6.2c1.2-1,2-2.6,3.5-2.9c1.5-0.3,3.3,0.9,4.1,2.1c3.6,5.6-6.2,11.1-10,13.1
					c3.5,1.5,11.1-0.4,13.4-0.9c4.2-1,6.6-3.3,9.6-6.2c1.5-1.4,2.9-3,4-4.8c2.5-4,3-9.3,1-13.5c-1.3-2.8-3.6-5.1-6.3-6.6
					c-7.4-4.2-16.9-2.8-24.3,1.3c-5,2.8-14.1,8.9-16.4,14.3C4756.1,1078.9,4762,1083.4,4768,1082.9z"/>
				<g>
					
						<rect x="4585.6" y="893.2" transform="matrix(0.9367 0.3502 -0.3502 0.9367 615.2216 -1553.7321)" class="st5" width="37.6" height="62.7"/>
					<path class="st27" d="M4597.8,888.6l-8.5,22.7c10.8,14,17.8,30.6,22.3,47.8l21.5-57.4L4597.8,888.6z"/>
				</g>
				<g>
					<path class="st5" d="M4666.1,880.6c0.1,1.1,0.3,2.5,0.7,4.1C4666.6,883.3,4666.4,881.9,4666.1,880.6z"/>
					<path class="st5" d="M4673.3,900.3c-0.1,1.3-1.2,2.2-2.3,3c-1.5,1.1-3.2,2.1-4.9,2.8c-2.8,12.2-9.8,22.2-20.4,27.1
						c-21.2,9.7-48.7-4.7-61.3-32.3c-12.6-27.6-3.4-52.6,17.8-62.3c21.2-9.7,46.4-0.5,59,27c2.3,4.9,3.9,9.9,4.9,14.8
						c0.1,1.1,0.3,2.5,0.7,4.1c1,4.1,2.9,9.2,5.1,12.2C4672.6,897.9,4673.5,899,4673.3,900.3z"/>
					<path class="st5" d="M4666.1,880.6c0.1,1.1,0.3,2.5,0.7,4.1C4666.6,883.3,4666.4,881.9,4666.1,880.6z"/>
					<path class="st6" d="M4674.2,865.5c0.2,1.2,0,2.5-0.4,3.6c-3,8.9-17,13.6-25.1,16.2c-7.1,2.3-14.8,3-22.2,4.1
						c-1.9,0.3-3.9,0.6-5.7,1.5c-1.1,0.6-2.3,1.6-2.8,2.8c-0.6,1.5,0.1,2,0.4,3.4c-2.1-0.8-4.1-1.8-6.5-1.7
						c-2.3,0.1-4.6,1.6-4.9,3.9c-0.2,1.9,1.1,3.7,2.7,4.6c2,1.2,5.3,0.5,5.7,3c0.2,1.8-2.1,4.3-3.3,5.5c-1.6,1.7-3.5,3.2-5.5,4.3
						c-1.3,0.7-4.8,1.2-5.7,2.1c0.8-0.8,1.3-2.1,1.1-3.3c-2.5,3.1-6.5,5-10.5,5.1c0.7-0.8,1.4-1.7,2.1-2.5c-2.7,2.8-6.2,4.6-10,5.2
						c2.5-3.6,3-8.3,2.2-12.6c-0.8-4.1-3.8-8-4.2-12c-0.3-3.6,1.5-7.9,3.6-10.7c2.5-3.4,6.1-5.9,9.8-7.9c9.9-5.4,21.1-7.8,32.2-9.9
						c6.5-1.2,13.2-2.1,19.7-3.4c5.1-1,9.1-2.9,13.9-4.7c2.6-1,5.5-1.3,8.3-1c1.3,0.2,2.5,0.5,3.5,1.3
						C4673.6,863.2,4674.1,864.3,4674.2,865.5z"/>
					<g>
						<path class="st16" d="M4657.2,858.4l-69.5,34.5l-5.5,2.8c-0.8-2.3-1.6-4.6-2.3-6.9c-4.2-14.2-4.8-26.6,1.6-36.7c0,0,0,0,0-0.1
							c3.9-6.2,10.3-11.5,20-15.8C4625.1,825.6,4643.4,835.7,4657.2,858.4z"/>
						<path class="st34" d="M4587.7,892.9l-5.5,2.8c-0.8-2.3-1.6-4.6-2.3-6.9c-4.2-14.2-4.8-26.6,1.6-36.7
							C4577.6,866.5,4581.2,879.8,4587.7,892.9z"/>
						<path class="st34" d="M4582.2,895.6c0,0,98-20.5,96.8-42.3c-0.3-4.6-23.7,1.9-23.7,1.9L4582.2,895.6z"/>
					</g>
					<g>
						<path class="st27" d="M4673.3,900.3c0-0.3,0-0.5-0.1-0.8c-1.3,1.8-3.3,3-5.5,3.3c-0.8,0.1-1.6,0-2.3,0.4
							c-0.7,0.3-1.3,1.2-1,1.9c0.3,0.7,1.1,0.9,1.8,1c0,0,0,0,0.1,0c1.7-0.8,3.3-1.7,4.7-2.8
							C4672.1,902.6,4673.2,901.6,4673.3,900.3z"/>
					</g>
					<path class="st27" d="M4629.1,903.3c-0.9,1-1,2.6-0.5,3.9c0.5,1.3,1.4,2.3,2.5,3.2c1.4,1.1,3,1.9,4.6,2.4
						c1.4,0.4,3,0.4,3.9-0.6c0.5-0.6,0.6-1.4,0.5-2.2c-0.1-0.8-0.5-1.5-0.9-2.1C4637.7,905.5,4631.8,900.2,4629.1,903.3z"/>
				</g>
				<path class="st15" d="M4503.1,964.2c-25.5,25.1-41.1,58.4-48.1,93.2c-1.6,8.2-2.8,16.5-3.6,24.8c-0.4,4.2-0.9,8.5-0.8,12.8
					c0.1,4.7,1.5,9.5,2.3,14.2c-0.2-0.9,10.9-5.7,12.1-6.2c4.5-2,9.1-3.9,13.8-5.4c9.4-3.2,19-5.4,28.9-6.6
					c9.4-1.2,18.6-3.2,28.2-3.8c10.7-0.7,21.4-0.5,32,0.6c-13.4-13.8-2.1-37.4,5.7-50.8c9.3-15.9,21.5-29.9,31.1-45.7
					c8.2-13.6,28.7-25,9.5-49.9c-5.2-6.8-20.4-14.3-26.5-14.6C4550.6,924.8,4526.5,941.2,4503.1,964.2z"/>
			</g>
			<path class="st35" d="M4451.4,1082.1c0,0,122.2-45.3,158.4-101.2"/>
			<g>
				<polygon class="st5" points="4779.6,1089.8 4779.6,1089.8 4779.6,1089.8 				"/>
				<path class="st5" d="M4766.1,1065.7c-52.7,3.9-78.7-15.8-96.9-28.3c-12.5-8.6-23.3-19.8-31.9-32.6l-27.1,22.9
					c10.6,15,23.9,28.1,39.2,38.6c21.9,15,59.1,21.3,115.2,16.4L4766.1,1065.7z"/>
				<path class="st36" d="M4605.7,1030.9c-14.3-20.1-24-43.4-28.1-67.5c-1.1-6.3,0.6-12.7,4.5-17.8c4-5.1,10-8.4,16.4-8.9
					c1.2-0.1,2.3-0.1,3.5,0c10.6,0.7,19.3,8.6,21.2,19.2c2.8,16,9.3,31.8,18.7,45.9l2.8,4.1l-35.5,30L4605.7,1030.9z"/>
				<path class="st15" d="M4580.3,948.3c-2.6,4.6-3.6,9.9-2.7,15.1c4.1,24.1,13.9,47.4,28.1,67.5l3.5,4.9l13.6-11.5
					C4598.5,1005.2,4575.2,980.5,4580.3,948.3z"/>
			</g>
			<g>
				
					<rect x="4316.3" y="874.7" transform="matrix(-0.4868 0.8735 -0.8735 -0.4868 7411.6084 -2419.1992)" class="st32" width="200.4" height="186"/>
			</g>
			<g>
				<g>
					
						<rect x="4370.6" y="937.8" transform="matrix(-0.4868 0.8735 -0.8735 -0.4868 7406.9912 -2395.0955)" class="st10" width="73.1" height="81.2"/>
				</g>
				<g>
					<path class="st37" d="M4389.4,926.7L4389.4,926.7l71,39.5v0c-6.3,11.3-20.6,15.4-31.9,9.1l-30-16.7
						C4387.2,952.3,4383.1,938,4389.4,926.7z"/>
				</g>
			</g>
			<g>
				
					<rect x="4434.5" y="805.3" transform="matrix(-0.4868 0.8735 -0.8735 -0.4868 7408.4897 -2556.2781)" class="st10" width="41.4" height="186"/>
			</g>
			<g>
				
					<rect x="4394.2" y="870.1" transform="matrix(-0.4868 0.8735 -0.8735 -0.4868 7328.9336 -2554.4775)" class="st6" width="41.4" height="11.5"/>
			</g>
			<g>
				
					<rect x="4473.1" y="914" transform="matrix(-0.4868 0.8735 -0.8735 -0.4868 7484.5396 -2558.0247)" class="st6" width="41.4" height="11.5"/>
			</g>
		</g>
		<g>
			<path class="st6" d="M553.3,1136.3c-9.4,2.4-24.5,6.1-26.4,23.8c-1,9.7,4,24.6,8.3,33.3c9.5,19.1,22.3,36.3,35,53.3l-1.9,1.3
				c3.4,1.2,5.6,5.2,6.6,9.6c1,4.4-2.2,11.7-5.4,15c-1.5,1.5-3.6,2.6-5.6,2.1c-1.5-0.4-2.6-1.6-3.7-2.8
				c-16.6-18.8-30.6-40-41.5-62.6c-5-10.5-9.4-21.5-10.9-33.1c-1.4-11.6,0.4-23.9,6.9-33.5c6.5-9.7,30.8-24.7,42.4-23.1
				L553.3,1136.3z"/>
			<g>
				<path class="st38" d="M734,1162h241.9c4.7,0,8.5-3.8,8.5-8.5V939.9c0-4.7-3.8-8.5-8.5-8.5H734c-4.7,0-8.5,3.8-8.5,8.5v213.6
					C725.5,1158.2,729.3,1162,734,1162z"/>
				<path class="st10" d="M720.1,1162H962c4.7,0,8.5-3.8,8.5-8.5V939.9c0-4.7-3.8-8.5-8.5-8.5H720.1c-4.7,0-8.5,3.8-8.5,8.5v213.6
					C711.6,1158.2,715.4,1162,720.1,1162z"/>
			</g>
			<g>
				<line class="st39" x1="863.9" y1="1161" x2="786.9" y2="1218.9"/>
				<line class="st39" x1="711.6" y1="1161" x2="890.1" y2="1161"/>
			</g>
			<g>
				
					<rect x="548.3" y="899.4" transform="matrix(-0.9828 0.1845 -0.1845 -0.9828 1289.0732 1731.0997)" class="st5" width="31.4" height="52.3"/>
				<path class="st27" d="M574.6,897l3.7,19.9c-10.9,10-19,22.6-25.1,36.1l-9.4-50.2L574.6,897z"/>
			</g>
			<g>
				<path class="st15" d="M564.4,1080.2c-6.1-36-11.9-61.8-16.6-98.2c-2.2-16.9,8.6-41.4,24.4-47.3c11.4-4.3,24.6-3,35.3,2.8
					c16.9,9.1,25.5,28.1,32,45.3c8.7,23,13.2,47.3,17.7,71.3c2.9,15.7,5.6,32.7,0.7,47.1C625.6,1102.5,593,1095.1,564.4,1080.2z"/>
				<path class="st40" d="M548.7,967.5c0.3,47.8,20.2,92,52.3,127c-12.7-3.5-25-8.2-36.6-14.3c-6.1-36-11.9-61.8-16.6-98.2
					C547.3,977.5,547.6,972.5,548.7,967.5z"/>
				<path class="st33" d="M480.3,1115.2c12.2-17.7,34.5-29.7,55.1-33c3.1-0.5,28.6-4.4,29.2-0.5c-0.1-0.5-0.2-1-0.3-1.5
					c28.6,15,61.2,22.3,93.4,20.9c-0.9,2.6-2,5.2-3.5,7.6c-15.9,26.7-50.8,22.8-77.2,23.3c-17.7,0.3-50.4,0.3-56,22.2
					c-1.5,5.9-0.9,12.1,0.2,18c3.2,17.6,10.7,34.1,19.2,49.7c2,3.6,25.5,44,26.1,43.6c-4.5,2.9-9,5.8-13.5,8.8
					c-5.1,3.3-29.7-25.9-32.7-30.1c-10.4-14.5-21-29.2-30.3-44.4c-10.3-16.7-18.4-35.5-18.9-55.1
					C470.9,1133.8,474.4,1123.8,480.3,1115.2z"/>
				<path class="st41" d="M516.6,1139.7c24.2-38,100.6,8.9,130.5-38.5c3.6,0.1,7.2,0.1,10.8-0.1c-0.9,2.6-2,5.2-3.5,7.6
					c-15.9,26.7-50.8,22.8-77.2,23.3c-17.7,0.3-50.4,0.3-56,22.2c-1.5,5.9-0.9,12.1,0.2,18c3.2,17.6,10.7,34.1,19.2,49.7
					c2,3.6,25.5,44,26.1,43.6c-0.8,0.5-1.7,1.1-2.5,1.6C527.9,1228.2,487.5,1186.3,516.6,1139.7z"/>
			</g>
			<g>
				<g>
					<g>
						<circle class="st6" cx="703.3" cy="1353.3" r="89.4"/>
						
							<ellipse transform="matrix(0.9732 -0.2298 0.2298 0.9732 -292.1036 197.7977)" class="st4" cx="703.3" cy="1353.3" rx="59.9" ry="59.9"/>
						<circle class="st42" cx="703.3" cy="1353.3" r="24.5"/>
					</g>
					<g>
						<path class="st32" d="M367.9,1046.9h54.7c-6.1,24.1-25.7,62.3-10.1,143.2c6,31,36.1,97.4,74.3,96.5
							c32.7-0.8,77.7-4.3,93.2-46.2c20.1-54.2-15.8-87.9-15.8-87.9l138.6-0.1c33.4,0,116.3,22.2,126.7,157.5
							c1.1,13.8-10.7,25.3-24.5,25.3l-404.2,0l-32.1-79.8l-44.5,15.2c-16.5-18.6-48.7,24.3-53.9,0
							C242.2,1139.3,367.9,1046.9,367.9,1046.9z"/>
					</g>
					<path class="st10" d="M383.8,1046.9c16,0,38.7,0,38.7,0c-6.1,24.1-25.7,62.3-10.1,143.2c5.5,28.4,31.2,85.7,64.8,95.2
						C445.3,1283,336.8,1216.9,383.8,1046.9z"/>
					<g>
						<g>
							<circle class="st6" cx="339.1" cy="1353.3" r="89.4"/>
							
								<ellipse transform="matrix(0.9732 -0.2298 0.2298 0.9732 -301.8486 114.102)" class="st4" cx="339.1" cy="1353.3" rx="59.9" ry="59.9"/>
							<circle class="st42" cx="339.1" cy="1353.3" r="24.5"/>
						</g>
						<g>
							<path class="st10" d="M253.3,1331.4c-4.5,3.2-10.5-0.8-9.1-6.1c11.5-44.9,49.2-77.8,94-77.8c44.8,0,82.6,32.9,94,77.8
								c1.4,5.3-4.7,9.4-9.1,6.1c-24.1-17.5-53.3-27.8-84.9-27.8C306.7,1303.6,277.4,1313.9,253.3,1331.4z"/>
						</g>
					</g>
					<path class="st32" d="M359.8,997.1v49.6c-12.5-1.3-22.3-11.9-22.3-24.8v0C337.4,1009,347.2,998.4,359.8,997.1z"/>
					<path class="st10" d="M362.4,997h58.4c7.3,0,13.3,5.9,13.3,13.3v23.4c0,7.3-5.9,13.3-13.3,13.3h-58.4c-0.9,0-1.8,0-2.6-0.1
						v-49.6C360.6,997,361.5,997,362.4,997z"/>
					<path class="st6" d="M405.2,1026.2l57.9,29.1c4.6,2.3,10.2,0.5,12.5-4.1c2.3-4.6,0.5-10.2-4.1-12.5c-0.2-0.1-0.4-0.2-0.5-0.2
						l-59.6-25.5c-3.7-1.6-8,0.1-9.6,3.8C400.2,1020.4,401.8,1024.5,405.2,1026.2z"/>
					<g>
						<path class="st10" d="M718.4,1179c17.3,0,33.9,3.2,49.2,9c-69.2,0.6-127,42.5-137.3,109.3c-1.5,9.5-9.4,16.6-19,16.6h-9.7
							c-12.2,0-21.1-11.1-18.8-23.1C595,1227.2,651.1,1179,718.4,1179z"/>
					</g>
				</g>
			</g>
			<path class="st6" d="M556.9,1130.6h161c6.5,0,11.7,5.3,11.7,11.7l0,0c0,6.5-5.3,11.7-11.7,11.7h-161c-6.5,0-11.7-5.3-11.7-11.7
				l0,0C545.2,1135.9,550.4,1130.6,556.9,1130.6z"/>
			<g>
				<g>
					<path class="st6" d="M682.3,1251.5h104.7c1.9,0,3.4-1.5,3.4-3.4s-1.5-3.4-3.4-3.4H682.3c-1.9,0-3.4,1.5-3.4,3.4
						S680.4,1251.5,682.3,1251.5z"/>
				</g>
				<g>
					<path class="st6" d="M682.3,1272h104.7c1.9,0,3.4-1.5,3.4-3.4c0-1.9-1.5-3.4-3.4-3.4H682.3c-1.9,0-3.4,1.5-3.4,3.4
						C678.8,1270.5,680.4,1272,682.3,1272z"/>
				</g>
				<g>
					<path class="st6" d="M682.3,1292.5h104.7c1.9,0,3.4-1.5,3.4-3.4c0-1.9-1.5-3.4-3.4-3.4H682.3c-1.9,0-3.4,1.5-3.4,3.4
						C678.8,1290.9,680.4,1292.5,682.3,1292.5z"/>
				</g>
			</g>
			<path class="st5" d="M535.1,1009.1c-9.6,10-21.7,17.3-34.8,21.6c-6.3,2.1-12.8,3.9-19.4,3c-8.4-1.2-16.7-3.1-25-4.7
				c-4.5-0.8-9.2-1.7-13.6-0.5c-4.4,1.2-8.5,5.1-8.3,9.6c0.1,2.9,1.9,5.6,4.2,7.4c4.1,3.2,7.7,6.7,12.8,2.7c2.5-2,4.4-4.8,7.1-6.4
				c5.1-2.9,11.5-0.9,17.1,0.7c23,6.7,48.4,7.4,69.8-4.2c25.9-14,44.3-38.7,58.4-64.5c3-5.4,4.6-10.4,1.2-16.1
				c-3.3-5.7-9-9.9-15.4-11.5c-16.8-4.2-20.2,9-27,21.1C554.2,981.7,546.7,996.9,535.1,1009.1z"/>
			<path class="st27" d="M529.9,1038.8c12.1-5.2,22.9-12.9,31.9-22.5c4.8-5.1,9.1-10.7,13.1-16.4c3.9-5.5,7.5-11.3,11.4-16.8
				c3.8-5.3,7.7-10.6,11.1-16.2c2.2-3.7,4.2-7.5,5.6-11.6c0.6,0.8,1.1,1.6,1.6,2.4c3.4,5.8,1.7,10.7-1.2,16.1
				c-14.2,25.8-32.6,50.5-58.4,64.5c-15.9,8.6-34,10.4-51.7,8C506,1046.3,518.4,1043.7,529.9,1038.8z"/>
			<path class="st36" d="M612.1,944.8c6.5,7.3,1.5,22.4-0.5,27.8c-3.3,8.9-8.8,16.9-14.3,24.7c-12.1-6.9-41.6-24.1-41.6-24.1
				s16.2-43.3,44.3-36.3C604.1,937.9,608.8,941.1,612.1,944.8z"/>
			<path class="st43" d="M586.9,983.1c1.5-2.4,3-4.9,4.4-7.3c1.5-2.6,2.9-5.3,4.3-8c1.3-2.7,2.6-5.4,3.7-8.2c1-2.5,1.9-5.2,2.6-7.8
				c0.5-2.3,0.9-4.6,0.9-6.9c0-1.9-0.3-3.8-1.2-5.5c-0.6-1.1-1.6-2-2.6-2.7c0.4,0.1,0.8,0.1,1.2,0.2c4,1,8.8,4.2,12.1,7.9
				c6.5,7.3,1.5,22.4-0.5,27.8c-3.3,8.9-8.8,16.9-14.3,24.7c-3.6-2.1-8.8-5-14.3-8.2C584.3,987.1,585.6,985.1,586.9,983.1z"/>
			<g>
				<path class="st5" d="M514.4,889.5c0.4-1.3,0.5-2.5,0.6-3.4C514.8,887.2,514.5,888.3,514.4,889.5z"/>
				<path class="st5" d="M508.9,902.6c0.1,1.1,1,1.9,1.9,2.5c1.3,0.9,2.6,1.7,4.1,2.4c2.3,10.2,8.1,18.5,17,22.6
					c17.7,8.1,40.5-3.9,51.1-26.8c10.6-22.9,4.8-48.1-12.8-56.3c-17.6-8.1-40.5,3.9-51.1,26.8c-1.9,4.1-3.3,8.3-4.1,12.3
					c-0.1,0.9-0.3,2.1-0.6,3.4c-0.8,3.4-2.4,7.6-4.2,10.2C509.5,900.5,508.8,901.5,508.9,902.6z"/>
				<path class="st5" d="M514.4,889.5c0.4-1.3,0.5-2.5,0.6-3.4C514.8,887.2,514.5,888.3,514.4,889.5z"/>
				<path class="st6" d="M505.2,873.2c1.1,4.1,4.6,7,8.2,9.3c12.4,8.1,27.6,11.9,42.4,10.7c0,2.3-0.4,4.6-1.2,6.8
					c1.7-0.8,3.5-1.5,5.4-1.4s3.9,1.4,4.1,3.3c0.2,1.6-0.9,3.1-2.3,3.8c-1.7,1-4.4,0.4-4.7,2.5c-0.2,1.5,1.8,3.6,2.7,4.6
					c1.3,1.4,2.9,2.7,4.6,3.6c1.1,0.6,4,1,4.7,1.8c-0.7-0.7-1.1-1.7-0.9-2.7c2.1,2.6,5.4,4.2,8.7,4.2c-0.6-0.7-1.2-1.4-1.8-2.1
					c2.2,2.3,5.2,3.8,8.4,4.3c-2.1-3-2.5-6.9-1.8-10.5c0.6-3.4,3.2-6.7,3.5-10c0.3-3-1.2-6.6-3-8.9c-2.1-2.8-5-4.9-8.1-6.6
					c-8.2-4.5-17.6-6.6-26.8-8.3c-7.9-1.5-15.8-2.8-23.8-4c-3-0.4-5.3-0.4-8.2,0C514.3,873.6,505.4,873.9,505.2,873.2z"/>
				<g>
					<path class="st34" d="M584.9,898.7c0,0-88.7-20.9-92.3-37.3c-0.8-3.8,29.9,6.2,29.9,6.2L584.9,898.7z"/>
					<path class="st16" d="M570.2,846.9c23.6,10.5,22.6,30.1,14.7,51.8l-62.4-31.1C534,848.8,550.5,838.2,570.2,846.9z"/>
					<path class="st34" d="M583.4,856.2c9.5,11,7.4,26.2,1.5,42.5l-4.6-2.3C586.6,883.7,589.6,870.7,583.4,856.2z"/>
				</g>
				<g>
					<path class="st27" d="M508.9,902.6c0-0.2,0-0.4,0-0.6c1.1,1.5,2.7,2.5,4.6,2.7c0.7,0.1,1.3,0,1.9,0.3c0.6,0.3,1.1,1,0.8,1.6
						c-0.2,0.6-0.9,0.7-1.5,0.8c0,0,0,0-0.1,0c-1.4-0.6-2.7-1.4-3.9-2.3C510,904.4,509.1,903.6,508.9,902.6z"/>
				</g>
				<path class="st27" d="M545.8,905.1c0.7,0.9,0.8,2.1,0.4,3.2c-0.4,1.1-1.2,1.9-2.1,2.6c-1.1,0.9-2.5,1.6-3.9,2
					c-1.1,0.3-2.5,0.4-3.3-0.5c-0.4-0.5-0.5-1.2-0.4-1.8c0.1-0.6,0.4-1.2,0.8-1.8C538.6,906.9,543.6,902.4,545.8,905.1z"/>
			</g>
			<path class="st6" d="M515.3,1280.2c-1.1,0.4-2.4,1-2.7,2.2c-0.2,1.1,0.7,2.1,1.7,2.5c1,0.4,2.1,0.2,3.2,0.1
				c15.7-2.3,30.9-7.5,44.6-15.4c3.2-1.8,5.5-5.1,4.5-8.9c-0.3-1.2-6.9-10-7.9-9.3c-7.5,5.4-16.3,9.7-23.4,15.5
				C528.8,1272.1,523.3,1277.1,515.3,1280.2z"/>
			<path class="st32" d="M734.6,955.3h217.2c2.7,0,5-2.2,5-5l0,0c0-2.7-2.2-5-5-5H734.6c-2.7,0-5,2.2-5,5l0,0
				C729.6,953,731.8,955.3,734.6,955.3z"/>
			<g>
				<path class="st8" d="M519,895.6c4,2,8,4.1,12.3,5.5c4.3,1.4,8.9,2.1,13.3,1.2c1.2-0.3,2.8-0.5,3.5,0.5c0.4,0.5,0.4,1.1,0.4,1.7
					c0.4,7.9-1.9,16-6.5,22.5c-1.8,2.5-4.2,5-7.3,5.2c-2.3,0.2-4.5-1-6.4-2.2c-3.8-2.3-7.4-5.1-10.6-8.1c-3.9-3.6-7.4-7.9-8.8-13
					c-1-3.5-0.8-7.5,0.9-10.8c0.6-1.2,1.8-3.3,3-3.9C514.6,893.3,517.4,894.8,519,895.6z"/>
				<path class="st44" d="M544.3,923.3c-0.7,1.3-1.4,2.5-2.2,3.7c-1.8,2.5-4.2,5-7.3,5.2c-2.3,0.2-4.5-1-6.4-2.2
					c-0.3-0.2-0.5-0.4-0.8-0.5C534.1,929.6,540.1,927.4,544.3,923.3z"/>
				<g>
					<path class="st8" d="M546.2,904.8c0.3,0,0.7-0.1,1-0.2c0.6-0.2,8.5-4.4,9.1-5c-1,0-1.9,0-2.9,0.1c-0.9,0.1-1.8,0.7-2.6,1.1
						c-1.2,0.6-2.5,1.2-3.8,1.8c-0.3,0.1-1.4,1.7-1.4,1.7C545.7,904.6,545.9,904.8,546.2,904.8z"/>
				</g>
			</g>
			<g>
				<g>
					<path class="st3" d="M906,1026l4.6,23.2h-8.5c-2.6,0-4.8-0.8-6.6-2.4c-1.8-1.6-3-3.9-3.6-6.9l-0.8-4.2c-0.5-2.7,0-5,1.6-6.9
						c1.6-1.9,3.6-2.8,6-2.8H906z M899.8,1030.1c-1.3,0-2.3,0.5-3,1.5c-0.7,1-0.8,2.3-0.5,4l0.8,4.2c0.3,1.6,0.9,2.9,1.6,3.8
						c0.7,0.9,1.7,1.4,2.8,1.4h2.8l-3-14.9H899.8z"/>
					<path class="st3" d="M873.4,1035.1h8.3l-1-5h-9.8l-0.8-4.1h15.2l4.6,23.2h-15.1l-0.8-4.1h9.8l-1.1-5.8h-8.3L873.4,1035.1z"/>
					<path class="st3" d="M861.6,1026h5.3l4.6,23.2h-14.5l-0.8-4.1h9.2L861.6,1026z"/>
					<path class="st3" d="M843.8,1026h5.3l4.6,23.2h-5.3L843.8,1026z"/>
					<path class="st3" d="M836.1,1026h5.5l-3.2,23.2h-5.8l-10.6-23.2h5.6l6.8,17l0.2,0.7l0.1,0l0-0.7L836.1,1026z"/>
					<path class="st3" d="M807.2,1035.1h8.3l-1-5h-9.8l-0.8-4.1H819l4.6,23.2h-15.1l-0.8-4.1h9.8l-1.1-5.8H808L807.2,1035.1z"/>
					<path class="st3" d="M795,1040.3c-1,0-1.7,0.3-2.1,0.8c-0.4,0.5-0.5,1.4-0.2,2.6l0.3,1.4c0.1,0.8,0.2,1.6,0.3,2.4
						s-0.1,1.4-0.4,1.7h-5.5l-0.1-0.3c0.3-0.3,0.5-0.9,0.5-1.6c0-0.8,0-1.5-0.2-2.1l-0.3-1.5c-0.3-1.3-0.2-2.5,0.2-3.4
						c0.4-1,1.2-1.6,2.4-2.1c-1.3-0.5-2.3-1.2-3.1-2c-0.7-0.8-1.3-1.9-1.5-3.2c-0.4-2.1,0-3.8,1.3-5.1c1.3-1.3,3.1-1.9,5.5-1.9h8.4
						l4.6,23.2H800l-1.8-8.9H795z M796.2,1030.1h-3.1c-0.9,0-1.6,0.3-2,0.8c-0.4,0.5-0.5,1.3-0.3,2.3c0.2,0.9,0.6,1.6,1.2,2.1
						c0.6,0.5,1.4,0.8,2.2,0.8h3.1L796.2,1030.1z"/>
					<path class="st3" d="M776.4,1026h5.7l-4.2,14.7l1.7,8.5h-5.3l-1.6-8.2l-10.3-15h5.8l6,9.8l0.1,0L776.4,1026z"/>
				</g>
				<g>
					<path class="st3" d="M804.4,1061.3h160.9c0.7,0,1.3-0.6,1.3-1.3c0-0.7-0.6-1.3-1.3-1.3H804.4c-0.7,0-1.3,0.6-1.3,1.3
						C803.1,1060.8,803.7,1061.3,804.4,1061.3z"/>
				</g>
				<g>
					<path class="st3" d="M928.5,1050.5h26.8c0.7,0,1.3-0.6,1.3-1.3s-0.6-1.3-1.3-1.3h-26.8c-0.7,0-1.3,0.6-1.3,1.3
						S927.8,1050.5,928.5,1050.5z"/>
				</g>
				<g>
					<path class="st3" d="M923.9,1041.2H943c0.7,0,1.3-0.6,1.3-1.3s-0.6-1.3-1.3-1.3h-19.2c-0.7,0-1.3,0.6-1.3,1.3
						S923.1,1041.2,923.9,1041.2z"/>
				</g>
				<g>
					<path class="st3" d="M792.2,1088.7c14,0,27.4-5.9,36.9-16.2c1-1,0.9-2.7-0.1-3.6c-1-1-2.7-0.9-3.6,0.1
						c-8.5,9.2-20.6,14.5-33.1,14.5c-24.8,0-45-20.2-45-45s20.2-45,45-45c14.2,0,27.7,6.8,36.1,18.2c0.8,1.1,2.4,1.4,3.6,0.5
						c1.1-0.8,1.4-2.4,0.5-3.6c-9.4-12.7-24.5-20.3-40.2-20.3c-27.6,0-50.1,22.5-50.1,50.1C742.1,1066.3,764.5,1088.7,792.2,1088.7z
						"/>
				</g>
			</g>
		</g>
		<g>
			<g>
				<path class="st32" d="M3003.1,464.5h155.6c10.3,0,20,4.5,26.8,12.2l144.7,166.9l77.3,37.5c20.2,9.8,33,30.3,33,52.9v195.7
					h-437.4V464.5z"/>
				<path class="st8" d="M3171.2,486.7c-4-4.5-9.7-7.1-15.7-7.1h-142.3v144.6h278.2L3171.2,486.7z"/>
				<g>
					<path class="st3" d="M3396.2,803.4c0,16.4,10.8,30.1,25.4,33.7v-67.3C3407.1,773.2,3396.2,786.9,3396.2,803.4z"/>
					<path class="st3" d="M3429,768.8c-2.6,0-5,0.3-7.4,0.9V837c2.4,0.6,4.9,0.9,7.4,0.9c1.6,0,3.1-0.1,4.5-0.4v-68.4
						C3432.1,768.9,3430.6,768.8,3429,768.8z"/>
				</g>
				<g>
					<path class="st38" d="M3318.2,929.9h-219.1c0-60.5,49-109.5,109.6-109.5C3269.2,820.3,3318.2,869.4,3318.2,929.9z"/>
					<path class="st45" d="M3299.4,929.9h-181.5c0-50,40.7-90.7,90.8-90.7C3258.7,839.2,3299.4,879.8,3299.4,929.9z"/>
					
						<ellipse transform="matrix(0.7071 -0.7071 0.7071 0.7071 282.2517 2541.2175)" class="st46" cx="3208.6" cy="929.9" rx="85.1" ry="85.1"/>
					
						<ellipse transform="matrix(0.7071 -0.7071 0.7071 0.7071 282.2517 2541.2175)" class="st12" cx="3208.6" cy="929.9" rx="52.3" ry="52.3"/>
					<path class="st47" d="M3208.6,959.5c-16.3,0-29.6-13.3-29.6-29.6c0-16.3,13.3-29.6,29.6-29.6c16.3,0,29.6,13.3,29.6,29.6
						C3238.2,946.2,3225,959.5,3208.6,959.5z"/>
				</g>
				<path class="st10" d="M2377.5,929.8h625.6V406.9h-605.8c-10.9,0-19.8,8.9-19.8,19.8V929.8z"/>
				<g>
					<path class="st10" d="M3337.1,645c0-18.6-9.4-34.8-23.4-43.8v87.6C3327.7,679.7,3337.1,663.5,3337.1,645z"/>
					<path class="st48" d="M3305.6,596.9v96c2.8-1.1,5.5-2.6,8-4.2v-87.6C3311.2,599.5,3308.5,598.1,3305.6,596.9z"/>
				</g>
				<g>
					<path class="st38" d="M2778,929.9h-219.1c0-60.5,49-109.5,109.6-109.5C2729,820.3,2778,869.4,2778,929.9z"/>
					<path class="st45" d="M2759.2,929.9h-181.5c0-50,40.7-90.7,90.8-90.7C2718.5,839.2,2759.2,879.8,2759.2,929.9z"/>
					
						<ellipse transform="matrix(0.1602 -0.9871 0.9871 0.1602 1323.1346 3414.96)" class="st46" cx="2668.5" cy="929.9" rx="85.1" ry="85.1"/>
					
						<ellipse transform="matrix(0.9239 -0.3827 0.3827 0.9239 -152.7325 1091.9639)" class="st12" cx="2668.5" cy="929.9" rx="52.3" ry="52.3"/>
					<path class="st47" d="M2668.5,959.5c-16.3,0-29.6-13.3-29.6-29.6c0-16.3,13.3-29.6,29.6-29.6c16.3,0,29.6,13.3,29.6,29.6
						C2698.1,946.2,2684.8,959.5,2668.5,959.5z"/>
				</g>
				<rect x="3369.6" y="884.5" class="st49" width="81.8" height="45.2"/>
				<path class="st50" d="M2400.2,896.7h-18.3v-73h18.3c7.9,0,14.3,6.4,14.3,14.3v44.5C2414.4,890.3,2408,896.7,2400.2,896.7z"/>
				<rect x="2371.4" y="879" class="st49" width="85.9" height="50.8"/>
			</g>
			<g>
				<g>
					<path class="st3" d="M2585.3,646.2H2568l-2.4,12h20.4l-1.7,8.6h-31.5l9.6-48.2h31.5l-1.7,8.6h-20.4l-2.1,10.4h17.3
						L2585.3,646.2z"/>
					<path class="st3" d="M2613,634.6l0.2,0l9.3-16h12.8l-16.5,23.9l9.8,24.3h-13.4l-4.4-16.3l-0.2,0l-9.6,16.4h-12.8l16.9-24.3
						l-8.8-23.9h12.7L2613,634.6z"/>
					<path class="st3" d="M2647.6,650.3l-3.3,16.5h-11.1l9.6-48.2h18.5c5,0,8.9,1.5,11.6,4.5c2.8,3,3.7,6.8,2.7,11.4
						c-1,5-3.4,8.9-7,11.7c-3.7,2.8-8.2,4.1-13.7,4.1H2647.6z M2649.3,641.7h7.5c2,0,3.7-0.7,5.1-2c1.4-1.4,2.4-3.1,2.8-5.1
						c0.4-2.3,0.3-4-0.6-5.3c-0.8-1.3-2.3-2-4.5-2h-7.4L2649.3,641.7z"/>
					<path class="st3" d="M2691.7,648.4l-3.7,18.5h-11.1l9.6-48.2h17.5c4.9,0,8.7,1.3,11.4,3.9c2.7,2.6,3.6,6.1,2.8,10.5
						c-0.6,2.7-1.6,4.9-3.2,6.6c-1.6,1.7-3.7,3.1-6.3,4.2c2.5,0.9,4.2,2.3,5.1,4.3c0.9,2,1.1,4.4,0.5,7.1l-0.6,3
						c-0.3,1.3-0.4,2.7-0.3,4.3s0.4,2.7,1.1,3.4l-0.1,0.7h-11.4c-0.7-0.7-1-1.9-0.9-3.6c0.1-1.7,0.3-3.3,0.6-4.9l0.6-2.9
						c0.5-2.5,0.3-4.2-0.5-5.4c-0.8-1.1-2.2-1.7-4.3-1.7H2691.7z M2693.4,639.8h6.5c1.7,0,3.3-0.5,4.6-1.6c1.3-1,2.2-2.5,2.5-4.4
						c0.4-2.1,0.2-3.7-0.6-4.9c-0.8-1.1-2.2-1.7-4.1-1.7h-6.4L2693.4,639.8z"/>
					<path class="st3" d="M2753,646.2h-17.3l-2.4,12h20.4l-1.7,8.6h-31.5l9.6-48.2h31.5l-1.7,8.6h-20.4l-2.1,10.4h17.3L2753,646.2z"
						/>
					<path class="st3" d="M2784.6,654.8c0.4-2,0.1-3.5-0.8-4.4c-0.9-0.9-2.8-2-5.6-3.3c-5.3-1.9-9.2-4.1-11.7-6.7
						c-2.5-2.6-3.4-5.8-2.6-9.8c0.8-4.1,3-7.2,6.4-9.4c3.5-2.2,7.6-3.3,12.4-3.3c5,0,8.9,1.3,11.8,4c2.8,2.6,3.8,6.2,2.8,10.8
						l-0.1,0.2h-10.8c0.4-1.9,0.1-3.5-1-4.6c-1-1.1-2.5-1.7-4.4-1.7c-1.4,0-2.7,0.4-3.8,1.2c-1.2,0.8-1.9,1.8-2.1,2.9
						c-0.4,1.8,0,3.2,1,4c1.1,0.9,3.4,2,7.1,3.5c4.8,1.7,8.3,3.8,10.5,6.4c2.2,2.6,2.9,6,2.1,10.2c-0.9,4.2-3,7.4-6.4,9.6
						c-3.4,2.1-7.5,3.2-12.4,3.2c-4.9,0-9-1.2-12.4-3.6c-3.4-2.4-4.5-6.1-3.4-11.1l0.1-0.2h10.8c-0.5,2.4-0.1,4.1,1.3,5
						c1.4,0.9,3.2,1.4,5.3,1.4c1.3,0,2.6-0.4,3.8-1.2C2783.7,657,2784.4,656,2784.6,654.8z"/>
					<path class="st3" d="M2825.8,654.8c0.4-2,0.1-3.5-0.8-4.4c-0.9-0.9-2.8-2-5.6-3.3c-5.3-1.9-9.2-4.1-11.7-6.7
						c-2.5-2.6-3.4-5.8-2.6-9.8c0.8-4.1,3-7.2,6.4-9.4c3.5-2.2,7.6-3.3,12.4-3.3c5,0,8.9,1.3,11.8,4c2.8,2.6,3.8,6.2,2.8,10.8
						l-0.1,0.2h-10.8c0.4-1.9,0.1-3.5-1-4.6c-1-1.1-2.5-1.7-4.4-1.7c-1.4,0-2.7,0.4-3.8,1.2c-1.2,0.8-1.9,1.8-2.1,2.9
						c-0.4,1.8,0,3.2,1,4c1.1,0.9,3.4,2,7.1,3.5c4.8,1.7,8.3,3.8,10.5,6.4c2.2,2.6,2.9,6,2.1,10.2c-0.9,4.2-3,7.4-6.4,9.6
						c-3.4,2.1-7.5,3.2-12.4,3.2c-4.9,0-9-1.2-12.4-3.6c-3.4-2.4-4.5-6.1-3.4-11.1l0.1-0.2h10.8c-0.5,2.4-0.1,4.1,1.3,5
						c1.4,0.9,3.2,1.4,5.3,1.4c1.3,0,2.6-0.4,3.8-1.2C2824.8,657,2825.5,656,2825.8,654.8z"/>
				</g>
				<line class="st51" x1="2773.6" y1="689.4" x2="2439.1" y2="689.4"/>
				<line class="st51" x1="2459.8" y1="666.9" x2="2515.5" y2="666.9"/>
				<line class="st51" x1="2485.3" y1="647.6" x2="2525.2" y2="647.6"/>
				<path class="st52" d="M2719.7,586.2c18-24.3,46.9-40,79.4-40c54.6,0,98.8,44.2,98.8,98.8s-44.2,98.8-98.8,98.8
					c-28.8,0-54.7-12.3-72.8-32"/>
			</g>
		</g>
		<g>
			<g>
				<g>
					<g>
						<path class="st10" d="M3742.4,933.2c-4,2.1-8.4,3.5-12.5,4.4c5.8-4.9,9.4-10.6,12.2-17.1c-0.3-4.6-0.7-9.6-1.3-14.9
							c-5.1,3.8-11.7,6-17.6,7.4c7.9-6.4,11.9-14.4,15.4-23.3c-0.6-3.4-1.2-6.9-1.9-10.4c-5.5,4.8-13.3,7.5-20.3,9.1
							c8.7-7,13.1-15.6,16.9-25.2c-0.7-3-1.4-5.9-2.1-9c-5.9,5-14.2,7.9-21.5,9.6c8.8-7,13.5-15.5,17.5-24.9
							c-0.8-2.9-1.7-5.9-2.6-8.9c-6.1,4.7-14.3,7.5-21.6,9.3c8.5-6.6,13.3-14.4,17.3-23.1c-1-3.2-2.2-6.5-3.3-9.8
							c-6.2,4.1-13.9,6.6-20.8,8.3c7.7-5.9,12.6-12.7,16.5-20.3c-1.5-4.1-3.1-8.1-4.6-12c-6.2,4.9-14.5,7.7-21.9,9.5
							c8.1-6.3,12.9-13.8,16.8-22c-1.6-3.7-3.2-7.4-4.8-10.9c-5.9,5.4-14.5,8.4-22.1,10.1c8-6.4,12.6-13.9,16.4-22.4
							c-1.7-3.5-3.4-7-5.2-10.4c-5.6,5.4-13.9,8.3-21.3,10c7.5-6,11.8-13.3,15.3-21.3c-2-3.6-4-7.1-5.9-10.4
							c-5.2,4.8-12.7,7.4-19.4,8.9c6.5-5.3,10.3-11.6,13.4-18.6c-2.5-3.9-4.9-7.5-7.3-10.9c-4.7,3.5-10.7,5.5-16.2,6.7
							c4.9-4.1,8.1-8.8,10.7-14c-11-13.9-20.3-20.9-26.1-18.9c-15.3,5.4,11.3,69.6,40,150.1c28.6,80.6,48.4,147.2,63.7,141.7
							C3739.4,957.8,3742.2,948.2,3742.4,933.2z"/>
						<path class="st11" d="M3662,694c-1.9-2.6-3.7-5-5.5-7.3c-2.6,5.2-5.8,9.9-10.7,14C3651.3,699.4,3657.3,697.4,3662,694z"/>
						<path class="st11" d="M3655.9,723.4c6.7-1.5,14.2-4.1,19.4-8.9c-2-3.4-4-6.6-6-9.7C3666.2,711.8,3662.4,718.2,3655.9,723.4z"
							/>
						<path class="st11" d="M3665.9,746.2c7.4-1.7,15.7-4.6,21.3-10c-2-3.9-4-7.7-6-11.3C3677.7,733,3673.4,740.2,3665.9,746.2z"/>
						<path class="st11" d="M3676,769c7.6-1.8,16.2-4.8,22.1-10.1c-1.9-4.2-3.8-8.3-5.7-12.3C3688.6,755.1,3684,762.7,3676,769z"/>
						<path class="st11" d="M3708,782.3c-1.7-4.3-3.4-8.4-5.1-12.5c-3.9,8.3-8.7,15.7-16.8,22C3693.5,790.1,3701.8,787.2,3708,782.3
							z"/>
						<path class="st11" d="M3730,937.6c4.1-0.9,8.5-2.3,12.5-4.4c0.1-3.9,0-8.1-0.3-12.7C3739.4,926.9,3735.8,932.7,3730,937.6z"/>
						<path class="st11" d="M3723.2,913c5.9-1.4,12.6-3.6,17.6-7.4c-0.6-5-1.3-10.4-2.3-15.9C3735.1,898.6,3731.1,906.5,3723.2,913z
							"/>
						<path class="st11" d="M3716.4,888.4c6.9-1.6,14.7-4.3,20.3-9.1c-1-5.2-2.1-10.6-3.4-16.1
							C3729.5,872.8,3725.1,881.4,3716.4,888.4z"/>
						<path class="st11" d="M3709.6,863.8c7.3-1.7,15.6-4.6,21.5-9.6c-1.2-5-2.6-10.1-4-15.3
							C3723.1,848.4,3718.5,856.8,3709.6,863.8z"/>
						<path class="st11" d="M3724.5,830c-1.4-4.6-2.8-9.2-4.3-13.8c-4,8.7-8.9,16.5-17.3,23.1C3710.2,837.5,3718.4,834.7,3724.5,830
							z"/>
						<path class="st11" d="M3716.9,806.3c-0.5-1.5-1-2.9-1.5-4.4c-0.9-2.6-1.8-5.1-2.8-7.6c-3.9,7.6-8.8,14.4-16.5,20.3
							C3703,813,3710.7,810.4,3716.9,806.3z"/>
					</g>
					<g>
						<path class="st3" d="M3758.1,810.8l-0.2,60.6c0,4.7-4.7,8.6-10.5,8.6l-35-0.1c-5.8,0-10.5-3.9-10.5-8.7l0.2-60.6l0.2-42.8
							c0-7,10.9-27.2,14.9-27.6l26.3,0.1c4,0.5,14.7,20.7,14.7,27.7L3758.1,810.8z"/>
						<g>
							<g>
								<path class="st12" d="M3742.9,732.2l-26.2-0.1c-8.2,0-19.2,25.3-19.2,32.6l-0.4,105.9c0,7.3,6.6,13.2,14.7,13.2l34.9,0.1
									c8.1,0,14.8-5.8,14.8-13.1l0.4-105.9C3761.9,757.7,3751.1,732.3,3742.9,732.2z M3756,809.6l-0.2,58.7c0,4.6-4.5,8.3-9.9,8.3
									l-33.1-0.1c-5.5,0-9.9-3.8-9.9-8.4l0.2-58.7l0.2-41.5c0-6.8,10.3-26.3,14.1-26.8l24.8,0.1c3.8,0.5,13.9,20.1,13.9,26.9
									L3756,809.6z"/>
							</g>
							<path class="st16" d="M3752.6,725.7l0-8.5c0-3.9-3.1-7-7-7l-30.9-0.1c-3.9,0-7,3.1-7,7l0,8.5c0,0.7,0.1,1.4,0.3,2h44.3
								C3752.5,727,3752.6,726.4,3752.6,725.7z"/>
							<path class="st34" d="M3708.1,727.6c0.9,2.9,3.5,5,6.7,5l30.8,0.1c3.2,0,5.9-2.2,6.8-5.1H3708.1z"/>
						</g>
					</g>
					<g>
						<path class="st13" d="M3816.8,694.1c1.1-5,2.2-9.5,3.9-18l-16.3-2.7c-1.1,8.6-1.5,13.2-2.1,18.3L3816.8,694.1z"/>
						<path class="st6" d="M3816.8,693.9l-14.5-2.4c-1.6,13.5-5.7,35.6-12.1,43.2c-11.2,13.5-14.4,7.4-20.8,46
							c-6.4,38.6-12.2,73.5-12.2,73.5l49.8,8.3c0,0,5.8-34.9,12.2-73.5c6.4-38.6,1.4-33.9-4.9-50.3
							C3810.8,729.4,3814.1,707.2,3816.8,693.9z M3813.5,788l-5.9,35.4l-38.4-6.4l5.9-35.4c1-5.8,1.8-10.5,2.6-14.3l37.9,6.3
							C3815.2,777.6,3814.5,782.3,3813.5,788z"/>
						<path class="st8" d="M3813.5,788l-5.9,35.4l-38.4-6.4l5.9-35.4c1-5.8,1.8-10.5,2.6-14.3l37.9,6.3
							C3815.2,777.6,3814.5,782.3,3813.5,788z"/>
					</g>
					<g>
						<g>
							<path class="st14" d="M3832.4,756.6c3,3.6,5.6,7.4,7.8,11.4c0.9,1.5,1.7,3.1,2.4,4.7c1.2,2.5,2.2,5,3.1,7.6
								c0.6,1.7,1.1,3.4,1.6,5.1c0.9,3.4,1.6,6.8,2,10.2c0.3,1.9,0.4,3.8,0.5,5.8c0.2,4.2,0.1,8.4-0.3,12.6c-0.2,2.1-0.5,4.3-1,6.4
								c-0.9,4.7-2.2,9.3-4,13.7c-0.8,1.9-1.6,3.9-2.5,5.7c-2.4,4.8-5.3,9.4-8.7,13.7c-1.2,1.5-2.5,3-3.8,4.5
								c-1.3,1.5-2.8,2.9-4.2,4.3c-2,1.9-4.1,3.6-6.2,5.2c-1.6,1.2-3.2,2.3-4.9,3.4c-3.3,2.1-6.6,3.9-10.1,5.4c-1.6,0.7-3.3,1.4-5,2
								c-4.5,1.6-9.2,2.8-13.9,3.6c-2.2,0.4-4.4,0.6-6.6,0.8c-3.4,0.2-6.7,0.3-10.1,0.1c-2.1-0.1-4.2-0.3-6.2-0.6
								c-3.9-0.5-7.8-1.4-11.6-2.5c-1.9-0.6-3.8-1.2-5.7-1.9c-4.7-1.8-9.3-4.2-13.7-6.9c-1.7-1.1-3.3-2.2-4.9-3.4
								c-2.4-1.8-4.7-3.8-6.9-5.9L3832.4,756.6z"/>
							<path class="st15" d="M3849.4,813.9c-0.2,2.1-0.5,4.3-1,6.4c-0.1,0-0.2,0-0.3,0.1c-1.2,0.3-2.6,1.1-3.5,0.2
								c-0.3-0.3-0.4-0.6-0.7-0.9c-0.5-0.4-1.1-0.4-1.7-0.4c-2.1,0-4.1,0-6.2,0c0.1,0,0.2,0,0.3,0l-1.3-4.8c0.5-1,1.7-1.4,2.8-1.3
								c1.1,0.1,2.1,0.7,3.1,1.2c1,0.5,2.1,0.9,3.2,0.8c0.9-0.1,1.7-0.6,2.5-0.9C3847.5,813.9,3848.5,813.8,3849.4,813.9z"/>
							<path class="st15" d="M3782.8,871.2c0.2,1.1-0.1,2.2-0.3,3.3c-0.2,1.1-0.3,2.2,0.1,3.2c0.4,0.8,1,1.4,1.5,2.2
								c0.4,0.6,0.7,1.2,0.9,1.9c-2.2,0.4-4.4,0.6-6.6,0.8c-0.6-1-1.4-2-0.9-2.9c0.2-0.3,0.5-0.6,0.6-0.9c0.3-0.5,0.1-1.2,0-1.8
								c-0.6-2-1.1-4-1.7-6c0,0.1,0.1,0.2,0.1,0.3l4.3-2.5C3781.9,869,3782.6,870.1,3782.8,871.2z"/>
							<path class="st15" d="M3768.1,870.2c0,1.1-0.5,2.1-0.9,3.2c-0.4,1-0.7,2.1-0.5,3.2c0.2,0.9,0.7,1.6,1.1,2.4
								c0.5,1.1,0.7,2.5,0.4,3.7c-2.1-0.1-4.2-0.3-6.2-0.6c0-0.3-0.1-0.7-0.2-1c-0.4-1.2-1.3-2.5-0.5-3.5c0.2-0.3,0.6-0.5,0.8-0.8
								c0.4-0.5,0.3-1.2,0.3-1.8c-0.2-2.1-0.4-4.1-0.6-6.2c0,0.1,0,0.2,0.1,0.3l4.7-1.7C3767.6,867.9,3768.1,869.1,3768.1,870.2z"/>
							<path class="st15" d="M3752.9,868.9c-0.2,1.1-0.9,2-1.5,2.9c-0.6,0.9-1.1,2-1.1,3.1c0,1.2,0.4,2.3,0.3,3.6
								c0,0.4-0.1,0.7-0.1,1.1c-1.9-0.6-3.8-1.2-5.7-1.9c0-0.9-0.1-1.9,0.2-2.7c0.2-0.7,0.8-1.2,1.1-1.8c0.5-1,0.4-2.1,0.5-3.1
								c0.1-1.2,0.3-2.4,0.4-3.6c0,0.1,0,0.2,0,0.3l4.9-0.7C3752.9,866.6,3753.2,867.8,3752.9,868.9z"/>
							<path class="st15" d="M3844.5,834c-0.8,1.9-1.6,3.9-2.5,5.7c-1.8-0.7-4-0.8-5.7-1.9c-0.8-0.5-1.4-1.2-2.1-1.7
								c-0.8-0.5-1.7-0.8-2.6-0.4l2.3-7.4c0.8-0.5,1.9-0.1,2.5,0.5c0.7,0.6,1.1,1.5,1.5,2.3c0.4,0.8,1,1.6,1.8,2
								c1.4,0.6,3.2-0.1,4.5,0.6C3844.3,833.9,3844.4,834,3844.5,834z"/>
							<path class="st15" d="M3736.7,860.6c0.2,0.6-0.4,1-0.9,1.3c-2.3,1.8-2.1,5.4-3.9,7.8c-0.2,0.3-0.5,0.6-0.8,0.9
								c-1.7-1.1-3.3-2.2-4.9-3.4c0.5-0.3,1-0.7,1.3-1.3c0.7-1.4,0.1-3.2,0.9-4.5c0.6-0.9,1.7-1.2,2.6-1.7c0.9-0.5,1.9-1.3,1.8-2.3
								c1.1,0.8,2.3,1.6,3.4,2.5C3736.4,860.2,3736.6,860.3,3736.7,860.6z"/>
							<path class="st15" d="M3801.1,865.2c0.1,0.9-0.2,1.8-0.3,2.8c-0.2,0.9-0.3,1.9,0.1,2.7c0.7,1.4,2.5,1.9,3.1,3.4
								c0.3,0.7,0.2,1.4,0,2.2c-1.6,0.7-3.3,1.4-5,2c-0.8-2.1-3-3.9-3.7-6.1c-0.3-0.9-0.3-1.8-0.6-2.6c-0.3-0.9-0.8-1.7-1.7-2
								l6.5-4.3C3800.4,863.3,3801,864.3,3801.1,865.2z"/>
							<path class="st15" d="M3830.3,848.4c0.6,0.7,0.8,1.6,1.1,2.4c0.4,1,1,1.9,1.8,2.7c-1.2,1.5-2.5,3-3.8,4.5
								c-0.7-0.6-1.5-1.1-2-1.8c-0.6-0.7-1-1.6-1.5-2.4c-1-1.6-2.4-2.9-4-3.7l3.4-5.1c0.1,1.1,1.2,1.7,2.2,2.1
								C3828.5,847.3,3829.6,847.6,3830.3,848.4z"/>
							<path class="st15" d="M3815.2,861.4c0.6,0.4,1.4,0.6,1.9,1.1c0.7,0.7,0.7,1.8,0.9,2.7c0.2,0.8,0.5,1.5,1,2.1
								c-1.6,1.2-3.2,2.3-4.9,3.4c-0.3-0.8-0.4-1.6-0.5-2.4c-0.1-0.9,0-1.9-0.4-2.8c-0.5-1.1-1.7-1.8-2.7-2.6
								c-0.9-0.8-1.7-2.2-1.2-3.3l3.5-2.7C3813.2,858.7,3813.7,860.5,3815.2,861.4z"/>
							<path class="st15" d="M3840.1,767.9c0.9,1.5,1.7,3.1,2.4,4.7c-0.3,0.3-0.6,0.5-1,0.7c-1.9,1.2-4.2,1.1-6.3,1.4
								c-1.7,0.3-3.5,0.8-5,1.6c-1.3,0.6-2.6,2.2-3.9,2.7c-1.7,0.6-1.6,0.1-2.3-1.4c-0.3-0.6-1-4.6-1.5-4.7c1.6,0.4,3.4-0.1,5-0.8
								c1.5-0.7,3-1.6,4.7-2.1c2-0.5,4.3-0.3,6.2-1.1C3839,768.7,3839.6,768.3,3840.1,767.9z"/>
							<path class="st15" d="M3846.1,781.9c0.6,1.7,1.1,3.4,1.6,5.1c-1.7,0.5-3.6,0.3-5.3,0.4c-1.8,0.1-3.5,0.5-5.2,1.1
								c-1.4,0.5-2.8,1.9-4.2,2.3c-1.7,0.4-1.6,0-2.1-1.7c-0.2-0.6-0.5-4.7-1-4.8c1.6,0.6,3.4,0.3,5-0.3c1.6-0.6,3.2-1.3,4.9-1.6
								C3841.8,782,3844,782.5,3846.1,781.9C3846.1,781.9,3846.1,781.9,3846.1,781.9z"/>
							<path class="st15" d="M3849.3,795.6c0.3,1.9,0.4,3.8,0.5,5.8c-0.5,0.1-1,0.2-1.4,0.3c-1.7,0.4-3.3,1-5,1.1
								c-2.1,0.1-4.2-0.6-6.3-0.1c-1.5,0.3-2.8,1.2-4.2,1.9c-0.5,0.3-1.1,0.5-1.7,0.4c-1-0.3-1.3-1.6-1.2-2.7
								c0.1-1.1,0.4-2.3-0.3-3.1c0.8,0.4,1.8,0.3,2.7-0.1c0.8-0.4,1.6-0.9,2.5-1.2c2-0.8,4.3-0.3,6.5-0.2c1.8,0.1,3.5-0.1,5.2-0.6
								C3847.4,796.6,3848.3,796.1,3849.3,795.6z"/>
							<path class="st3" d="M3825.5,762.9c22.3,27.6,19.7,68.1-6.7,92.5c-26.4,24.5-67,24-92.8-0.3l2-1.8l95.5-88.5L3825.5,762.9z"
								/>
							<path class="st5" d="M3823.6,764.7l0.1,0.1c10.2,12.8,15.3,28.9,14.1,45.2c-1.1,16.5-8.4,31.8-20.4,43.1l-0.3,0.3
								c-12.2,11.3-28,17.5-44.6,17.4c-16.5-0.1-32.2-6.3-44.3-17.5l-0.1-0.1L3823.6,764.7z"/>
							<path class="st16" d="M3822,766.2c8,10,12.5,21.9,13.6,34c1.6,18.7-5.1,37.9-20,51.7c-24.4,22.6-61.9,22.3-85.9-0.1l1.7-1.6
								L3822,766.2z"/>
						</g>
						<path class="st17" d="M3808.8,812.3c0.2,1.4-0.5,1.9-1.4,2c-0.9,0.1-1.7-0.2-1.9-1.5c-0.2-1.4,1.3-3.4,1.3-3.4
							S3808.6,810.9,3808.8,812.3z"/>
						<path class="st17" d="M3825.5,815.1c0.2,1.4-0.5,1.9-1.4,2c-0.9,0.1-1.7-0.2-1.9-1.5c-0.2-1.4,1.3-3.4,1.3-3.4
							S3825.3,813.7,3825.5,815.1z"/>
						<path class="st17" d="M3768.9,826.3c0.2,1.4-0.5,1.9-1.4,2c-0.9,0.1-1.7-0.2-1.9-1.5c-0.2-1.4,1.3-3.4,1.3-3.4
							S3768.7,824.9,3768.9,826.3z"/>
						<path class="st16" d="M3790.8,827.4c0.8,1.1,0.4,1.9-0.4,2.4c-0.8,0.5-1.6,0.6-2.4-0.5c-0.8-1.1-0.4-3.6-0.4-3.6
							S3790,826.2,3790.8,827.4z"/>
						<path class="st17" d="M3794.4,850.2c0.8,1.1,0.4,1.9-0.4,2.4s-1.6,0.6-2.4-0.5c-0.8-1.1-0.4-3.6-0.4-3.6
							S3793.7,849.1,3794.4,850.2z"/>
						<path class="st17" d="M3821.6,782.8c1.3,0.5,1.4,1.3,1.1,2.2s-1,1.5-2.3,1c-1.3-0.5-2.4-2.8-2.4-2.8
							S3820.3,782.3,3821.6,782.8z"/>
						<path class="st17" d="M3793.3,803.3c1.3,0.5,1.4,1.3,1.1,2.1c-0.3,0.9-0.9,1.5-2.2,1c-1.3-0.5-2.5-2.7-2.5-2.7
							S3792,802.9,3793.3,803.3z"/>
						<path class="st17" d="M3749.4,848.5c1.3,0.5,1.4,1.3,1.1,2.2c-0.3,0.9-1,1.5-2.3,1c-1.3-0.5-2.4-2.8-2.4-2.8
							S3748.1,848,3749.4,848.5z"/>
						<path class="st17" d="M3772.8,846.4c1.2,0.6,1.3,1.4,0.9,2.3c-0.4,0.8-1.1,1.3-2.4,0.7c-1.2-0.6-2.1-3-2.1-3
							S3771.6,845.7,3772.8,846.4z"/>
						<path class="st17" d="M3813.7,837.7c1,0.9,0.9,1.7,0.3,2.4s-1.4,1-2.5,0.1c-1-0.9-1.3-3.4-1.3-3.4S3812.7,836.8,3813.7,837.7z
							"/>
					</g>
					<g>
						<path class="st18" d="M3858.6,792c0,0-16.4,17.4-23.6,80.5l7.8,10.1l6-3.7l31.9-63.8l1.1-13.9L3858.6,792z"/>
						<g>
							<path class="st14" d="M3866.9,798.3c0.3-0.5,0.5-1.1,0.7-1.6l0,0c4.8-11.6-4.1-32.2-13.1-40.8l0,0l4.2-4.2
								c10.1,10.3,20.1,31.3,14.4,47.1l0,0c-0.3,0.7-0.6,1.5-0.9,2.2l0,0L3866.9,798.3L3866.9,798.3z"/>
						</g>
						<g>
							<g>
								<path class="st14" d="M3876.2,799.1c2.7-6.8,9.1-13.2,16.5-17.9l0,0c7.4-4.7,15.9-7.9,23.4-7l0,0l-0.7,5.9
									c-5.2-0.7-12.8,1.9-19.5,6.1l0,0c-6.7,4.2-12.3,10.2-14.1,15l0,0c0,0,0,0.1-0.1,0.2l0,0l0,0l-5.6-2
									C3876.1,799.4,3876.2,799.2,3876.2,799.1L3876.2,799.1z"/>
							</g>
							<g>
								<path class="st14" d="M3875.8,794c5.2-13.3,18.6-26.6,28.5-31.4l0,0l0,0l2.6,5.3c-8.1,3.8-21.3,17-25.5,28.3l0,0
									c-1.1,2.8-1.6,5.4-1.5,7.6l0,0l-5.9,0.2C3873.8,800.7,3874.5,797.3,3875.8,794L3875.8,794z"/>
							</g>
							<g>
								<path class="st14" d="M3877,796.5c0.5-3.6,1.5-7.4,3-11.2c4.3-11.4,12.1-23,17.7-30l-4.7-3.7c-5.8,7.4-13.8,19.3-18.5,31.6
									c-1.4,3.7-2.5,7.5-3.1,11.2C3873.3,794.9,3875.2,795.6,3877,796.5z"/>
							</g>
						</g>
						<g>
							<path class="st14" d="M3872.2,751.3l5.6-2c4.8,14.3-1.5,31.7-3.8,44.4l0,0l-5.8-1.1C3870.7,779.3,3876.2,762.4,3872.2,751.3
								L3872.2,751.3z"/>
						</g>
						<g>
							<path class="st13" d="M3879.4,785.6c-9-3.5-19,0.3-26.6,15.3c0.6-1.2,1.2-2.4,1.9-3.4c7.1,2.8,13.8,6.2,19.7,11.5
								c-5.5-2-14.2-6.5-21.6-8c-1,2-2,4.1-2.9,6.5c0.4-0.9,0.7-1.8,1.1-2.6c7.2,2.8,14,6.3,20.1,11.6c-5.5-2-14.2-6.4-21.5-8
								c-0.5,1.2-0.9,2.6-1.4,4.1c7.1,2.8,13.7,6.2,19.6,11.4c-5.3-1.9-13.6-6.1-20.7-7.8c-0.7,2.3-1.5,4.9-2.2,7.5
								c0.3-1.1,0.6-2.2,0.9-3.3c6.7,2.7,13,6.1,18.6,11c-5-1.9-12.7-5.7-19.6-7.5c-0.4,1.4-0.8,2.9-1.2,4.5
								c6.3,2.6,12.2,5.9,17.5,10.6c-4.7-1.7-11.8-5.2-18.4-7.2c0.2-1,0.5-1.9,0.7-2.8c-0.6,2.4-1.3,5-1.9,7.5
								c5.8,2.5,11.2,5.6,16.2,10c-4.3-1.6-10.8-4.7-16.9-6.7c-5.6,24.6-9.5,52.2-2.8,54.8c10.2,3.9,41.2-52.4,49-72.9
								C3894.7,801.1,3889.7,789.5,3879.4,785.6z M3835,872.5c0.1-0.8,0.2-1.7,0.3-2.5c3.1,1.8,6.2,3.9,9,6.4
								C3841.7,875.4,3838.5,873.9,3835,872.5z M3836.1,864.1c0.1-0.9,0.3-1.8,0.4-2.8c3.9,2.1,7.7,4.5,11.1,7.6
								C3844.5,867.7,3840.4,865.8,3836.1,864.1z M3837.4,855.8c0.2-1,0.4-2,0.6-3c4.6,2.3,9,4.9,13,8.5
								C3847.4,860,3842.5,857.7,3837.4,855.8z M3839,847.7c0.2-1.1,0.5-2.1,0.7-3.1c5.2,2.4,10.1,5.3,14.6,9.3
								C3850.4,852.4,3844.7,849.7,3839,847.7z"/>
						</g>
					</g>
					<g>
						<path class="st14" d="M3656.6,824.2c0.3-0.1,4.7,2.8,5.3,3c2,0.9,4.1,1.5,6.2,2c4.2,0.9,8.7,0.9,12.9-0.1
							c3.3-0.7,10.5-2.7,4.3-5.3c-4.2-1.8-8.8-2.7-13.4-2.8C3666.7,820.9,3661.4,822,3656.6,824.2z"/>
						<path class="st14" d="M3690.2,824.8c-3.4-6.9-13.6-13.4-20.8-15.2c-1.1,2-2.1,4.3-2.8,6.5c8.5-1.3,18.3,2.9,22,11
							L3690.2,824.8z"/>
						<path class="st19" d="M3732.3,830c6.9,15.4,2.8,40.7-14,48.3c-12.1,5.4-31.2-2.8-40.8-12.2c-9.2-9-14.9-24.9-3.5-34.5
							c4.1-3.5,9.5-5.1,14.2-7.7c3.9-2.2,7.3-5.1,11.3-7C3712.7,810.6,3726.5,817.1,3732.3,830z"/>
						<path class="st20" d="M3674.5,851.5c2.3,7,8.9,12.1,16.1,13.7c0.9,0.2,1.9,0.3,2.5-0.3c0.9-0.8,0.4-2.2-0.2-3.2
							c-2.7-4.1-7.8-6.1-11.1-9.8c-5.4-6.1-4.1-13.7-1.3-18.5C3674.4,836.6,3672.6,845.5,3674.5,851.5z"/>
					</g>
					<g>
						<path class="st3" d="M3718.6,801.3c4.8-4.5,14.2-4.8,19.9-3.9c6.9,1.1,13.5,3.9,19.8,6.8c6.4,3,12.5,6.3,17.9,10.8
							c5.3,4.4,4.3,8.1-0.5,13c-2.9,3-6.4,5.2-9.7,7.8c-6.9,5.4-12.7,12-17.1,19.5c-1.5,2.5-2.8,5.1-5,7c-2.2,1.8-5.6,2.7-8,1.1
							c-3.4-2.3-2.7-7.4-2.3-11.5c1-9.5-1.9-19.4-7.9-26.8c-2.1-2.6-4.6-4.9-6.6-7.6c-2-2.7-3.6-5.9-3.5-9.3
							C3715.6,805.2,3716.8,803,3718.6,801.3z"/>
						<g>
							<path class="st21" d="M3751.2,871.9l-27.6-6.9c6.1-9.2,5.4-36.3-9.5-51.5c1.7-1,3-2.2,4.1-3.7c6.2,6.9,13.9,17.8,14.7,26.1
								c1-7.3,2.4-18.4,2.8-25.5c1.4,0.7,2.8,1.3,4.4,1.7c1.2,0.3,2.4,0.4,3.6,0.5c2.6,10.3,0.8,26.2-2,35.5c0.2-0.5,0.6-1,0.9-1.5
								c5.2-9.1,17.7-20.1,28.3-22.7l1.1,2.2c0.5,2.8,1,2.8,2.7,5.3C3763.4,840.1,3752.9,857.7,3751.2,871.9z"/>
							<path class="st22" d="M3793.8,839.4c-5.5,4.3-14.4,2.3-19.8-4.7c-2.1-2.6-3.3-5.6-3.8-8.5c-1.6-0.5-3.1-1.1-4.7-1.9
								c-6-2.9-10.5-7.5-13.2-12.5c-0.4,0.4-0.9,0.6-1.4,0.9c-2.8,1.8-6.7,2.4-10.9,1.4c-5.1-1.3-8.9-4.6-10-8.3
								c-1.2,0.5-2.5,0.9-3.8,1.1c-2.1,0.4-4.1,0.4-6.1,0.2c-0.5,4.4-5.1,8.2-11.1,8.8c-6.7,0.7-12.5-2.8-13-7.8
								c-0.5-4.9,4.3-9.3,10.7-10.2c-0.2-0.6-0.4-1.1-0.5-1.7c-1.4-7.7,5.3-15.4,14.9-17.2c0.6-0.1,1.1-0.1,1.6-0.2l0-0.5
								c2.1-8.6,13.7-13.1,25.8-10.1c4.7,1.2,8.8,3.3,11.9,6c3.1,2.7,5.2,5.9,6,9.2c5.6-0.9,11.9,0,17.8,2.9
								c13,6.4,19.3,20.1,14.1,30.6c-0.8,1.6-1.8,2.9-2.9,4.1C3799.3,827.7,3798.8,835.5,3793.8,839.4z"/>
						</g>
						<path class="st21" d="M3711.2,798l-0.6-0.9c-2-3.8,0.2-9,5-11.6c0.6-0.3,1.2-0.6,1.8-0.8c-4.7,2.8-6.7,8.5-4.3,12.9l0.7,1
							c0.6,0.8,1.2,1.5,2,2C3713.8,800.3,3712.3,799.4,3711.2,798z M3726.9,790.2c-1.8-3.4-1.4-7.6,0.8-11.3c1.5-2.6,3.9-5,6.9-6.7
							c0.9-0.5,1.8-0.9,2.7-1.2c-3.4,2-5.8,5.1-7.1,8.4c-1.5,3.8-1.4,7.9,0.5,11.6c1,1.9,2.5,3.4,4.2,4.6
							C3731.4,795,3728.4,793.1,3726.9,790.2z M3734.1,807.4c-0.6-1-0.8-2-0.8-3.1c0-2.3,1.3-4.7,3.5-6.2l0.9-0.6
							c0.5-0.2,1-0.4,1.5-0.6c-0.7,0.4-1.2,0.9-1.8,1.4c-1.3,1.3-2,2.9-2.2,4.7c-0.2,1.6,0.1,3.3,1,4.9c0.6,1.1,1.5,2,2.4,2.7
							C3736.8,810.2,3735.1,809.1,3734.1,807.4z M3759.1,802.1c-1.2,2.5-1.8,5.2-1.7,7.8c-1.6-3.6-1.9-7.4-0.7-10.9
							c0.2-0.5,0.3-1,0.5-1.4c1.7-3.5,5-5.9,8.9-7c4.6-1.3,10.1-0.9,15.3,1.6c1.2,0.6,2.2,1.2,3.2,1.9
							C3774.8,789.6,3763.6,793.1,3759.1,802.1z M3777.5,818.9c-0.9,0.9-1.6,1.9-2.1,3c0-2,0.7-3.9,2.1-5.2
							c2.8-2.7,7.5-2.1,10.4,1.2c0.4,0.4,0.7,0.8,0.9,1.3C3785.8,816,3780.8,815.8,3777.5,818.9z"/>
					</g>
					<g>
						<rect x="3668.5" y="852.8" class="st23" width="167.1" height="188.4"/>
						<rect x="3835.6" y="852.8" class="st53" width="39.6" height="188.4"/>
						<rect x="3835.6" y="852.8" class="st54" width="19.8" height="188.4"/>
						<polygon class="st55" points="3875.2,1041.1 3835.6,1041.1 3855.4,1012.3 						"/>
						<polygon class="st24" points="3835.6,873.1 3835.6,873 3835.6,873.1 						"/>
						<polygon class="st24" points="3835.6,873.1 3835.6,873.1 3835.6,873.1 						"/>
						<g>
							<polygon class="st23" points="3675.9,845.6 3672,849.5 3668.5,853 3683.3,853 							"/>
							<polygon class="st23" points="3689.7,845.6 3682.3,853 3697.1,853 							"/>
							<polygon class="st23" points="3703.5,845.6 3696.2,853 3710.9,853 							"/>
							<polygon class="st23" points="3717.4,845.6 3710,853 3724.7,853 							"/>
							<polygon class="st23" points="3731.2,845.6 3723.8,853 3738.5,853 							"/>
							<polygon class="st23" points="3745,845.6 3737.6,853 3752.4,853 							"/>
							<polygon class="st23" points="3758.8,845.6 3751.5,853 3766.2,853 							"/>
							<polygon class="st23" points="3772.7,845.6 3765.3,853 3780,853 							"/>
							<polygon class="st23" points="3786.5,845.6 3779.1,853 3793.8,853 							"/>
							<polygon class="st23" points="3800.3,845.6 3792.9,853 3807.7,853 							"/>
							<polygon class="st23" points="3814.1,845.6 3806.8,853 3821.5,853 							"/>
							<polygon class="st23" points="3827.9,845.6 3820.6,853 3835.3,853 							"/>
							<polygon class="st23" points="3834.4,853 3835.6,853 3835.6,851.8 							"/>
							<polygon class="st54" points="3841.8,845.6 3835.6,851.8 3835.6,853 3849.1,853 							"/>
							<polygon class="st53" points="3855.6,845.6 3855.5,845.7 3855.5,853 3863,853 							"/>
							<polygon class="st54" points="3848.2,853 3855.5,853 3855.5,845.7 							"/>
							<polygon class="st53" points="3869.4,845.6 3862.1,853 3875.2,853 3875.2,851.5 							"/>
						</g>
					</g>
				</g>
			</g>
			<g>
				<path class="st27" d="M3940.5,710.2c-2.8,5.2-5.5,10.4-8.3,15.6c-0.5,0.9-0.9,1.9-0.5,2.8c0.3,0.7,1,1,1.6,1.4
					c2,1.1,4,2.1,6,3.2L3940.5,710.2z"/>
				<path class="st6" d="M3941.9,1507c5.1,6,0.9,16.6-5.9,20s-14.9,2-22.4,0.5c-23.7-4.8-48.1-9.8-69.6-22
					c-6.9-3.9-18.1-7.9-10.9-16.2c3-3.5,10.1-3.9,14.1-4.4c24.4-3.1,54.5,2.6,77.7,11L3941.9,1507z"/>
				<path class="st6" d="M4091.8,1476.1c-3.8,4.7-10.2,6.8-16.4,6.8c-6.1,0-12.1-1.8-17.9-3.6c-19.9-6.1-40.1-12.6-57.5-24.1
					c-3.7-2.4-7.6-6.7-5.7-10.6c1.5-3,5.5-3.6,8.9-3.7c20.3-0.6,40.6,2,60.1,7.4C4074.1,1451.3,4106.4,1458.1,4091.8,1476.1z"/>
				<path class="st5" d="M4034.5,745.8c-5.5,9.5-11.1,19.1-14.8,29.4s-5.5,21.7-3.3,32.4c0.4,2,0.9,4.1-0.1,5.9
					c-1.2,2.2-4.1,2.6-6.6,2.8c-11.2,0.9-30.4,1.8-41.6,2.7c-6.1-19.5-0.8-40.1,0.2-60.6L4034.5,745.8z"/>
				<g>
					<path class="st6" d="M3944.6,911.9c6-37.3,4.3-77.9-13.1-110.9c5.3-1.9,10.8-3.3,16.5-4.4c20.8,39.9,23.6,115.3,23.6,115.3
						H3944.6z"/>
					<path class="st15" d="M3944.6,911.9h-6.4H3944.6c-1.4,9-3.3,17.8-5.5,26.2c-5.3,20.3-15.6,39.3-29.9,54.7
						c-15.2,16.4-34.9,28.4-56.3,35c0.2-4.6,0.2-9.2,0.5-13.8c2.2-45.5,11.9-90.6,21.6-135.2c4.4-20.4,15.1-41.3,27.7-58
						c7.3-9.6,17.4-15.8,28.8-19.9C3949,834,3950.6,874.6,3944.6,911.9z"/>
					<path class="st15" d="M3971.6,911.9c0,0-2.8-75.4-23.6-115.3c19.5-3.6,40.8-3,58-2.3c8.6,0.4,17.6,2,26,5
						c-5,39.6-12.2,78.9-33.4,112.6H3971.6z"/>
					<path class="st6" d="M3998.7,911.9c21.2-33.7,28.4-73,33.4-112.6c6.1,2.1,11.8,5,16.9,8.5c-1.8,42.2-15.6,72.7-24.8,104.1
						H3998.7z"/>
					<path class="st4" d="M3853.3,1157.7c3.2,110.6,26.4,225.1,18.1,332.6c2.3,11.7,72.4,39.1,75.5,29.3
						c8-25.7,16.2-301.5,16.5-354.8c17.1,29.5,56.5,259.5,54.1,288.4c28.8,22.2,80.2,21.4,80.2,14.6c0-134.6-42.2-286.5-63-374.3
						c-4.6-19.6-8.2-36-10-48.3c-0.7-4.7-1.2-8.9-1.3-12.3c-0.3-7.8,0.1-15.8,0.9-23.8c-4.8-13.4-7.6-27.5-8.2-41.7
						c-0.8-20.3,2.9-38.1,7.9-55.4h-79.5c-1.5,9-3.3,17.8-5.5,26.2c-5.3,20.3-15.6,39.4-29.9,54.7c-15.2,16.4-34.9,28.4-56.3,35
						C3851.4,1071.3,3852.1,1114.5,3853.3,1157.7z"/>
					<path class="st15" d="M4024.1,911.9h5.2H4024.1c9.2-31.4,23-61.9,24.8-104.1c9.3,6.4,16.5,15.1,19.2,26.2
						c3.8,15.3-1.6,31.2-6.6,46.2c-13.4,39.8-32.6,85.7-37.1,129c-4.8-13.4-7.6-27.5-8.2-41.8C4015.4,947.1,4019,929.4,4024.1,911.9
						z"/>
				</g>
				<g>
					<path class="st6" d="M3944.6,911.9c6-37.3,4.3-77.9-13.1-110.9c5.3-1.9,10.8-3.3,16.5-4.4c20.8,39.9,23.6,115.3,23.6,115.3
						H3944.6z"/>
					<path class="st14" d="M3853.4,1014.1c2.2-45.5,11.9-90.6,21.6-135.2c2.5-11.5,7-23.2,12.7-34.2c-6.8,47.1-18.5,97-18.5,143
						c-1,11.6-1.7,23.2-2,34.8c-4.6,2-9.4,3.8-14.2,5.3C3853.1,1023.3,3853.2,1018.7,3853.4,1014.1z"/>
					<path class="st6" d="M3998.7,911.9c21.2-33.7,28.4-73,33.4-112.6c6.1,2.1,11.8,5,16.9,8.5c-1.8,42.2-15.6,72.7-24.8,104.1
						H3998.7z"/>
					<path class="st56" d="M4017.5,1453.2c1.9-23.4-23.5-178.3-42.4-252.3c35.6,80.5,46.4,169,49.4,257
						C4022.1,1456.5,4019.8,1455,4017.5,1453.2z"/>
					<path class="st56" d="M3852.9,1027.9c4.8-1.5,9.6-3.3,14.2-5.3c-5.4,158.4,40.3,319.9,11,475.1c-3.9-2.7-6.4-5.3-6.8-7.3
						c8.3-107.5-14.9-222-18.1-332.6C3852.1,1114.5,3851.4,1071.3,3852.9,1027.9z"/>
				</g>
				<path class="st5" d="M3941.7,701.2c-4,16.2-4.6,33.1-1.7,47c2.5,11.6,8.5,23.9,19.7,27.6c6.2,2.1,13,1.1,19.4-0.2
					c20.9-4.2,41.8-12,57.2-26.7c16.7-15.8,28.8-49.3,19.5-71.6c-8-19.1-19.4-28.7-41.1-34.1
					C3975.4,633.5,3950.5,665.7,3941.7,701.2z"/>
				<path class="st6" d="M4052.1,724.1c-5.1,15.3-13.6,29.4-24.7,41c-3.4,3.6-7.3,7.1-12,8.4c-5.3,1.5-11,0.3-16.1-1.7
					c-6.6-2.5-12.9-6.2-17.6-11.5c-2.3-2.6-4.3-5.6-5.6-8.8c-0.9-2-3.3-7.5-1.4-9.4c0.5-0.5,1.1-0.8,1.6-1.1
					c1.5-0.8,2.8-1.8,3.9-3.1c1-1.3,1.7-2.9,1.6-4.6c-0.1-2.1-1.7-4.5-4-4c-1.2,0.3-2.2,1.1-3.2,1.9c-0.7,0.6-1.3,1.3-2.2,1.5
					c-0.9,0.2-2-0.2-2.1-1.1c-0.1-0.9,0.9-2.3,1.2-3.2c0.4-1.4,0.7-2.8,0.9-4.3c0.5-2.8,0.6-5.7-0.1-8.5c-2.4-9.6-13.6-9.6-21.6-9.8
					c-5.9-0.2-12.3,0.1-17.1-3.4c-3.7-2.7-5.8-7.1-6.6-11.7c-0.7-4.5-0.3-9.2,0.2-13.7c-1.6-1.8-0.1,0.2,2.2-0.4
					c2.3-0.6,4.8,0.4,7,1.3c31.2,12.8,66.5,13,97.7,26c5.7,2.3,11.4,5.3,15,10.3C4050.9,717.2,4053.2,720.8,4052.1,724.1z"/>
				<path class="st5" d="M3728.4,984.4c-10.7-7.3-23.9-5.3-35.9-3.7c-7.8,1-16.5,0.9-22.3-4.4c-6.6-6-6.8-16-6.5-24.9
					c0-0.7,0.1-1.4,0.6-1.9c0.6-0.6,1.6-0.5,2.4-0.3c7.7,1.6,15.3,3.2,23,4.8c-3.1-3.5-5.4-7.5-6.9-11.9
					c11.9,2.2,20.5,7.6,29.6,15.1c6.2,5.1,12,6.8,20,6.2L3728.4,984.4z"/>
				<path class="st15" d="M3717.1,987.6c37.6,4,85.4,21.2,118.2,2.8c27-15.1,42.7-27.8,68.3-67.8c8.3-12.9,16.3-26,24.1-39.2
					c6.2-10.5,13.4-23.2,14.3-35.6c0.7-10.3-3.1-21.2-11.4-27.3c-11-8.1-23.6-4-31.2,6c-9.1,12.3-17.9,24.8-26.3,37.6
					c-16.4,24.9-33.9,74.1-58.7,85.2c-28.5,12.7-68.5,7.7-97.3,8.5C3716.2,976.5,3718.2,968.7,3717.1,987.6z"/>
				<g>
					<path class="st34" d="M3916.7,658.4c2.4-2.6,6.4-3.1,10-3.1c11.7-0.2,23.4,1.9,34.4,6c-6.9,8.1-12.3,18.2-16.1,28.9
						c-2.6-1.2-5.2-2.2-7.8-3.4c-8.1-3.7-16.6-8.1-20.8-15.9C3914.3,667,3913.7,661.7,3916.7,658.4z"/>
					<path class="st16" d="M3961.1,661.3c12.8-15.1,30.8-23.7,53.7-18c21.7,5.4,33.1,15,41.1,34.1c6.6,15.9,2.4,37.5-6.7,54.3
						c-35.1-12.9-70.1-26.1-104.2-41.4C3948.8,679.4,3954.2,669.4,3961.1,661.3z"/>
					<path class="st57" d="M3961.1,661.3c6.3-7.4,13.8-13.3,22.6-16.6c-15.6,12.5-19.7,34.6-17.6,54.6c-7-3-14.1-5.9-21-9.1
						C3948.8,679.4,3954.2,669.4,3961.1,661.3z"/>
				</g>
				<path class="st8" d="M3879.1,1049c16.8-0.1,33.5-0.3,50.3-0.4c1.1,13.2-0.1,26.6-3.9,39.3c-1.9,6.2-4.5,12.5-9.6,16.4
					c-7.6,5.8-19.2,4.5-26.7-1.5c-7.5-6-11.3-15.7-12.3-25.2C3875.9,1068.1,3877.5,1058.5,3879.1,1049z"/>
				<path class="st8" d="M3989.8,1074.2c1,9.6,4.7,19.2,12.3,25.2c7.5,6,19.1,7.3,26.7,1.5c2.5-1.9,4.5-4.5,6-7.3
					c-4.6-19.6-8.2-36-10-48.3c-10.9,0.1-21.8,0.2-32.7,0.3C3990.4,1055,3988.9,1064.6,3989.8,1074.2z"/>
				<path class="st8" d="M3949.8,720.8c2.9,2.4,6.3,4.3,10,5.4c1.5,0.4,2.7,1.2,4.2,1.5c1.5,0.3,3.3,0.2,4.5,1.4
					c0.7,0.6,1,1.6,1.3,2.4c2.1,7.2,1.3,14.9-1,22c-2.3,7.1-6.2,13.6-10.2,19.8c-0.7,1-1.4,2.1-2.4,2.7c-2.9,1.8-6.2-2.2-8.1-4.1
					c-2.7-2.6-5-5.5-7.1-8.6c-4.1-6.2-7.4-13.2-9.3-20.4c-2.1-7.7-1.9-16.4,1.7-23.7c1.5-3,3.7-7.6,7.5-6.4
					C3944.5,714.1,3946.9,718.4,3949.8,720.8z"/>
				<g>
					<polygon class="st8" points="3967.1,732.1 3967.1,729.9 3976.7,729.8 3974.1,731.8 					"/>
				</g>
				<g>
					<path class="st58" d="M3965,731.7c-6.3,0.3-12.7-1.2-18.3-4.2"/>
					<path class="st58" d="M3947,738.5c6.2,0.2,12.5-1.2,17.9-4.2"/>
					<path class="st58" d="M3955.3,745.4c4.5-1.4,8.6-4.4,11.4-8.2"/>
				</g>
			</g>
		</g>
		<g>
			<g>
				<path class="st27" d="M2039.5,702.2c4.3,1.7,8.3,4.8,10,9.1c1.4,3.5,1.2,7.4,0.8,11.1c-0.1,1-0.3,2.1-1,2.8
					c-1.2,1-3,0.5-4.4-0.2c-8.8-4.2-16.6-10.7-26-13.2c-1.4-0.4-3.1-0.9-3.3-2.3c-0.2-1.1,0.6-2,1.3-2.8c2.2-2.4,6-7.3,9.6-7.2
					C2030.7,699.7,2035.5,700.7,2039.5,702.2z"/>
				<g>
					<path class="st59" d="M1935.6,547.3c7.3,11,10,24.4,13.3,37.2c6.3,24.7,14.6,49.4,29.7,70c14.5,19.7,39.5,31.3,51.4,42.2
						c-4.8,8.3-9.1,13.6-17.2,18.7c-61.3-27.7-98.2-83.4-107.3-145.2c-1.5-10.3-2.3-24.9,4.8-33.6
						C1918.5,526.6,1930.1,539,1935.6,547.3z"/>
					<path class="st59" d="M1916.8,536.3c4.3,1,8,3.5,11,6.7c3.6,3.8,6.3,8.5,8.5,13.2c3.4,7,5.6,14.5,7.9,21.9
						c1.1,3.7,2.2,7.5,3.5,11.2c1.2,3.6,2.7,7.2,4.1,10.8c1.9,4.9,4,9.8,6.3,14.5c-3.6-9.8-6.5-19.9-9.1-30
						c-3.3-12.8-6-26.1-13.3-37.2c-5.3-8.1-16.4-19.9-24.5-11.5C1913,535.7,1914.9,535.8,1916.8,536.3z"/>
					<path class="st59" d="M2005.3,702.4c-14-8.2-26.6-18.6-37.8-30.3c-11.1-11.5-21-24.2-29.6-37.7c-4.1-6.4-7.7-13-11.2-19.7
						c-4-7.9-8-16-11.4-24.2c-5.7-13.8-10.3-29-9.6-44.1c-1.9,7.8-1.3,16.8-0.2,23.8c9,61.8,46,117.5,107.3,145.2
						c2.8-1.8,5.2-3.6,7.3-5.6C2015,707.7,2010.1,705.2,2005.3,702.4z"/>
				</g>
				<path class="st6" d="M1790.9,979c-1.5,7.1,2,15,8.3,18.7c1.1,0.6,2.3,1.2,2.9,2.3c0.7,1.4,0.1,3.3-1.2,4.3
					c-1.2,1-2.9,1.4-4.5,1.6c-9.1,1-18.1-3.5-24.6-9.9c-6.5-6.4-11-14.6-15.4-22.6c-2.1-3.9-4.2-8.3-2.9-12.4c1.2-3.6,4.8-6,8.5-6.7
					c3.7-0.7,7.6-0.2,11.3,0.4L1790.9,979z"/>
				<path class="st6" d="M2022.3,966.4c-1,4.1-2.1,8.4-1.5,12.6c0.6,4.2,3.3,8.4,7.4,9.6c2.4,0.7,5,0.2,7.5-0.3
					c9.2-1.9,18.2-4.1,27.3-6.6c9-2.5,18.7-4.7,26.7-9.7c1.6-1,3.1-2.1,4.2-3.6s1.5-3.6,0.7-5.3c-0.8-1.6-2.6-2.6-4.3-2.9
					c-1.8-0.3-3.6,0-5.4,0.2c-7.7,1-16.9,1.4-24.4-0.7c-1.9-0.5-16.7-9.8-13.7-12.1C2046.7,947.8,2022.3,966.4,2022.3,966.4z"/>
				<g>
					<line class="st60" x1="2032.4" y1="721" x2="2166.9" y2="933.2"/>
					<line class="st60" x1="2151.8" y1="909.5" x2="2228" y2="861.2"/>
				</g>
				<path class="st5" d="M2013.5,703.7c9,0,18.4,0.4,26.3,4.6c8,4.2,14.1,13.2,12,22c-0.2,1-0.6,2-1.3,2.7c-2.3,2.1-5.8-0.1-8.9,0.1
					c-3.9,0.2-7.4,4.4-10.9,2.9c-4-1.7-3-8.3-6.4-10.9c-1.8-1.4-4.3-1.2-6.5-1.3c-9.5-0.5-18.3-7.4-21.1-16.5L2013.5,703.7z"/>
				<path class="st4" d="M2032.4,811.6c-8.1-32.8-36.2-54.1-57.9-79.7c-21.6-25.4-47.3-51.1-58.8-83.1l-83.1,39.2
					c-24.4,45.9,4.6,116.7-10.4,166.5c-8.6,28.6-38.2,55.6-57.4,82.8c-3,4.3-7.8,10.2-12.7,16.7c0.2,0.2,0.3,0.5,0.5,0.7
					c3.5,4.6,7.8,8.7,12.2,12.3c4.3,3.5,8.9,6.7,13.6,9.6c1.9,1.2,3.9,2.3,5.9,3.3c3.2,1.5,6.5,2.7,9.9,3.7c1.3,0.4,2.7,0.7,4.1,1.1
					c18-20.9,37.1-49.1,45.7-63.7c29.4-49.9,51.5-101.2,55.3-159.7c20.6,12.7,70.4,35.3,86.8,65.9c21.2,39.4,25.8,143.3,29.1,144.6
					c15.8,6.6,42.4-7.1,42.4-17C2057.7,905.6,2033.2,814.7,2032.4,811.6z"/>
				<path class="st15" d="M1949.6,569.3c-0.9,7.5-2,15-3.2,22.4c-2.4,15.4-5.2,30.8-8,46.2c-1.3,7.2-1.7,14-2.2,21
					c-0.2,2.7-0.4,5.3-0.7,8c-0.2,1.8-0.4,3.7-0.6,5.6c-1,6.7-2.8,13.8-8.5,17.7c-6.1,4.1-13.7,4.7-21,5.2
					c-11.1,0.8-22.1,1.5-33.2,1.7c-9.4,0.1-23.8,1.8-32.6-1.9c-1.2-0.5-2.3-1.4-3.2-2.3h-0.7l0.6-0.2c-4.5-5.1-4.8-15.3-3.8-25.3
					c0.9-9.4,3-18.6,3.9-23.3c4.6-24.9,9.2-50,18.3-73.9c5.2-13.7,11.7-28.7,22.5-39c3.1-3,6.5-5.6,10.4-7.8c0.1,0,0.1-0.1,0.2-0.1
					c11.1-6,24.8-7.4,36.6-2.9C1940.7,526.4,1951.9,551.8,1949.6,569.3z"/>
				<path class="st27" d="M1902.7,524c6.9,8.2,15.4,13.7,28.4,15.2c3-9.7,8-18.7,14.6-26.5c-5.2-3.6-21.2-19.1-27.4-16.6
					C1915.5,497.2,1902.1,523.5,1902.7,524z"/>
				<g>
					<path class="st5" d="M1977.3,469c0.1,0.9,0.3,2.2,0.6,3.5C1977.8,471.3,1977.6,470.1,1977.3,469z"/>
					<path class="st5" d="M1983.6,486c-0.1,1.1-1.1,1.9-2,2.6c-1.3,0.9-2.7,1.8-4.2,2.5c-2.4,10.5-8.4,19.2-17.6,23.4
						c-18.3,8.4-42-4-53-27.8c-10.9-23.8-5-49.9,13.3-58.3c18.3-8.4,42,4,53,27.8c2,4.2,3.4,8.6,4.3,12.8c0.1,0.9,0.3,2.2,0.6,3.5
						c0.8,3.5,2.5,7.9,4.4,10.5C1983,483.9,1983.7,484.9,1983.6,486z"/>
					<path class="st5" d="M1977.3,469c0.1,0.9,0.3,2.2,0.6,3.5C1977.8,471.3,1977.6,470.1,1977.3,469z"/>
					<path class="st6" d="M1987.5,455.6c-1.1,4.2-4.8,7.2-8.5,9.6c-12.9,8.4-28.6,12.3-43.9,11.1c0,2.4,0.4,4.8,1.2,7.1
						c-1.8-0.8-3.7-1.6-5.6-1.5c-2,0.1-4,1.4-4.2,3.4c-0.2,1.6,0.9,3.2,2.3,4c1.7,1,4.6,0.4,4.9,2.6c0.2,1.6-1.9,3.7-2.8,4.8
						c-1.4,1.5-3,2.8-4.8,3.7c-1.2,0.6-4.1,1-4.9,1.8c0.7-0.7,1.1-1.8,1-2.8c-2.2,2.7-5.6,4.3-9,4.4c0.6-0.7,1.2-1.4,1.8-2.1
						c-2.3,2.4-5.4,4-8.7,4.5c2.2-3.1,2.6-7.2,1.9-10.9c-0.7-3.5-3.3-6.9-3.6-10.4c-0.3-3.1,1.3-6.8,3.1-9.2
						c2.2-2.9,5.2-5.1,8.4-6.8c8.5-4.7,18.2-6.8,27.8-8.6c8.2-1.6,16.4-2.9,24.7-4.2c3.1-0.5,5.5-0.5,8.5,0
						C1978.1,456.1,1987.3,456.3,1987.5,455.6z"/>
					<g>
						<path class="st34" d="M1904.9,482.1c0,0,91.9-21.6,95.7-38.7c0.9-3.9-30.9,6.5-30.9,6.5L1904.9,482.1z"/>
						<path class="st16" d="M1920.1,428.4c-24.4,10.9-23.4,31.2-15.2,53.7l64.7-32.2C1957.7,430.3,1940.5,419.3,1920.1,428.4z"/>
						<path class="st34" d="M1906.4,438c-9.8,11.4-7.7,27.1-1.5,44l4.8-2.4C1903.1,466.5,1900,453.1,1906.4,438z"/>
					</g>
					<g>
						<path class="st27" d="M1983.6,486c0-0.2,0-0.4,0-0.7c-1.1,1.5-2.9,2.6-4.7,2.8c-0.7,0.1-1.4,0-2,0.3c-0.6,0.3-1.1,1-0.9,1.6
							c0.2,0.6,1,0.8,1.6,0.9c0,0,0,0,0.1,0c1.5-0.7,2.8-1.5,4.1-2.4C1982.6,488,1983.5,487.1,1983.6,486z"/>
					</g>
					<path class="st27" d="M1945.4,488.7c-0.8,0.9-0.9,2.2-0.5,3.3c0.4,1.1,1.2,2,2.2,2.7c1.2,0.9,2.6,1.6,4,2
						c1.2,0.3,2.6,0.4,3.4-0.6c0.4-0.5,0.5-1.2,0.4-1.9c-0.1-0.7-0.4-1.3-0.8-1.8C1952.9,490.5,1947.8,485.9,1945.4,488.7z"/>
				</g>
				<path class="st6" d="M1960.9,482.1c-0.3-1.6,0.8-3.3,2.4-3.6c1.6-0.3,3.3,0.7,3.7,2.3L1960.9,482.1z"/>
				<path class="st4" d="M1941.2,707.4c-37.4,10.8-79.9,24.4-118.2,17.8c0.5-15.6,5.5-42.6,9.4-57.8c0.3-1.3,0.6-2.5,1-3.8
					c14.8,3.8,31.3,0.6,43.6-8.5c11.8-8.7,19.4-21.9,24.9-35.5c5.7-14,9.5-28.7,11.4-43.7c3-23.5-16.2-44.7-36.2-44.7
					c3.1-3,6.5-5.6,10.4-7.8c9.8,3.2,18.7,9.2,25.1,17.3c9.7,12.2,13.4,28.9,9.8,44.1c8,1.9,17.2,3,25.1,4.9
					c-1.6,19.2-5.8,40-9.7,59.5c-0.6,3.3-1.2,6.5-1.8,9.9c-0.6,4.5-1.2,9-1.3,13.6C1934.2,684.6,1935.7,696.6,1941.2,707.4z"/>
				<g>
					<path class="st15" d="M1915.8,558.7c8,10.5,11.7,23.6,15.8,36.2c8,24.2,18,48.3,34.4,67.8c15.8,18.7,41.5,28.5,54.2,38.6
						c-4.3,8.6-8.2,14.2-15.9,19.9c-63-23.5-103.7-76.5-116.9-137.5c-2.2-10.2-4-24.7,2.5-33.8
						C1897.3,539.3,1909.8,550.8,1915.8,558.7z"/>
					<path class="st61" d="M1896.2,549c4.4,0.7,8.2,2.9,11.5,5.9c3.9,3.6,6.8,8,9.4,12.6c3.8,6.8,6.6,14,9.3,21.3
						c1.4,3.7,2.7,7.3,4.3,10.9c1.5,3.5,3.1,7,4.8,10.5c2.3,4.8,4.6,9.5,7.3,14.1c-4.2-9.6-7.9-19.4-11.2-29.3
						c-4.1-12.6-7.8-25.7-15.8-36.2c-5.9-7.7-17.7-18.7-25.2-9.8C1892.5,548.7,1894.4,548.7,1896.2,549z"/>
					<path class="st59" d="M1995.9,708.7c-14.5-7.2-27.8-16.8-39.8-27.6c-11.9-10.7-22.6-22.7-32.1-35.6
						c-4.5-6.1-8.6-12.4-12.5-18.9c-4.6-7.6-9-15.4-13-23.4c-6.6-13.4-12.3-28.2-12.5-43.3c-1.4,7.9-0.1,16.8,1.4,23.8
						c13.2,61,53.9,114.1,116.9,137.5c2.7-2,4.9-4,6.9-6.1C2006,713.3,2000.8,711.2,1995.9,708.7z"/>
				</g>
				<g>
					<circle class="st46" cx="2176.4" cy="952.3" r="29.5"/>
					<circle class="st12" cx="2176.4" cy="952.3" r="18.1"/>
					<path class="st47" d="M2176.4,962.5c-5.7,0-10.3-4.6-10.3-10.3c0-5.7,4.6-10.3,10.3-10.3c5.7,0,10.3,4.6,10.3,10.3
						C2186.6,957.9,2182,962.5,2176.4,962.5z"/>
				</g>
				<g>
					<path class="st8" d="M1973.7,478.7c-4.2,2.1-8.4,4.3-12.9,5.8c-4.5,1.5-9.4,2.2-14,1.2c-1.3-0.3-2.9-0.5-3.7,0.5
						c-0.4,0.5-0.4,1.1-0.5,1.8c-0.4,8.4,2,16.8,6.8,23.7c1.9,2.7,4.4,5.3,7.7,5.5c2.4,0.2,4.7-1,6.7-2.3c4-2.5,7.7-5.3,11.1-8.5
						c4.1-3.8,7.8-8.3,9.3-13.6c1-3.7,0.8-7.9-0.9-11.4c-0.6-1.2-1.8-3.4-3.1-4.1C1978.3,476.3,1975.4,477.8,1973.7,478.7z"/>
					<path class="st44" d="M1947.1,507.7c0.7,1.3,1.5,2.7,2.4,3.9c1.9,2.7,4.4,5.3,7.7,5.5c2.4,0.2,4.7-1,6.7-2.3
						c0.3-0.2,0.5-0.4,0.8-0.5C1957.8,514.4,1951.5,512,1947.1,507.7z"/>
					<g>
						<path class="st8" d="M1945.1,488.3c-0.3,0-0.7-0.1-1-0.2c-0.7-0.2-8.9-4.6-9.5-5.2c1-0.1,2,0,3,0.2c0.9,0.1,1.8,0.7,2.7,1.2
							c1.3,0.6,2.6,1.3,3.9,1.9c0.3,0.1,1.5,1.8,1.5,1.8C1945.6,488.1,1945.5,488.3,1945.1,488.3z"/>
					</g>
				</g>
			</g>
			<g>
				
					<rect x="2120.4" y="759.2" transform="matrix(0.8464 -0.5325 0.5325 0.8464 -95.6397 1293.3265)" class="st62" width="148.2" height="106.5"/>
				
					<rect x="2123.2" y="768.9" transform="matrix(0.8464 -0.5325 0.5325 0.8464 -103.1159 1286.6562)" class="st32" width="112" height="106.5"/>
				
					<rect x="2260.1" y="807.7" transform="matrix(0.8464 -0.5325 0.5325 0.8464 -87.4041 1332.6489)" class="st11" width="13.4" height="20.4"/>
				<g>
					<path class="st11" d="M2186.6,875.1l-21,13.2l-12-19.2l21-13.2L2186.6,875.1z M2165.8,887.4l19.9-12.5l-11.3-18l-19.9,12.5
						L2165.8,887.4z"/>
				</g>
				<g>
					<path class="st11" d="M2210.6,859.9l-21,13.2l-12-19.2l21-13.2L2210.6,859.9z M2189.9,872.2l19.9-12.5l-11.3-18l-19.9,12.5
						L2189.9,872.2z"/>
				</g>
				<g>
					<g>
						<path class="st11" d="M2165.5,864.6c-0.1-0.1-0.2-0.1-0.3-0.1c-0.1,0.1-0.1,0.2-0.1,0.3l8.3,13.2l0.3-0.2L2165.5,864.6z"/>
					</g>
					<g>
						<path class="st11" d="M2165.6,865.5c-0.7,1.1-2,4,0.1,8.8c0.2-0.9,0.7-1.6,1.5-2.1c0.8-0.5,1.8-0.6,2.6-0.5l-4-6.4
							C2165.7,865.4,2165.7,865.5,2165.6,865.5z"/>
						<path class="st11" d="M2165.6,865.5c-3.9,2.6-5.5,7.5-4.1,11.8c0.1-1,0.7-1.9,1.6-2.5c0.8-0.5,1.8-0.6,2.6-0.5c0,0,0,0,0,0
							C2163.5,869.5,2164.9,866.6,2165.6,865.5z"/>
						<path class="st11" d="M2166.1,865.2c1.4-0.1,4.5,0.1,7.8,3.9c0,0,0,0,0,0c0.2-0.9,0.7-1.7,1.5-2.2c0.9-0.6,2-0.7,2.9-0.4
							C2175.2,863.5,2170.1,862.8,2166.1,865.2z"/>
						<path class="st11" d="M2166.1,865.2c-0.1,0.1-0.2,0.1-0.3,0.2l4,6.4l0,0c0.2-0.9,0.7-1.7,1.5-2.2c0.8-0.5,1.7-0.6,2.6-0.5
							C2170.6,865.3,2167.5,865.1,2166.1,865.2z"/>
					</g>
					<g>
						<path class="st11" d="M2175.8,879.1c-0.7,0.4-1.6,0.2-2.1-0.5l-0.9-1.4c-0.1-0.2-0.1-0.4,0.1-0.6s0.4-0.1,0.6,0.1l0.9,1.4
							c0.2,0.3,0.6,0.4,0.9,0.2c0.3-0.2,0.4-0.6,0.2-0.9c-0.1-0.2-0.1-0.4,0.1-0.6s0.4-0.1,0.6,0.1
							C2176.7,877.8,2176.5,878.7,2175.8,879.1z"/>
					</g>
				</g>
				<g>
					<g>
						<g>
							
								<rect x="2189.3" y="854.4" transform="matrix(0.8464 -0.5325 0.5325 0.8464 -121.7677 1298.7965)" class="st11" width="3.4" height="12.2"/>
							<polygon class="st11" points="2185.8,852.4 2185.8,858 2190.9,854.7 							"/>
						</g>
						<g>
							
								<rect x="2197" y="849.5" transform="matrix(0.8464 -0.5325 0.5325 0.8464 -117.9868 1302.2003)" class="st11" width="3.4" height="12.2"/>
							<polygon class="st11" points="2193.6,847.5 2193.5,853.1 2198.7,849.9 							"/>
						</g>
					</g>
					
						<rect x="2190.5" y="863.6" transform="matrix(0.8464 -0.5325 0.5325 0.8464 -122.5291 1303.4688)" class="st11" width="16.4" height="1.2"/>
				</g>
			</g>
		</g>
	</g>
</g>
</svg>
