<?xml version="1.0" encoding="utf-8"?>
<!-- Generator: Adobe Illustrator 24.2.2, SVG Export Plug-In . SVG Version: 6.00 Build 0)  -->
<svg version="1.1" id="Layer_1" xmlns="http://www.w3.org/2000/svg" xmlns:xlink="http://www.w3.org/1999/xlink" x="0px" y="0px"
	 viewBox="0 0 841.89 595.28" style="enable-background:new 0 0 841.89 595.28;" xml:space="preserve">
<style type="text/css">
	.Graphic_x0020_Style_x0020_252{fill:#020203;}
</style>
<g id="XMLID_213_">
	<path id="XMLID_221_" class="Graphic_x0020_Style_x0020_252" d="M535.81,356.82c0.56,2.85,0.74,5.77,0.66,8.7
		c-0.11,2.42-0.44,4.69-1.05,6.97c1.48-0.78,2.92-1.4,4.4-2.18c14.38-7.14,42.98-17.67,59.17-23.14c4.86-1.63,10-3.27,15.38-4.26
		c-5.92-5.15-12.91-6.21-20.48-4.47c-15.08,3.58-43.27,12.45-57.83,17.85C535.9,356.51,535.86,356.67,535.81,356.82z"/>
	<path id="XMLID_220_" class="Graphic_x0020_Style_x0020_252" d="M530.25,342.83c0.64-0.33,1.17-0.61,1.86-0.84l6.94-2.59
		c10.24-3.8,31.21-7.97,42.24-11.13c-5.87-5.05-12.75-6.16-20.26-4.32c-9.34,2.27-29.95,5.86-39.51,9.17
		C524.95,335.91,527.87,339.23,530.25,342.83z"/>
	<path id="XMLID_219_" class="Graphic_x0020_Style_x0020_252" d="M638.8,352.33c-8.54-1.82-27.8,5.26-32.99,7.06
		c-18.65,6.23-44.83,16.41-62.23,25.01c-1.17,0.61-2.81,1.34-4.04,1.85c-7.76,3.54-15.75,5.5-24.41,6.1
		c-47.47,3.38-114.81-4.71-114.81-4.71l-3.92-0.31c-2.94-0.29-5.27-2.61-5.29-5.49c-0.03-3.13,2.79-5.65,6.05-5.53l101.23,4.23
		c11.13,0.33,21.42-8.6,21.99-20.17c0.57-11.57-8.87-21.3-20.11-21.57l-88.55-13.1c-5.79-0.9-14.91-3.46-20.16-5.82
		c-55.17-24.69-90.03-13.5-108.37-8.61c0,0-3.78,1.59-9.14,4.26l-38.46,23.02c-0.53,0.28-0.48,0.21-0.04-0.09l-12.19,7.27
		l51.07,94.23l31.42-16.86l136.02,24.39c18.42,4.5,36.38,4.66,54.06-1.59l5.18-1.8l138.15-55.74c6.82-2.79,12.16-8.34,13.47-15.32
		C654.27,364.79,650.79,354.82,638.8,352.33z"/>
	<path id="XMLID_218_" class="Graphic_x0020_Style_x0020_252" d="M180.83,370.57c-3.82,2-5.13,6.62-3.02,10.23l45.51,76.8
		c2.11,3.61,7,4.85,10.81,2.85l23.09-12.39l-50.4-92.99L180.83,370.57z"/>
	<path id="XMLID_215_" class="Graphic_x0020_Style_x0020_252" d="M472.02,128.19c-56.89,0-103.01,43.64-103.01,97.46
		c0,53.83,46.12,97.46,103.01,97.46s103.01-43.64,103.01-97.46C575.03,171.83,528.91,128.19,472.02,128.19z M472.02,304.45
		c-45.99,0-83.27-35.27-83.27-78.79c0-43.51,37.28-78.79,83.27-78.79c45.99,0,83.27,35.27,83.27,78.79
		C555.29,269.17,518.01,304.45,472.02,304.45z"/>
	<path id="XMLID_214_" class="Graphic_x0020_Style_x0020_252" d="M482.06,216.21c-15.25-4.58-21.5-7.63-21.5-12.32
		c0-4.02,3.75-8.01,15.39-8.01c12.94,0,21.2,3.31,25.82,4.89l5.23-16.21c-5.9-2.28-14.01-4.29-26-4.71v-12.58h-17.59v13.61
		c-19.16,3.03-30.33,12.88-30.33,25.46c0,13.92,13.11,21.06,32.28,26.23c13.27,3.59,19.01,7.03,19.03,12.39
		c0,5.73-7.02,8.86-17.19,8.86c-11.7,0-22.22-3-29.78-6.3l-5.41,16.78c6.83,3.17,18.48,5.74,30.51,6.14v13.61h17.57v-14.58
		c20.59-2.89,31.92-13.77,31.92-26.5C512.02,230.07,503.36,222.2,482.06,216.21z"/>
</g>
</svg>
