<?xml version="1.0" encoding="utf-8"?>
<!-- Generator: Adobe Illustrator 24.2.2, SVG Export Plug-In . SVG Version: 6.00 Build 0)  -->
<svg version="1.1" id="Layer_1" xmlns="http://www.w3.org/2000/svg" xmlns:xlink="http://www.w3.org/1999/xlink" x="0px" y="0px"
	 viewBox="0 0 841.89 595.28" style="enable-background:new 0 0 841.89 595.28;" xml:space="preserve">
<style type="text/css">
	.st0{fill:#020203;}
</style>
<g>
	<path class="st0" d="M435.95,113.4v-11.88h0.68c4.12,0,7.48-3.37,7.48-7.48c0-4.12-3.36-7.48-7.48-7.48h-32.27
		c-4.12,0-7.48,3.36-7.48,7.48c0,4.11,3.37,7.48,7.48,7.48h0.68v11.88c-88.52,6.46-158.43,67.89-161.79,143.73h354.48
		C594.39,181.29,524.47,119.86,435.95,113.4z"/>
	<path class="st0" d="M187.82,267.77c5.18,12.51,53.74,23.24,123.26,28.82c-1.12,2.66,0.47,5.5,2.29,7.31
		c3.99,3.99,26.94,13.97,31.93,23.95c4.99,9.97,48.89,60.86,57.87,67.85c8.98,6.98,8.98,14.97,17.96,19.96
		c8.98,4.99,41.91,12.97,54.88,22.95c12.97,9.98,38.92,25.95,38.92,25.95l22.95-63.86c-14.04-16.91-16.47-31.64-16.96-38.91
		c-1.58-23.38,7.65-42.24,7.65-42.24c3.68-7.51,9.65-16.4,6.32-20.87c-0.71-0.95-1.92-1.48-4.02-2.14
		c69.01-5.61,117.16-16.3,122.32-28.75H187.82z M499.95,303.9c-20.08,25.57-21.16,30.35-26.94,34.59
		c-12.21,8.95-29.77,4.02-45.23-0.33c-27.98-7.87-34.14-21.33-71.18-38.25c-0.45-0.2-0.9-0.4-1.34-0.61
		c20.7,0.91,42.59,1.4,65.24,1.4c29.82,0,58.32-0.85,84.53-2.38C502.96,300.11,501.33,302.15,499.95,303.9z"/>
	<path class="st0" d="M536.87,445.09c-11.73,28.86-20.7,35.6-16.96,44.9l77.83,20.45V410.17l-46.9-11.97
		C548.64,409.46,544.62,426.03,536.87,445.09z"/>
</g>
</svg>
