<?xml version="1.0" encoding="utf-8"?>
<!-- Generator: Adobe Illustrator 24.2.2, SVG Export Plug-In . SVG Version: 6.00 Build 0)  -->
<svg version="1.1" id="Layer_1" xmlns="http://www.w3.org/2000/svg" xmlns:xlink="http://www.w3.org/1999/xlink" x="0px" y="0px"
	 viewBox="0 0 1000 1000" style="enable-background:new 0 0 1000 1000;" xml:space="preserve">
<style type="text/css">
	.st0{fill:#113067;}
	.st1{fill:#114873;}
	.st2{fill:#FFC7A8;}
	.st3{fill:#1C75BC;}
	.st4{fill:#1866A3;}
	.st5{fill:#F1F1F2;}
	.st6{fill:#81C243;}
	.st7{opacity:0.25;fill:#231F20;enable-background:new    ;}
	.st8{fill:#E6E7E8;}
	.st9{fill:#58331B;}
	.st10{opacity:0.25;fill:#716558;enable-background:new    ;}
	.st11{fill:#FCFDFF;}
	.st12{fill:#177CB4;}
	.st13{fill:#FFC964;}
	.st14{fill:#F68C21;}
	.st15{opacity:0.25;}
	.st16{fill:#716558;}
	.st17{opacity:0.25;fill:#FFFFFF;enable-background:new    ;}
	.st18{fill:#FDC987;}
	.st19{fill:#FFDBAE;}
	.st20{opacity:0.25;fill:#F9B86E;enable-background:new    ;}
	.st21{fill:#FFC016;}
	.st22{fill:#FCD121;}
	.st23{fill:#303030;}
	.st24{fill:#060808;}
	.st25{fill:#29A7DF;}
	.st26{fill:#42B7E2;}
	.st27{fill:#CBEBFB;}
	.st28{opacity:0.15;fill:#FFFFFF;enable-background:new    ;}
	.st29{fill:#0066B2;}
	.st30{fill:#1B75BB;}
	.st31{opacity:0.15;}
	.st32{fill:#231F20;}
	.st33{fill:#F05A28;}
	.st34{fill:#E4F4FC;}
	.st35{fill:#FFFFFF;}
	.st36{fill:#B1D5F1;}
	.st37{fill:#E3F4FC;}
	.st38{opacity:0.5;}
	.st39{fill:#F7FBFF;}
	.st40{fill:#37B34A;}
	.st41{fill:#F9EC31;}
	.st42{fill:#80664D;}
	.st43{fill:#86C55B;}
	.st44{fill:#009345;}
	.st45{fill:#40833E;}
	.st46{fill:#408740;}
	.st47{fill:#4CB548;}
	.st48{fill:#E81F4D;}
	.st49{fill:#6DBF67;}
	.st50{fill:#E9A450;}
	.st51{fill:#E89844;}
	.st52{fill:#E19745;}
	.st53{fill:#CE7E2C;}
</style>
<rect class="st0" width="1000" height="1000"/>
<g>
	<g>
		<path class="st1" d="M440.4,599.9c-1,12.8-14.1,43.8-25.4,65.2l0,0c-4.1,7.7-7.9,14.2-10.8,18.2c-2.1,2.9-3.8,4.4-4.7,4l-8.7-3.5
			c-2.4-1-4.8-1.9-7.1-2.9c0,0,0,0,0,0c-2.5-1-4.9-2-7.3-3c-77.4-32.4-139-68.4-187-100.7c0,0-0.1,0-0.1-0.1
			C170.4,564.5,67.9,502.4,0,460.4V277.1l1.7-4c110.8,177.2,294.5,253.1,402.1,305.2c2.2,1.1,4.4,2.1,6.6,3.1c0.1,0,0.1,0.1,0.2,0.1
			c1.9,0.9,3.8,1.8,5.8,2.7c2.6,1.2,5.1,2.4,7.7,3.5c2.3,1,4.6,2.1,6.9,3.1l7.9,3.5C440.2,594.9,440.6,596.9,440.4,599.9z"/>
		<path class="st2" d="M656,702.4c-1.8,7.6-11.4,11.6-21.2,9.9c-30-5-59.4-10.5-87.7-19.7c-2.8-0.9-5.9-0.1-7.2,1.9c0,0,0,0-0.1,0.1
			c-1.5,2.2-0.3,5.1,2.5,6.5c21.4,10.7,43.8,20.2,67.1,28.4c9.4,3.2,14.1,9.9,10.3,17c-0.6,1.2-1.5,2.2-2.5,3.1
			c-5.1,4.5-14.3,5.2-22.5,2.4c-7-2.3-13.9-4.7-20.7-7.2h0c-17.7-6.5-34.9-13.8-51.5-21.8c-0.9-0.4-1.8-0.9-2.8-1.3
			c-2-1-4.5-1.3-6.6-0.7c0,0-0.1,0-0.2,0c-4.7,1.4-5.4,6.3-1.1,9.1c0,0,0,0,0,0c8,5.6,16.2,11.1,24.6,16.4h0
			c6.2,3.9,12.5,7.8,18.9,11.5c7.2,4,9.6,9.6,5.4,14.7c-0.2,0.2-0.4,0.5-0.6,0.7c-4.3,4.4-12.5,4.8-19.6,2.2
			c-0.9-0.3-1.9-0.8-2.8-1.2c0,0,0,0,0,0c-0.3-0.2-0.6-0.3-0.9-0.5c-0.1-0.1-0.3-0.2-0.4-0.2c-14.1-8-27.9-16.1-41.5-24.4h0
			c-14.5-8.8-28.6-17.9-42.4-27.4c-0.4-0.3-0.8-0.5-1.2-0.8c-7.2-5-14.2-10-21.1-15.3c-4.5-3.3-8.5-7-12-11.1
			c-2.4-2.6-4.5-5.4-6.5-8.3c-2.6-1-5.2-2.1-7.7-3.1c-2.1-0.9-4.2-1.7-6.3-2.6c-3.8-1.5-7.5-3.1-11.1-4.6c-0.4-0.2-0.8-0.3-1.2-0.5
			h0c-79.3-33.3-144-66.8-196.3-98.4c0,0-0.1,0-0.1-0.1C170.8,566,68.4,505.2,0,463.7V277.4l1-2.4
			c114.2,219.2,312.7,268.2,422,317.3c3.4,1.5,6.8,3.1,10.3,4.6c2.4,1,4.7,2,7.1,3c0.5,0.2,1,0.4,1.4,0.6c5.5-2.1,11.3-3.6,17.3-4.4
			c2.6-0.4,5.2-0.6,7.8-0.7c1.9-0.1,3.9-0.2,5.8-0.3c25.2-1.7,49.5-6.7,71.6-15.5c2.1-0.8,4.2-1.7,6.3-2.5c1.4-0.6,2.7-1.1,4.1-1.7
			c0.3-0.1,0.5-0.2,0.8-0.3c0,0,0,0,0,0c6.7-2.4,14.2,0.4,17.4,6.8c0.6,1.2,1,2.4,1.2,3.6l0,0c0.9,4.6-0.7,9.4-4.2,12.6
			c-0.9,0.8-1.9,1.5-3.1,2.1c-0.5,0.2-0.9,0.5-1.4,0.7c-7.3,3.9-14.7,7.7-22.3,11.3c-3.3,1.6-6.7,3.1-10.1,4.7
			c-1.8,0.8-2.7,2.2-2.8,3.7l0,0c-0.2,2.3,1.4,4.8,4.5,5.4c0.2,0,0.4,0.1,0.6,0.1c11,2,22.1,3.7,33.2,5c16.1,1.9,32.2,3.1,48.4,3.6
			c4.5,0.1,9.1,0.2,13.6,0.2c8.7-0.1,15.9,4.7,16.4,12.4c0.5,7.7-6.6,13.2-15.8,13.3c-24,0.7-48.1-0.2-72-2.5
			c-3.2-0.4-5.9,1.8-5.6,4.6c0,0,0,0.1,0,0.1c0.2,1.7,1.5,3.3,3.5,3.9c27.3,9.4,55.9,15.2,85.2,20.5
			C651.5,688.7,657.7,694.8,656,702.4z"/>
		<path class="st3" d="M422.9,592.3c-5.4,15.8-27.8,67.7-36.3,83.7c-1.6,3.1-2.7,4.9-3.1,4.9c0,0,0,0,0,0c-2.5-1-4.9-2-7.4-3
			c-3.2-1.3-6.4-2.6-9.5-4c-2.4-1-5-1-7.2-0.1c-6.1,2.4-12.8,1.6-18.9-0.7c-69.9-26.3-208.2-88.6-340.6-195v-235
			c86.1,121.4,233.1,237.2,386.6,318.7c5.9,3.1,10.6,7.9,14,13.6c0.7,1.2,1.8,2.2,3.1,2.9c2.2,1.1,4.4,2.1,6.6,3.1
			c0.1,0,0.1,0.1,0.2,0.1c1.9,0.9,3.8,1.8,5.8,2.7c2.6,1.2,5.1,2.4,7.7,3.5C424.3,587.9,423.9,589.5,422.9,592.3z"/>
		<path class="st4" d="M438.8,594.3l-7.9-3.5c-9.2-4.1-18.3-8.3-27.1-12.5c-27.3,31.2-39.6,63.1-37.1,95.7c7.9,3.3,15.9,6.6,24,9.9
			l8.7,3.5C389.6,681.3,425.7,591.2,438.8,594.3z"/>
	</g>
	<g>
		<g>
			<g>
				<g>
					<path class="st5" d="M481.9,337.9h-35v116c0,2.2,1.8,4.1,4.1,4.1h26.9c2.2,0,4.1-1.8,4.1-4.1L481.9,337.9L481.9,337.9z"/>
					<rect x="446.8" y="74.4" class="st6" width="35" height="263.5"/>
					<polygon class="st7" points="475.4,211.8 454.2,220.7 449.4,222.7 446.8,216.7 446.8,121.2 					"/>
					<polygon class="st7" points="481.9,149.6 481.9,245 480.4,248.3 453.5,237.4 					"/>
					<polygon class="st8" points="451.4,457.9 448.1,466.3 480.6,466.3 477.3,457.9 					"/>
				</g>
				<g>
					<polygon class="st6" points="504.6,116.5 448.2,247.8 480.4,261.7 542.7,116.6 542.5,116.5 					"/>
				</g>
				<g>
					<polygon class="st6" points="481.6,222.3 425.7,92 387.6,92 449.5,236.1 					"/>
				</g>
			</g>
			<g>
				<path class="st9" d="M471.8,269.3l30.1,244.2c1.1,9-4.8,17.2-13.5,19.1c-0.5,0.1-1.1,0.2-1.7,0.3l-86.9,10.7
					c-0.6,0.1-1.1,0.1-1.7,0.1c-8.8,0.2-16.6-6.3-17.7-15.3l-30.1-244.2c-1.2-9.5,5.6-18.2,15.1-19.4c9.8-1.2,16.7-10.1,15.5-19.9
					l-11-88.9l51.5-6.4l11,88.9c1.2,9.8,10.1,16.7,19.9,15.5C462,253,470.7,259.8,471.8,269.3z"/>
				<path class="st10" d="M488.5,532.6c-0.5,0.1-1.1,0.2-1.7,0.3l-86.9,10.7c-0.6,0.1-1.1,0.1-1.7,0.1c9.7-7.4,25.6-13.4,43.9-15.7
					C460.4,525.8,477.2,527.7,488.5,532.6z"/>
				<g>
					
						<rect x="363.4" y="338.8" transform="matrix(0.9925 -0.1223 0.1223 0.9925 -44.0464 54.8297)" class="st11" width="122.4" height="94.8"/>
					
						<rect x="363.4" y="347" transform="matrix(0.9925 -0.1223 0.1223 0.9925 -44.0459 54.8296)" class="st12" width="122.4" height="78.3"/>
					<g>
						
							<ellipse transform="matrix(0.9925 -0.1223 0.1223 0.9925 -44.0825 54.835)" class="st11" cx="424.6" cy="386.5" rx="42.8" ry="58"/>
						
							<ellipse transform="matrix(0.9925 -0.1223 0.1223 0.9925 -44.0826 54.8349)" class="st13" cx="424.6" cy="386.5" rx="35.9" ry="48.5"/>
					</g>
				</g>
				<path class="st10" d="M452.5,254.2c-9.8,1.2-18.7-5.7-19.9-15.5l-11-88.9l-14,1.7l11,88.9c1.2,9.8,10.1,16.7,19.9,15.5
					c9.5-1.2,18.2,5.6,19.4,15.1l30.1,244.2c1.2,9.5-5.6,18.2-15.1,19.4l14-1.7c9.5-1.2,16.3-9.8,15.1-19.4l-30.1-244.2
					C470.7,259.8,462,253,452.5,254.2z"/>
				<polygon class="st7" points="421.6,149.8 422.4,155.7 370.1,156.1 				"/>
				<g>
					<path class="st9" d="M424.5,136.2l1.2,9.7c0.2,1.9-1.1,3.6-3,3.8l-53.7,6.6c-1.9,0.2-3.6-1.1-3.8-3l-1.2-9.7L424.5,136.2z"/>
					<path class="st10" d="M412.3,137.7l1.2,9.7c0.2,1.9-1.1,3.6-3,3.8l12.2-1.5c1.9-0.2,3.2-1.9,3-3.8l-1.2-9.7L412.3,137.7z"/>
					<path class="st7" d="M424.5,136.2l0.6,5c-1.2-0.6-1.8-2.6-3.4-2.4c-1.9,0.2-1.6,3.3-3.5,3.5c-1.9,0.2-2.3-2.8-4.3-2.5
						c-1.9,0.2-1.6,3.3-3.5,3.5c-1.9,0.2-2.3-2.8-4.2-2.5c-2,0.2-1.6,3.3-3.5,3.5s-2.3-2.8-4.3-2.5c-1.9,0.2-1.6,3.3-3.5,3.5
						c-1.9,0.2-2.3-2.8-4.2-2.5c-2,0.2-1.6,3.3-3.5,3.5s-2.3-2.8-4.3-2.5c-1.9,0.2-1.6,3.3-3.5,3.5c-1.9,0.2-2.3-2.8-4.2-2.5
						s-1.6,3.3-3.5,3.5c-1.9,0.2-2.3-2.8-4.2-2.5c-1.6,0.2-1.6,2.3-2.7,3.1l-0.6-5L424.5,136.2z"/>
					<path class="st14" d="M362.9,142.2l0.6,5c0,0,0,0,0,0c2-0.2,1.6-3.3,3.5-3.5c1.9-0.2,2.3,2.8,4.3,2.5c2-0.2,1.6-3.3,3.5-3.5
						c1.9-0.2,2.3,2.8,4.3,2.5c2-0.2,1.6-3.3,3.5-3.5c1.9-0.2,2.3,2.8,4.3,2.5c2-0.2,1.6-3.3,3.5-3.5c2-0.2,2.3,2.8,4.3,2.5
						c2-0.2,1.6-3.3,3.5-3.5c2-0.2,2.3,2.8,4.3,2.5c1.9-0.2,1.6-3.3,3.5-3.5c2-0.2,2.3,2.8,4.3,2.5c2-0.2,1.6-3.3,3.5-3.5
						c2-0.2,2.3,2.8,4.3,2.5c2-0.2,1.6-3.3,3.5-3.5s2.3,2.8,4.3,2.5l0,0l-0.6-5c-0.3-2.2-2.3-3.8-4.5-3.5
						c-11.3,1.4-43.1,5.3-54.4,6.7C364.2,138.1,362.6,140.1,362.9,142.2z"/>
					<g class="st15">
						<path class="st16" d="M420.8,131.1c-9.6,1.2-14,1.7-14,1.7c2.2-0.3,4.2,1.3,4.5,3.5l0.5,3.9c0.5-0.9,0.8-2.1,2-2.3
							c2-0.2,2.3,2.8,4.3,2.5c2-0.2,1.6-3.3,3.5-3.5s2.3,2.8,4.3,2.5l0,0l-0.6-5C425,132.4,423,130.8,420.8,131.1z"/>
					</g>
				</g>
				<path class="st17" d="M392.6,241.6c-2.4,0.3-4.6-1.4-4.9-3.8l-8.8-71.2c-0.3-2.4,1.4-4.6,3.8-4.9c2.4-0.3,4.6,1.4,4.9,3.8
					l8.8,71.2C396.7,239.1,395,241.3,392.6,241.6z"/>
			</g>
			<g>
				<path class="st18" d="M361.9,181.6l63.6,589.9c1.7,15.8-3.2,30.8-12.4,42.3c-3.4,4.3-7.5,8.1-12,11.2c-7.7,5.3-16.8,8.9-26.7,10
					c-0.4,0-0.8,0.1-1.2,0.1c-0.3,0-0.6,0.1-0.9,0.1c-0.3,0-0.7,0-1,0.1c-0.4,0-0.7,0-1,0c-1.2,0-2.3,0-3.5,0
					c-1.2,0-2.3-0.1-3.5-0.2c-6-0.5-11.7-1.9-17.1-4.2c-18.8-7.8-33-25.4-35.3-47.1L247.3,194c-2.8-26.2,12.4-50.2,35.6-59.6
					c0.4-0.1,0.8-0.3,1.1-0.4c0.4-0.1,0.8-0.3,1.2-0.4c0.8-0.3,1.5-0.5,2.3-0.8c1.3-0.4,2.5-0.8,3.9-1.1c0.3-0.1,0.6-0.1,1-0.2
					c0.3-0.1,0.7-0.1,1-0.2c0.3-0.1,0.6-0.1,1-0.2c0.3-0.1,0.7-0.1,1-0.2c0.3-0.1,0.7-0.1,1-0.1c0.3-0.1,0.6-0.1,0.9-0.1
					c0.4-0.1,0.8-0.1,1.2-0.1C330,127.1,358.5,150,361.9,181.6z"/>
				<g>
					<path class="st19" d="M359.8,305.9l-66.4-33.5c-14.6-7.4-24.5-21.6-26.2-37.9l-2.5-23.3l65.3,31.2
						c15.1,7.2,25.3,21.7,27.1,38.3L359.8,305.9z"/>
					<path class="st19" d="M371.9,418l-66.4-33.5c-14.6-7.4-24.5-21.6-26.2-37.9l-2.5-23.3l65.3,31.2c15.1,7.2,25.3,21.7,27.1,38.3
						L371.9,418z"/>
					<path class="st19" d="M384,530.1l-66.4-33.5c-14.6-7.4-24.5-21.6-26.2-37.9l-2.5-23.3l65.3,31.2c15.1,7.2,25.3,21.7,27.1,38.3
						L384,530.1z"/>
					<path class="st19" d="M396,642.2l-66.4-33.5c-14.6-7.3-24.5-21.6-26.2-37.8l-2.5-23.3l65.3,31.2c15.1,7.2,25.3,21.7,27.1,38.3
						L396,642.2z"/>
					<path class="st19" d="M408.1,754.3l-66.4-33.5c-14.6-7.3-24.5-21.6-26.2-37.8l-2.5-23.3l65.3,31.2
						c15.1,7.2,25.3,21.7,27.1,38.3L408.1,754.3z"/>
				</g>
				<path class="st20" d="M361.9,181.6l63.6,589.9c1.7,15.8-3.2,30.8-12.4,42.3c-3.4,4.3-7.5,8.1-12,11.2c-7.7,5.3-16.8,8.9-26.7,10
					c-0.4,0-0.8,0.1-1.2,0.1c-0.3,0-0.6,0.1-0.9,0.1c-0.3,0-0.7,0-1,0.1c-0.4,0-0.7,0-1,0c-2.4,0.1-4.7,0-7-0.2
					c-1.6-0.1-3.3-0.4-4.9-0.6c4-1.6,7.7-3.7,11.2-6c16.8-11.6,26.8-31.8,24.5-53.5L330.4,185c-2.8-26.2-22.8-46.4-47.5-50.6
					c1.5-0.6,3.1-1.2,4.6-1.7c1.3-0.4,2.5-0.7,3.9-1.1c0.3-0.1,0.6-0.1,1-0.2c0.3-0.1,0.7-0.1,1-0.2c0.3-0.1,0.6-0.1,1-0.2
					c0.3-0.1,0.7-0.1,1-0.2c0.3-0.1,0.7-0.1,1-0.1c0.3-0.1,0.6-0.1,0.9-0.1c0.4-0.1,0.8-0.1,1.2-0.1
					C330,127.1,358.5,150,361.9,181.6z"/>
			</g>
			<g>
				<g>
					<g>
						<path class="st21" d="M517.3,347.1c0,2.2-0.2,4.3-0.3,6.5l-0.2,3.2l-0.3,3.2c-0.2,2.2-0.5,4.4-0.8,6.5
							c-0.4,2.2-0.8,4.3-1.2,6.5c-1.8,8.6-4.2,17-7.5,25c-1.5,4-3.5,7.9-5.3,11.6c-1,1.9-2,3.7-3.1,5.5c-1,1.8-2.1,3.6-3.2,5.3
							c-2.2,3.4-4.5,6.7-7,9.8c-2.4,3.1-5,6-7.5,8.7c-1.3,1.4-2.4,2.5-3.7,3.6c-1.2,1.1-2.4,2.2-3.6,3.3c-2.4,2.1-4.8,4.1-7.1,6
							c-4.7,3.8-9.2,7.1-13.5,10c-1.6,1.1-5.3,3.2-9.3,5.3c-3.1,1.7-6.5,1.4-9.2-0.1c-2.7-1.5-4.6-4.4-4.7-7.9
							c-0.1-4.5-0.2-8.8,0-10.7c0.3-5.1,0.9-10.7,1.9-16.6c0.5-3,1-6,1.6-9.2c0.3-1.6,0.7-3.1,1-4.7c0.3-1.6,0.8-3.3,1-4.7
							c0.3-1.5,0.6-2.9,0.9-4.4c0.3-1.5,0.6-2.9,0.9-4.4c0.1-0.7,0.3-1.5,0.5-2.2c0.2-0.7,0.4-1.5,0.5-2.2c0.3-1.5,0.6-3,0.9-4.5
							c2.4-11.6,5-24,7.6-36.4c0.3-1.5,0.6-3,1-4.6c0.3-1.5,0.6-3.1,0.9-4.6c0.3-1.5,0.6-3,0.9-4.6c0.3-1.5,0.6-3,1-4.6
							c1.2-6.2,2.4-12.2,3.6-18.1c0.7-3.1,1.2-5.4,1.9-8.4c0.2-1.7,0.5-3.4,0.8-5.1c0.1-0.9,0.3-1.7,0.4-2.5l0-0.1
							c0,0,0.1,0.9,0,0.4l0-0.1l0-0.3l0.1-0.6l0.2-1.2c1.1-6.6,2.6-12.9,4.1-18.7c1.6-5.8,3.3-11.2,5.1-15.9s3.5-9,5.2-12.4
							c0.4-0.9,0.8-1.7,1.2-2.5c0.4-0.8,0.8-1.5,1.1-2.2c0.7-1.4,1.3-2.5,1.9-3.4c1-1.9,1.7-2.9,1.7-2.9s0.9,0.9,2.3,2.5
							c0.7,0.8,1.6,1.8,2.5,3c0.5,0.6,1,1.2,1.5,1.9c0.5,0.7,1.1,1.4,1.6,2.2c2.3,3.1,4.9,6.8,7.6,11.1c2.7,4.3,5.5,9.2,8.2,14.6
							c2.7,5.4,5.4,11.2,7.8,17.4l0.5,1.2l0.2,0.6l0.1,0.3l0.1,0.2c0-0.4,0.1,0.7,0.1,0.6l0,0.1c0.3,0.8,0.5,1.6,0.8,2.4
							c0.6,1.6,1.1,3.2,1.6,4.9c0.1,0.4,0.3,0.9,0.4,1.4l0.4,1.5c0.2,1,0.5,2,0.7,3.1c0.4,2.1,0.9,4.2,1.2,6.2
							c0.3,2,0.6,4.1,0.9,6.1c0.3,2.1,0.4,4.1,0.6,6.2C517.3,338.5,517.3,342.8,517.3,347.1z"/>
						<path class="st22" d="M457.3,427.6l-22.8,39.5c-2.7-1.5-4.6-4.4-4.7-7.9c-0.1-4.5-0.2-8.8,0-10.7c0.3-5.1,0.9-10.7,1.9-16.6
							c0.5-3,1-6,1.6-9.2c0.3-1.6,0.7-3.1,1-4.7c0.3-1.6,0.8-3.3,1-4.7c0.3-1.5,0.6-2.9,0.9-4.4c0.3-1.5,0.6-2.9,0.9-4.4
							c0.1-0.7,0.3-1.5,0.5-2.2c0.2-0.7,0.4-1.5,0.5-2.2c0.3-1.5,0.6-3,0.9-4.5c2.4-11.6,5-24,7.6-36.4c0.3-1.5,0.6-3,1-4.6
							c0.3-1.5,0.6-3.1,0.9-4.6c0.3-1.5,0.6-3,0.9-4.6c0.3-1.5,0.6-3,1-4.6c1.2-6.2,2.4-12.2,3.6-18.1c0.7-3.1,1.2-5.4,1.9-8.4
							c0.2-1.7,0.5-3.4,0.8-5.1c0.1-0.9,0.3-1.7,0.4-2.5l0-0.1c0,0,0.1,0.9,0,0.4l0-0.1l0-0.3l0.1-0.6l0.2-1.2
							c1.1-6.6,2.6-12.9,4.1-18.7c1.6-5.8,3.3-11.2,5.1-15.9s3.5-9,5.2-12.4c0.4-0.9,0.8-1.7,1.2-2.5c0.4-0.8,0.8-1.5,1.1-2.2
							c0.7-1.4,1.3-2.5,1.9-3.4c1-1.9,1.7-2.9,1.7-2.9l5.9,57.7C488,347.3,478.8,390.3,457.3,427.6z"/>
					</g>
					<g>
						<polygon class="st22" points="458.7,223.5 466.7,270.5 480.1,268.6 472.4,222.9 						"/>
						<polygon class="st23" points="470.8,213.4 457.4,216 458.7,223.5 472.4,222.9 						"/>
						<polygon class="st24" points="480.1,222.5 477.2,212.2 470.8,213.4 472.4,222.9 						"/>
						<polygon class="st21" points="472.4,222.9 480.1,268.6 492.8,266.8 480.1,222.5 						"/>
					</g>
				</g>
				<g>
					<g>
						<path class="st21" d="M571.9,310.8c0.9,2,1.7,4,2.5,6l1.2,3l1,3.1c0.7,2.1,1.4,4.1,2,6.2c0.6,2.1,1.1,4.2,1.7,6.4
							c2,8.5,3.3,17.2,3.7,25.9c0.3,4.3,0.2,8.6,0.1,12.8c-0.1,2.1-0.3,4.2-0.5,6.3c-0.2,2.1-0.4,4.1-0.7,6.1
							c-0.6,4.1-1.3,8-2.2,11.8c-0.8,3.8-2,7.5-3.1,11.1c-0.6,1.9-1.2,3.3-1.8,4.8c-0.6,1.5-1.2,3-1.9,4.5c-1.3,2.9-2.6,5.7-3.9,8.5
							c-2.7,5.4-5.4,10.4-8,14.7c-1,1.7-3.5,5.1-6.2,8.8c-2.1,2.8-5.3,4-8.4,3.8c-3.1-0.3-6-2-7.6-5.2c-2-4-3.8-7.9-4.5-9.7
							c-1.8-4.8-3.7-10.1-5.3-15.9c-0.8-2.9-1.6-5.9-2.4-9c-0.4-1.5-0.7-3.1-1.1-4.7c-0.4-1.6-0.6-3.3-1-4.7c-0.4-1.4-0.7-2.9-1-4.3
							c-0.3-1.5-0.7-2.9-1-4.4c-0.2-0.7-0.3-1.5-0.5-2.2c-0.2-0.7-0.3-1.5-0.5-2.2c-0.4-1.5-0.8-3-1.1-4.5
							c-2.7-11.5-5.6-23.8-8.4-36.1c-0.4-1.5-0.7-3-1-4.5c-0.4-1.5-0.8-3-1.1-4.5c-0.3-1.5-0.7-3-1.1-4.5c-0.4-1.5-0.7-3-1-4.5
							c-1.5-6.1-2.9-12.1-4.4-18c-0.7-3-1.2-5.4-1.9-8.4c-0.5-1.6-1-3.3-1.4-5c-0.2-0.8-0.4-1.7-0.7-2.5l0-0.1c0,0,0.5,0.8,0.2,0.4
							l0-0.1l-0.1-0.3l-0.2-0.6l-0.3-1.2c-1.7-6.5-3.1-12.7-4.1-18.7c-1-5.9-1.7-11.5-2.1-16.6c-0.4-5.1-0.6-9.6-0.5-13.4
							c0-1,0-1.9,0-2.7c0-0.9,0.1-1.7,0.1-2.4c0-1.5,0.1-2.8,0.2-3.9c0.2-2.1,0.4-3.3,0.4-3.3s1.1,0.4,3.1,1.3c1,0.4,2.2,1,3.5,1.7
							c0.7,0.3,1.4,0.7,2.2,1.1c0.8,0.4,1.5,0.8,2.4,1.3c3.4,1.8,7.3,4.1,11.6,6.9c4.3,2.8,8.8,6.1,13.6,9.8
							c4.7,3.7,9.6,7.9,14.4,12.5l0.9,0.9l0.5,0.4l0.2,0.2l0.1,0.1c-0.2-0.4,0.4,0.6,0.3,0.5l0.1,0.1c0.6,0.6,1.2,1.2,1.8,1.8
							c1.2,1.2,2.4,2.5,3.5,3.8c0.3,0.3,0.6,0.7,0.9,1.1l1,1.2c0.7,0.8,1.3,1.7,1.9,2.5c1.3,1.7,2.6,3.5,3.7,5.1
							c1.2,1.7,2.3,3.4,3.4,5.2c1.1,1.7,2.1,3.6,3.2,5.4C568.3,303,570.1,306.9,571.9,310.8z"/>
						<path class="st22" d="M551.3,409.1l-4,45.5c-3.1-0.3-6-2-7.6-5.2c-2-4-3.8-7.9-4.5-9.7c-1.8-4.8-3.7-10.1-5.3-15.9
							c-0.8-2.9-1.6-5.9-2.4-9c-0.4-1.5-0.7-3.1-1.1-4.7c-0.4-1.6-0.6-3.3-1-4.7c-0.4-1.4-0.7-2.9-1-4.3c-0.3-1.5-0.7-2.9-1-4.4
							c-0.2-0.7-0.3-1.5-0.5-2.2c-0.2-0.7-0.3-1.5-0.5-2.2c-0.4-1.5-0.8-3-1.1-4.5c-2.7-11.5-5.6-23.8-8.4-36.1
							c-0.4-1.5-0.7-3-1-4.5c-0.4-1.5-0.8-3-1.1-4.5c-0.3-1.5-0.7-3-1.1-4.5c-0.4-1.5-0.7-3-1-4.5c-1.5-6.1-2.9-12.1-4.4-18
							c-0.7-3-1.2-5.4-1.9-8.4c-0.5-1.6-1-3.3-1.4-5c-0.2-0.8-0.4-1.7-0.7-2.5l0-0.1c0,0,0.5,0.8,0.2,0.4l0-0.1l-0.1-0.3l-0.2-0.6
							l-0.3-1.2c-1.7-6.5-3.1-12.7-4.1-18.7c-1-5.9-1.7-11.5-2.1-16.6c-0.4-5.1-0.6-9.6-0.5-13.4c0-1,0-1.9,0-2.7
							c0-0.9,0.1-1.7,0.1-2.4c0-1.5,0.1-2.8,0.2-3.9c0.2-2.1,0.4-3.3,0.4-3.3l29.6,49.8C545.3,323.3,555.1,366.2,551.3,409.1z"/>
					</g>
					<g>
						<polygon class="st22" points="466.7,223.4 493.7,262.6 505.1,255.3 478.9,217 						"/>
						<polygon class="st23" points="473.4,209.1 462.4,217 466.7,223.4 478.9,217 						"/>
						<polygon class="st24" points="485.7,213.4 478.7,205.3 473.4,209.1 478.9,217 						"/>
						<polygon class="st21" points="478.9,217 505.1,255.3 515.8,248.3 485.7,213.4 						"/>
					</g>
				</g>
				<g>
					<g>
						<path class="st21" d="M606.5,267.4c1.5,1.6,2.8,3.3,4.2,5l2,2.5l1.9,2.6c1.3,1.8,2.6,3.5,3.8,5.4c1.2,1.8,2.3,3.7,3.5,5.6
							c4.5,7.5,8.4,15.4,11.4,23.5c1.6,4,2.8,8.1,3.9,12.2c0.5,2,1,4.1,1.5,6.1c0.5,2,0.9,4,1.2,6.1c0.7,4,1.2,8,1.5,12
							c0.4,3.9,0.4,7.8,0.4,11.5c0,2-0.1,3.5-0.2,5.1c-0.1,1.6-0.2,3.2-0.4,4.8c-0.3,3.2-0.7,6.3-1.2,9.2c-0.9,6-2,11.5-3.2,16.4
							c-0.5,1.9-1.8,5.9-3.2,10.2c-1.1,3.3-3.8,5.5-6.9,6.1c-3,0.7-6.4-0.1-8.8-2.6c-3.1-3.2-6-6.4-7.3-7.9c-3.2-4-6.5-8.5-9.9-13.5
							c-1.7-2.5-3.3-5.1-5-7.9c-0.8-1.4-1.6-2.8-2.4-4.2c-0.8-1.4-1.6-3-2.4-4.1c-0.8-1.3-1.5-2.5-2.3-3.8c-0.7-1.3-1.6-2.6-2.3-3.9
							c-0.4-0.6-0.8-1.3-1.2-1.9c-0.4-0.6-0.7-1.3-1.1-2c-0.8-1.3-1.6-2.6-2.4-3.9c-6.1-10.2-12.5-21-19-31.9
							c-0.8-1.3-1.6-2.7-2.4-4c-0.8-1.3-1.7-2.6-2.4-4c-0.8-1.4-1.6-2.7-2.4-4c-0.8-1.4-1.6-2.7-2.4-4c-3.3-5.4-6.5-10.7-9.6-15.8
							c-1.6-2.7-2.8-4.8-4.3-7.5c-1-1.4-1.9-2.9-2.8-4.3c-0.5-0.7-0.9-1.4-1.4-2.1l0-0.1c0,0,0.7,0.6,0.3,0.3l-0.1-0.1l-0.2-0.3
							l-0.3-0.5l-0.7-1.1c-3.6-5.6-6.8-11.2-9.6-16.5c-2.8-5.3-5.1-10.5-7-15.2c-1.9-4.7-3.5-9-4.6-12.6c-0.3-0.9-0.5-1.8-0.8-2.6
							c-0.2-0.8-0.5-1.6-0.6-2.4c-0.4-1.4-0.7-2.7-1-3.8c-0.5-2.1-0.7-3.3-0.7-3.3s1.2,0.1,3.3,0.3c1.1,0.1,2.4,0.3,3.9,0.5
							c0.8,0.1,1.6,0.2,2.4,0.4c0.8,0.2,1.7,0.3,2.7,0.5c3.8,0.7,8.2,1.7,13.1,3.1c4.9,1.4,10.3,3.1,15.9,5.2
							c5.6,2.1,11.5,4.6,17.6,7.6l1.1,0.6l0.6,0.3l0.3,0.1l0.2,0.1c-0.3-0.3,0.5,0.4,0.5,0.4l0.1,0c0.7,0.4,1.5,0.8,2.2,1.2
							c1.5,0.8,3,1.6,4.5,2.5c0.3,0.2,0.8,0.5,1.2,0.8l1.3,0.9c0.9,0.6,1.7,1.2,2.6,1.8c1.7,1.2,3.5,2.5,5.1,3.8
							c1.6,1.3,3.2,2.6,4.8,3.9c1.6,1.3,3.1,2.8,4.7,4.2C600.7,261.1,603.5,264.3,606.5,267.4z"/>
						<path class="st22" d="M616.6,367.3l9.9,44.5c-3,0.7-6.4-0.1-8.8-2.6c-3.1-3.2-6-6.4-7.3-7.9c-3.2-4-6.5-8.5-9.9-13.5
							c-1.7-2.5-3.3-5.1-5-7.9c-0.8-1.4-1.6-2.8-2.4-4.2c-0.8-1.4-1.6-3-2.4-4.1c-0.8-1.3-1.5-2.5-2.3-3.8c-0.7-1.3-1.6-2.6-2.3-3.9
							c-0.4-0.6-0.8-1.3-1.2-1.9c-0.4-0.6-0.7-1.3-1.1-2c-0.8-1.3-1.6-2.6-2.4-3.9c-6.1-10.2-12.5-21-19-31.9
							c-0.8-1.3-1.6-2.7-2.4-4c-0.8-1.3-1.7-2.6-2.4-4c-0.8-1.4-1.6-2.7-2.4-4c-0.8-1.4-1.6-2.7-2.4-4c-3.3-5.4-6.5-10.7-9.6-15.8
							c-1.6-2.7-2.8-4.8-4.3-7.5c-1-1.4-1.9-2.9-2.8-4.3c-0.5-0.7-0.9-1.4-1.4-2.1l0-0.1c0,0,0.7,0.6,0.3,0.3l-0.1-0.1l-0.2-0.3
							l-0.3-0.5l-0.7-1.1c-3.6-5.6-6.8-11.2-9.6-16.5c-2.8-5.3-5.1-10.5-7-15.2c-1.9-4.7-3.5-9-4.6-12.6c-0.3-0.9-0.5-1.8-0.8-2.6
							c-0.2-0.8-0.5-1.6-0.6-2.4c-0.4-1.4-0.7-2.7-1-3.8c-0.5-2.1-0.7-3.3-0.7-3.3l43.3,38.5C585,287.4,607.3,325.3,616.6,367.3z"/>
					</g>
					<g>
						<polygon class="st22" points="479.7,216 517.4,245.2 526,234.8 489.4,206.3 						"/>
						<polygon class="st23" points="481.8,200.4 473.6,211.3 479.7,216 489.4,206.3 						"/>
						<polygon class="st24" points="494.8,200.8 485.7,195.2 481.8,200.4 489.4,206.3 						"/>
						<polygon class="st21" points="489.4,206.3 526,234.8 534.1,224.9 494.8,200.8 						"/>
					</g>
				</g>
			</g>
			<g>
				<path class="st25" d="M666.8,281.5l-1-7.2c-1.3-9.7-6.3-18.6-14-24.7l-31-24.9c-5.7-4.5-9.3-11.1-10.3-18.2l-48.1,6.5
					c1,7.2-0.8,14.5-5.1,20.3L534,265.6c-5.7,8-8.2,17.8-6.9,27.6l1,7.2c0.7,4.9,5.2,8.4,10.2,7.7l21.9,161.1
					c-4.9,0.7-8.4,5.2-7.7,10.2l3.7,27.5c2.7,20.2,24.1,32.1,42.7,23.8l5.7-2.5c15.5-6.9,32.6-9.2,49.3-6.7l6.2,0.9
					c20.1,3,37.5-14.2,34.8-34.3l-3.7-27.5c-0.7-4.9-5.2-8.4-10.2-7.7L659,291.6C664,291,667.4,286.4,666.8,281.5z"/>
				<g>
					<path class="st26" d="M556.1,506.8c2.7,20.2,24.1,32.1,42.7,23.8l5.7-2.5c15.5-6.9,32.6-9.2,49.3-6.7l6.2,0.9
						c20.1,3,37.5-14.2,34.8-34.3l-3.7-27.5c-0.7-4.9-5.2-8.4-10.2-7.7l-120.8,16.4c-4.9,0.7-8.4,5.2-7.7,10.2L556.1,506.8z"/>
					<path class="st26" d="M546.6,369.8l120.8-16.4c4.9-0.7,8.4-5.2,7.7-10.2l-0.8-6.3c-0.7-4.9-5.2-8.4-10.2-7.7l-120.8,16.4
						c-4.9,0.7-8.4,5.2-7.7,10.2l0.8,6.3C537.1,367,541.7,370.5,546.6,369.8z"/>
					<path class="st26" d="M550.8,400.7l120.8-16.4c4.9-0.7,8.4-5.2,7.7-10.2l-0.8-6.3c-0.7-4.9-5.2-8.4-10.2-7.7l-120.8,16.4
						c-4.9,0.7-8.4,5.2-7.7,10.2l0.8,6.3C541.3,397.9,545.8,401.4,550.8,400.7z"/>
					<path class="st26" d="M555,431.5l120.8-16.4c4.9-0.7,8.4-5.2,7.7-10.2l-0.8-6.3c-0.7-4.9-5.2-8.4-10.2-7.7l-120.8,16.4
						c-4.9,0.7-8.4,5.2-7.7,10.2l0.8,6.3C545.5,428.8,550,432.2,555,431.5z"/>
					<path class="st26" d="M559.2,462.4L680,446c4.9-0.7,8.4-5.2,7.7-10.2l-0.8-6.3c-0.7-4.9-5.2-8.4-10.2-7.7l-120.8,16.4
						c-4.9,0.7-8.4,5.2-7.7,10.2l0.8,6.3C549.7,459.6,554.2,463.1,559.2,462.4z"/>
					<path class="st26" d="M531.4,324.9l0.8,6.3c0.7,4.9,5.2,8.4,10.2,7.7l120.8-16.4c4.9-0.7,8.4-5.2,7.7-10.2l-0.8-6.3
						c-0.7-4.9-5.2-8.4-10.2-7.7l-120.8,16.4C534.2,315.5,530.7,320,531.4,324.9z"/>
					<path class="st26" d="M644.3,243.5l-104.7,14.2l-5.6,7.8c-5.7,8-8.2,17.8-6.9,27.6l1,7.2c0.7,4.9,5.2,8.4,10.2,7.7L659,291.6
						c4.9-0.7,8.4-5.2,7.7-10.2l-1-7.2c-1.3-9.7-6.3-18.6-14-24.7L644.3,243.5z"/>
				</g>
				<path class="st27" d="M620.7,224.6c-5.7-4.5-9.3-11.1-10.3-18.2l-1-7.5l-2.7-19.8l-48.1,6.5l2.7,19.8l1,7.5
					c1,7.2-0.8,14.5-5.1,20.3l-17.7,24.5l104.7-14.2L620.7,224.6z"/>
				<path class="st28" d="M562,210.5l0.3,2.4c1,7.2-0.8,14.5-5.1,20.3l-23.3,32.3c-5.7,8-8.2,17.8-6.9,27.6l1,7.2
					c0.7,4.9,5.2,8.4,10.2,7.7l0.9,6.7c-4.9,0.7-8.4,5.2-7.7,10.2l0.8,6.3c0.7,4.9,5.2,8.4,10.2,7.7l0.9,6.7
					c-4.9,0.7-8.4,5.2-7.7,10.2l0.8,6.3c0.7,4.9,5.2,8.4,10.2,7.7l0.9,6.7c-4.9,0.7-8.4,5.2-7.7,10.2l0.8,6.3
					c0.7,4.9,5.2,8.4,10.2,7.7l0.9,6.7c-4.9,0.7-8.4,5.2-7.7,10.2l0.8,6.3c0.7,4.9,5.2,8.4,10.2,7.7l0.9,6.7
					c-4.9,0.7-8.4,5.2-7.7,10.2l0.8,6.3c0.7,4.9,5.2,8.4,10.2,7.7l0.9,6.7c-4.9,0.7-8.4,5.2-7.7,10.2l3.7,27.5
					c2.7,20.2,24.1,32.1,42.7,23.8l1.7-0.7c-12.2-2.5-22.4-12.3-24.2-25.8l-3.7-27.5c-0.7-4.9,2.8-9.5,7.7-10.2l-0.9-6.7
					c-4.9,0.7-9.5-2.8-10.2-7.7l-0.8-6.3c-0.7-4.9,2.8-9.5,7.7-10.2l-0.9-6.7c-4.9,0.7-9.5-2.8-10.2-7.7l-0.8-6.3
					c-0.7-4.9,2.8-9.5,7.7-10.2l-0.9-6.7c-4.9,0.7-9.5-2.8-10.2-7.7l-0.8-6.3c-0.7-4.9,2.8-9.5,7.7-10.2l-0.9-6.7
					c-4.9,0.7-9.5-2.8-10.2-7.7l-0.8-6.3c-0.7-4.9,2.8-9.5,7.7-10.2l-0.9-6.7c-4.9,0.7-9.5-2.8-10.2-7.7l-0.8-6.3
					c-0.7-4.9,2.8-9.5,7.7-10.2l-0.9-6.7c-4.9,0.7-9.5-2.8-10.2-7.7l-1-7.2c-1.3-9.7,1.1-19.6,6.9-27.6l23.3-32.3
					c4.2-5.9,6-13.2,5.1-20.3l-0.3-2.4L562,210.5z"/>
				<g>
					<g>
						
							<rect x="560.7" y="204.1" transform="matrix(0.9909 -0.1347 0.1347 0.9909 -22.6787 77.5891)" class="st29" width="2.7" height="4.6"/>
						
							<rect x="567.4" y="203.2" transform="matrix(0.9909 -0.1347 0.1347 0.9909 -22.4955 78.4846)" class="st29" width="2.7" height="4.6"/>
						
							<rect x="574.1" y="202.3" transform="matrix(0.9909 -0.1347 0.1347 0.9909 -22.3112 79.3802)" class="st29" width="2.7" height="4.6"/>
						
							<rect x="580.8" y="201.4" transform="matrix(0.9909 -0.1347 0.1347 0.9909 -22.1277 80.2757)" class="st29" width="2.7" height="4.6"/>
						
							<rect x="587.5" y="200.5" transform="matrix(0.9909 -0.1346 0.1346 0.9909 -21.9383 81.1088)" class="st29" width="2.7" height="4.6"/>
						
							<rect x="594.2" y="199.5" transform="matrix(0.9909 -0.1347 0.1347 0.9909 -21.7587 82.0666)" class="st29" width="2.7" height="4.6"/>
						
							<rect x="601" y="198.6" transform="matrix(0.9909 -0.1347 0.1347 0.9909 -21.5752 82.9635)" class="st29" width="2.7" height="4.6"/>
						
							<rect x="607.7" y="197.8" transform="matrix(0.9909 -0.1346 0.1346 0.9909 -21.3862 83.7947)" class="st29" width="2.7" height="4.6"/>
					</g>
					<path class="st30" d="M611.4,200.5l-51.6,7c-0.5,0.1-0.8,0.5-0.8,1l0.4,2.8c0.1,0.5,0.5,0.8,1,0.8l51.6-7
						c0.5-0.1,0.8-0.5,0.8-1l-0.4-2.8C612.3,200.8,611.8,200.4,611.4,200.5z"/>
					<g class="st31">
						
							<rect x="560.5" y="203.7" transform="matrix(0.9909 -0.1347 0.1347 0.9909 -22.4855 77.549)" class="st32" width="2.7" height="2.5"/>
						
							<rect x="567.2" y="202.8" transform="matrix(0.9909 -0.1347 0.1347 0.9909 -22.3009 78.4443)" class="st32" width="2.7" height="2.5"/>
						
							<rect x="573.9" y="201.9" transform="matrix(0.9909 -0.1346 0.1346 0.9909 -22.109 79.279)" class="st32" width="2.7" height="2.5"/>
						
							<rect x="580.6" y="201" transform="matrix(0.9909 -0.1347 0.1347 0.9909 -21.933 80.2355)" class="st32" width="2.7" height="2.5"/>
						
							<rect x="587.3" y="200.1" transform="matrix(0.9909 -0.1346 0.1346 0.9909 -21.7428 81.0687)" class="st32" width="2.7" height="2.5"/>
						
							<rect x="594.1" y="199.1" transform="matrix(0.9909 -0.1347 0.1347 0.9909 -21.5635 82.0277)" class="st32" width="2.7" height="2.5"/>
						
							<rect x="600.8" y="198.2" transform="matrix(0.9909 -0.1347 0.1347 0.9909 -21.3802 82.9232)" class="st32" width="2.7" height="2.5"/>
						
							<rect x="607.5" y="197.3" transform="matrix(0.9909 -0.1347 0.1347 0.9909 -21.1974 83.8187)" class="st32" width="2.7" height="2.5"/>
					</g>
					<path class="st30" d="M599.4,172.9l-35.4,4.8c-4.9,0.7-8.4,5.2-7.7,10.2l2.3,17c0.1,0.5,0.5,0.8,1,0.8l51.6-7
						c0.5-0.1,0.8-0.5,0.8-1l-2.3-17C608.9,175.7,604.3,172.2,599.4,172.9z"/>
					<g class="st31">
						
							<rect x="559" y="187" transform="matrix(0.9909 -0.1346 0.1346 0.9909 -21.214 77.0926)" class="st32" width="1.1" height="16.8"/>
						
							<rect x="561.9" y="186.6" transform="matrix(0.9909 -0.1346 0.1346 0.9909 -21.1339 77.4778)" class="st32" width="1.1" height="16.8"/>
						
							<rect x="564.7" y="186.2" transform="matrix(0.9909 -0.1345 0.1345 0.9909 -21.0434 77.8041)" class="st32" width="1.1" height="16.8"/>
						
							<rect x="567.7" y="185.8" transform="matrix(0.9909 -0.1347 0.1347 0.9909 -20.9808 78.3092)" class="st32" width="1.1" height="16.8"/>
						
							<rect x="570.6" y="185.4" transform="matrix(0.9909 -0.1347 0.1347 0.9909 -20.9008 78.6947)" class="st32" width="1.1" height="16.8"/>
						
							<rect x="573.4" y="185" transform="matrix(0.9909 -0.1347 0.1347 0.9909 -20.8219 79.0804)" class="st32" width="1.1" height="16.8"/>
						
							<rect x="576.3" y="184.7" transform="matrix(0.9909 -0.1346 0.1346 0.9909 -20.7387 79.405)" class="st32" width="1.1" height="16.8"/>
						
							<rect x="579.2" y="184.3" transform="matrix(0.9909 -0.1346 0.1346 0.9909 -20.6599 79.7905)" class="st32" width="1.1" height="16.8"/>
						
							<rect x="582.1" y="183.8" transform="matrix(0.9909 -0.1347 0.1347 0.9909 -20.5837 80.2375)" class="st32" width="1.1" height="16.8"/>
						
							<rect x="585" y="183.4" transform="matrix(0.9909 -0.1347 0.1347 0.9909 -20.5049 80.6232)" class="st32" width="1.1" height="16.8"/>
						
							<rect x="587.9" y="183.1" transform="matrix(0.9909 -0.1346 0.1346 0.9909 -20.4222 80.9468)" class="st32" width="1.1" height="16.8"/>
						
							<rect x="590.8" y="182.7" transform="matrix(0.9909 -0.1346 0.1346 0.9909 -20.3434 81.3323)" class="st32" width="1.1" height="16.8"/>
						
							<rect x="593.6" y="182.3" transform="matrix(0.9909 -0.1346 0.1346 0.9909 -20.2636 81.7162)" class="st32" width="1.1" height="16.8"/>
						
							<rect x="596.5" y="181.9" transform="matrix(0.9909 -0.1347 0.1347 0.9909 -20.1945 82.1641)" class="st32" width="1.1" height="16.8"/>
						
							<rect x="599.4" y="181.5" transform="matrix(0.9909 -0.1346 0.1346 0.9909 -20.1061 82.4871)" class="st32" width="1.1" height="16.8"/>
						
							<rect x="602.3" y="181.1" transform="matrix(0.9909 -0.1347 0.1347 0.9909 -20.0359 82.9357)" class="st32" width="1.1" height="16.8"/>
						
							<rect x="605.2" y="180.7" transform="matrix(0.9909 -0.1346 0.1346 0.9909 -19.9461 83.258)" class="st32" width="1.1" height="16.8"/>
						
							<rect x="608.1" y="180.3" transform="matrix(0.9909 -0.1347 0.1347 0.9909 -19.8779 83.7069)" class="st32" width="1.1" height="16.8"/>
					</g>
				</g>
			</g>
			<g>
				<g>
					<path class="st33" d="M649.1,171.6l-1,11.2l82.7,7.4l1-11.2c0.5-5.3-3.5-10-8.8-10.5l-63.4-5.7
						C654.2,162.4,649.5,166.3,649.1,171.6z"/>
					<g>
						<path class="st7" d="M660.1,169.8c-1-0.1-1.8,0.6-1.9,1.6l-1.6,17.4c-0.1,0.9,0.6,1.8,1.6,1.9c1,0.1,1.8-0.6,1.9-1.6l1.6-17.4
							C661.7,170.7,661,169.9,660.1,169.8z"/>
						<path class="st7" d="M666.9,170.4c-1-0.1-1.8,0.6-1.9,1.6l-1.6,17.4c-0.1,0.9,0.6,1.8,1.6,1.9c1,0.1,1.8-0.6,1.9-1.6l1.6-17.4
							C668.5,171.3,667.8,170.4,666.9,170.4z"/>
						<path class="st7" d="M673.7,171L673.7,171c-1-0.1-1.8,0.6-1.9,1.6l-1.6,17.4c-0.1,0.9,0.6,1.8,1.6,1.9l0,0
							c1,0.1,1.8-0.6,1.9-1.6l1.6-17.4C675.3,171.9,674.6,171.1,673.7,171z"/>
						<path class="st7" d="M680.5,171.6c-1-0.1-1.8,0.6-1.9,1.6l-1.6,17.4c-0.1,0.9,0.6,1.8,1.6,1.9c1,0.1,1.8-0.6,1.9-1.6l1.6-17.4
							C682.1,172.5,681.4,171.7,680.5,171.6z"/>
						<path class="st7" d="M687.2,172.2c-1-0.1-1.8,0.6-1.9,1.6l-1.6,17.4c-0.1,0.9,0.6,1.8,1.6,1.9c1,0.1,1.8-0.6,1.9-1.6l1.6-17.4
							C688.9,173.1,688.2,172.3,687.2,172.2z"/>
						<path class="st7" d="M694,172.8L694,172.8c-1-0.1-1.8,0.6-1.9,1.6l-1.6,17.4c-0.1,0.9,0.6,1.8,1.6,1.9l0,0
							c1,0.1,1.8-0.6,1.9-1.6l1.6-17.4C695.7,173.7,695,172.9,694,172.8z"/>
						<path class="st7" d="M700.8,173.4c-1-0.1-1.8,0.6-1.9,1.6l-1.6,17.4c-0.1,0.9,0.6,1.8,1.6,1.9c1,0.1,1.8-0.6,1.9-1.6l1.6-17.4
							C702.5,174.3,701.8,173.5,700.8,173.4z"/>
						<path class="st7" d="M707.6,174L707.6,174c-1-0.1-1.8,0.6-1.9,1.6l-1.6,17.4c-0.1,0.9,0.6,1.8,1.6,1.9l0,0
							c1,0.1,1.8-0.6,1.9-1.6l1.6-17.4C709.3,174.9,708.6,174.1,707.6,174z"/>
						<path class="st7" d="M714.4,174.6L714.4,174.6c-1-0.1-1.8,0.6-1.9,1.6l-1.6,17.4c-0.1,0.9,0.6,1.8,1.6,1.9l0,0
							c1,0.1,1.8-0.6,1.9-1.6l1.6-17.4C716.1,175.5,715.4,174.7,714.4,174.6z"/>
						<path class="st7" d="M721.2,175.2L721.2,175.2c-1-0.1-1.8,0.6-1.9,1.6l-1.6,17.4c-0.1,0.9,0.6,1.8,1.6,1.9l0,0
							c1,0.1,1.8-0.6,1.9-1.6l1.6-17.4C722.9,176.1,722.2,175.3,721.2,175.2z"/>
					</g>
					<path class="st34" d="M739.2,315.3l-3.5-12.5c-7.4-26.6-9.9-54.3-7.4-81.8l1.2-13l-83.5-7.4l-1.2,13
						c-2.5,27.5-9.8,54.3-21.8,79.2l-5.6,11.7c-12,24.9-19.3,51.7-21.8,79.2l-14.1,157.6c-1.4,16,10.4,30.1,26.3,31.5l93.1,8.3
						c16,1.4,30.1-10.4,31.5-26.3l14.1-157.6C749.1,369.6,746.6,341.9,739.2,315.3z"/>
					<g>
						<path class="st35" d="M734.1,322.3l-3.2-11.6c-3.9-14.1-6.3-28.6-7.2-43.2c-13.2-2.5-14.3-9.2-30.5-10.6
							c-17.9-1.6-18.7,6.5-36.6,4.9c-7-0.6-11.2-2.2-14.7-4.1c-3.5,15-8.7,29.7-15.4,43.7l-5.2,10.8c-11.1,23-17.9,47.9-20.2,73.4
							l-13,146c-1.3,14.8,9.6,27.8,24.4,29.2l86.2,7.7c14.8,1.3,27.8-9.6,29.2-24.4l13-146C743.2,372.6,740.9,346.9,734.1,322.3z"/>
					</g>
					<path class="st36" d="M710.1,459.3l-89.4-8c-1.2-0.1-2.2-1.2-2.1-2.5l8-89.4c0.1-1.2,1.2-2.2,2.5-2.1l89.4,8
						c1.2,0.1,2.2,1.2,2.1,2.5l-8,89.4C712.5,458.5,711.4,459.4,710.1,459.3z"/>
					<path class="st37" d="M739.2,315.3l-3.5-12.5c-7.4-26.6-9.9-54.3-7.4-81.8l1.2-13l-33.6-3c-1.6,25.4-3.8,50.5,3,75.1l3.5,12.5
						c7.4,26.6,9.9,54.3,7.4,81.8L695.8,532c-1.4,16-15.5,27.8-31.5,26.3l-81.8-7.3c3,11.6,12.9,20.6,25.5,21.7l93.1,8.3
						c16,1.4,30.1-10.4,31.5-26.3l14.1-157.6C749.1,369.6,746.6,341.9,739.2,315.3z"/>
					<path class="st37" d="M639.6,189.4l-0.3,3.2c-0.4,4,2.6,7.5,6.6,7.9l83.9,7.5c4,0.4,7.5-2.6,7.9-6.6l0.3-3.2
						c0.4-4-2.6-7.5-6.6-7.9l-83.9-7.5C643.5,182.4,639.9,185.4,639.6,189.4z"/>
				</g>
				<g class="st38">
					<path class="st39" d="M639.3,316.1c-0.6,0-1.2-0.2-1.8-0.5c-2.4-1.2-3.3-4.1-2.1-6.5c17-33.2,20.7-92.1,20.7-92.7
						c0.2-2.7,2.5-4.7,5.1-4.5c2.5,0.1,4.7,2.4,4.5,5.1c-0.2,2.5-3.8,61.5-21.7,96.6C643.2,315.2,641.3,316.2,639.3,316.1z"/>
				</g>
			</g>
			<g>
				<g>
					<g>
						<path class="st40" d="M714.6,286.4c-2.7-9.4,6.2-20.2,6.2-20.2s4.2,7,6.9,16.4c2.7,9.4,2.9,17.6,2.9,17.6
							S717.3,295.8,714.6,286.4z"/>
					</g>
					<g>
						<path class="st40" d="M753.5,307.7c9.4-2.7,13.8-16.1,13.8-16.1s-8.2,0.2-17.6,2.9c-9.4,2.7-16.4,6.9-16.4,6.9
							S744.1,310.4,753.5,307.7z"/>
					</g>
					<g>
						<path class="st41" d="M741.4,412.6c11.8-29.1,8.1-59.4-7.4-76.8c0.2-9.9-4.1-18.5-11.8-21.6c-7.7-3.1-16.7,0-23.5,7.2
							c-23.2,1.7-47.1,20.8-58.9,49.9c-12.1,29.9-7.9,61.1,8.7,78.2c0.9,8.1,5,14.8,11.6,17.5c6.6,2.7,14.2,0.7,20.5-4.4
							C704.5,461.8,729.3,442.4,741.4,412.6z"/>
					</g>
					<g>
						<path class="st40" d="M721.1,318.8c-0.3,0-0.6-0.1-0.9-0.3c-0.7-0.5-0.9-1.5-0.4-2.3l22.5-33c0.5-0.7,1.5-0.9,2.3-0.4
							s0.9,1.5,0.4,2.3l-22.5,33C722.1,318.6,721.6,318.8,721.1,318.8z"/>
					</g>
				</g>
				<g class="st38">
					<g>
						<path class="st35" d="M689,336.7c-0.8,1.9-2.9,2.8-4.8,2s-2.8-2.9-2-4.8c0.8-1.9,2.9-2.8,4.8-2
							C688.8,332.7,689.7,334.9,689,336.7z"/>
					</g>
					<g>
						<path class="st35" d="M684.8,347c-0.7,1.7-2.6,2.5-4.3,1.8c-1.7-0.7-2.5-2.6-1.8-4.3s2.6-2.5,4.3-1.8
							C684.7,343.4,685.5,345.3,684.8,347z"/>
					</g>
					<g>
						<path class="st35" d="M693.8,348.2c-0.6,1.5-2.3,2.2-3.8,1.6s-2.2-2.3-1.6-3.8s2.3-2.2,3.8-1.6
							C693.7,345,694.4,346.7,693.8,348.2z"/>
					</g>
					<g>
						<path class="st35" d="M698.5,343c-0.4,0.9-1.4,1.4-2.3,1c-0.9-0.4-1.3-1.4-1-2.3s1.4-1.4,2.3-1
							C698.5,341,698.9,342.1,698.5,343z"/>
					</g>
					<g>
						<path class="st35" d="M698.2,335.9c-0.3,0.8-1.3,1.2-2.1,0.9c-0.8-0.3-1.2-1.3-0.9-2.1c0.3-0.8,1.3-1.2,2.1-0.9
							C698.1,334.1,698.5,335.1,698.2,335.9z"/>
					</g>
					<g>
						<path class="st35" d="M693.7,341.2c-0.5,1.1-1.7,1.7-2.9,1.2c-1.1-0.5-1.7-1.7-1.2-2.9c0.5-1.1,1.7-1.7,2.9-1.2
							C693.6,338.8,694.1,340,693.7,341.2z"/>
					</g>
					<g>
						<path class="st35" d="M708.3,340.9c-0.5,1.1-1.7,1.7-2.9,1.2s-1.7-1.7-1.2-2.9c0.5-1.1,1.7-1.7,2.9-1.2
							C708.2,338.5,708.7,339.8,708.3,340.9z"/>
					</g>
					<g>
						<path class="st35" d="M703.4,349.9c-0.7,1.7-2.6,2.5-4.3,1.8s-2.5-2.6-1.8-4.3s2.6-2.5,4.3-1.8
							C703.3,346.3,704.1,348.2,703.4,349.9z"/>
					</g>
				</g>
				<g class="st38">
					<g>
						<path class="st35" d="M695.5,432.7c0.7,1.9,2.8,2.9,4.7,2.2c1.9-0.7,2.9-2.8,2.2-4.7c-0.7-1.9-2.8-2.9-4.7-2.2
							S694.9,430.8,695.5,432.7z"/>
					</g>
					<g>
						<path class="st35" d="M699.2,443.1c0.6,1.7,2.5,2.6,4.2,2s2.6-2.5,2-4.2c-0.6-1.7-2.5-2.6-4.2-2
							C699.5,439.6,698.6,441.4,699.2,443.1z"/>
					</g>
					<g>
						<path class="st35" d="M690.2,443.9c0.5,1.5,2.2,2.3,3.7,1.8s2.3-2.2,1.8-3.7s-2.2-2.3-3.7-1.8S689.7,442.4,690.2,443.9z"/>
					</g>
					<g>
						<path class="st35" d="M685.7,438.5c0.3,0.9,1.3,1.4,2.3,1.1c0.9-0.3,1.4-1.4,1.1-2.3c-0.3-0.9-1.3-1.4-2.3-1.1
							C685.8,436.6,685.3,437.6,685.7,438.5z"/>
					</g>
					<g>
						<path class="st35" d="M686.4,431.4c0.3,0.9,1.2,1.3,2.1,1s1.3-1.2,1-2.1c-0.3-0.9-1.2-1.3-2.1-1
							C686.5,429.6,686.1,430.6,686.4,431.4z"/>
					</g>
					<g>
						<path class="st35" d="M690.6,436.9c0.4,1.1,1.7,1.7,2.8,1.3c1.1-0.4,1.7-1.7,1.3-2.8c-0.4-1.1-1.7-1.7-2.8-1.3
							C690.8,434.5,690.2,435.8,690.6,436.9z"/>
					</g>
					<g>
						<path class="st35" d="M676.1,436c0.4,1.1,1.7,1.7,2.8,1.3c1.1-0.4,1.7-1.7,1.3-2.8c-0.4-1.1-1.7-1.7-2.8-1.3
							C676.2,433.6,675.7,434.8,676.1,436z"/>
					</g>
					<g>
						<path class="st35" d="M680.5,445.1c0.6,1.7,2.5,2.6,4.2,2s2.6-2.5,2-4.2c-0.6-1.7-2.5-2.6-4.2-2
							C680.8,441.6,679.9,443.4,680.5,445.1z"/>
					</g>
				</g>
			</g>
			<g>
				<g>
					<path class="st42" d="M616.2,330.8c0.1-0.3,0-0.5-0.2-0.8c-0.2-0.2-0.2-0.5-0.3-0.7c-0.2-0.5-0.4-1.1-0.6-1.6s-0.5-1.1-0.8-1.7
						c-0.3-0.6-0.6-1.1-0.9-1.7s-0.7-1.2-1-1.8c-0.8-1.1-1.5-2.4-2.4-3.5c-0.8-1.2-1.8-2.2-2.8-3.3c-1-1-2-2.1-3.2-3
						c-1.1-1-2.2-1.8-3.3-2.6c-0.6-0.4-1.2-0.7-1.7-1.1c-0.6-0.4-1.1-0.7-1.7-1c-0.6-0.3-1.1-0.6-1.6-0.9c-0.5-0.3-1.1-0.5-1.6-0.7
						c-0.2-0.1-0.5-0.2-0.7-0.4c-0.2-0.2-0.4-0.3-0.8-0.2c-0.2,0.1-1,0.4-2,0.8c-2.4,1-3.4,4-2.2,6.3c0.4,0.8,0.7,1.4,0.8,1.5
						c0.1,0.1,0.1,0.2,0.2,0.3c0.1,0.1,0.2,0,0.3,0.1c0.2,0,0.4,0.1,0.6,0.2c0.4,0.2,0.8,0.3,1.2,0.5c0.4,0.2,0.8,0.4,1.2,0.7
						c0.4,0.2,0.8,0.5,1.3,0.8c0.4,0.3,0.9,0.5,1.3,0.8c0.8,0.6,1.8,1.2,2.6,2c0.9,0.7,1.7,1.5,2.5,2.3c0.7,0.9,1.5,1.7,2.2,2.6
						c0.7,0.9,1.3,1.8,1.9,2.7c0.3,0.5,0.5,0.9,0.8,1.4c0.3,0.4,0.5,0.9,0.7,1.3c0.2,0.4,0.4,0.9,0.6,1.3s0.3,0.8,0.5,1.2
						c0.1,0.2,0.2,0.4,0.2,0.6c0,0.2,0,0.4,0.3,0.5C607.8,334,616,331.4,616.2,330.8z"/>
				</g>
				<g>
					<g>
						<path class="st43" d="M608,314.8c0,0-6.9-15.1-1.2-27.3c5.6-12.2,21.6-16.7,21.6-16.7s6.9,15.1,1.2,27.3
							C624,310.2,608,314.8,608,314.8z"/>
					</g>
				</g>
				<g>
					<path class="st40" d="M656.5,317.4c-11.4-3.3-23.6-1.7-34,4c-3.8,2.1-8.1,4.1-11.3,5.1c-3.3,0.9-8,1.4-12.3,1.6
						c-11.8,0.6-23.1,5.7-31,14.5c-11.5,12.8-15.9,31-8.4,57.5c6.9,24.2,25.5,41.9,47.9,48.4c12.2,3.6,22.9-5,36-8.7
						c13.1-3.7,26.7-2,35.2-11.5c15.6-17.3,22.2-42.2,15.4-66.4C686.3,335.4,673,322.2,656.5,317.4z"/>
				</g>
				<g>
					<g class="st38">
						<path class="st35" d="M589.1,374.7c-1.1,6.5-4.9,11.2-8.6,10.6c-3.7-0.6-5.8-6.4-4.8-12.8s4.9-11.2,8.6-10.6
							C588,362.5,590.1,368.2,589.1,374.7z"/>
					</g>
					<g class="st38">
						<path class="st35" d="M593.4,349.6c-1.6,3.6-4.5,5.9-6.6,5s-2.5-4.6-0.9-8.2c1.6-3.6,4.5-5.9,6.6-5
							C594.5,342.3,595,346,593.4,349.6z"/>
					</g>
				</g>
				<g class="st15">
					<g>
						<path class="st44" d="M569.2,341c-0.5,0.5-1,1-1.5,1.5c-11.5,12.8-15.9,31-8.4,57.5c6.9,24.2,25.5,41.9,47.9,48.4
							c6.3,1.8,12.2,0.4,18.2-1.9c-25.1-15-44.2-38.1-52.4-66.9C569.4,366.8,568.2,353.8,569.2,341z"/>
					</g>
				</g>
			</g>
			<g>
				<path class="st45" d="M475,339.1c-1.1-5.5,1.3-12.5-1.8-17.1c-3.1-4.6-10.5-5-15.2-8.1c-4.5-3-7.7-9.7-13.4-10.8
					c-5.6-1.1-11.2,4-16.5,5c-3.6,0.7-7.9,0-11.6,0.2c-3.4-1.6-7.7-2.5-10.7-4.6c-4.5-3-7.7-9.7-13.4-10.8c-5.6-1.1-11.2,4-16.5,5
					c-5.5,1.1-12.5-1.3-17.1,1.8c-4.6,3.1-5,10.5-8.1,15.2c-3,4.5-9.7,7.7-10.8,13.4c-1.1,5.6,4,11.2,5,16.5
					c1.1,5.5-1.3,12.5,1.8,17.1s10.5,5,15.2,8.1c4.5,3,7.7,9.7,13.4,10.8c5.6,1.1,11.2-4,16.5-5c3.6-0.7,7.9,0,11.6-0.2
					c3.4,1.6,7.7,2.5,10.7,4.6c4.5,3,7.7,9.7,13.4,10.8c5.6,1.1,11.2-4,16.5-5c5.5-1.1,12.5,1.3,17.1-1.8s5-10.5,8.1-15.2
					c3-4.5,9.7-7.7,10.8-13.4C481.2,349.9,476.1,344.4,475,339.1z"/>
				<path class="st6" d="M442.3,427.3l-10.7-15.8l-21.8,14.7c-2.8,1.9-6.5-0.6-5.9-3.9l6-30.8l-18.7-3.7l-6,30.8
					c-0.6,3.3-5,4.2-6.9,1.4l-14.7-21.8l-15.8,10.7l25.1,37.2c3.5,5.2,4.8,11.5,3.6,17.6l-19.3,67.7l30.5,6l7.6-70
					c1.2-6.1,4.8-11.5,9.9-15L442.3,427.3z"/>
				<g>
					<path class="st46" d="M307.2,371.4c1.1-5.6,7.9-8.9,10.8-13.4c3.1-4.6,3.5-12.1,8.1-15.2s11.6-0.7,17.1-1.8
						c5.3-1.1,10.8-6.1,16.5-5c5.6,1.1,8.9,7.9,13.4,10.8c4.6,3.1,12.1,3.5,15.2,8.1s0.7,11.6,1.8,17.1c1.1,5.3,6.1,10.8,5,16.5
						c-1.1,5.6-7.9,8.9-10.8,13.4c-3.1,4.6-3.5,12.1-8.1,15.2s-11.6,0.7-17.1,1.8c-5.3,1.1-10.8,6.1-16.5,5
						c-5.6-1.1-8.9-7.9-13.4-10.8c-4.6-3.1-12.1-3.5-15.2-8.1s-0.7-11.6-1.8-17.1C311.2,382.6,306.1,377,307.2,371.4z"/>
					<path class="st46" d="M406.4,390.8c1.1-5.6,7.9-8.9,10.8-13.4c3.1-4.6,3.5-12.1,8.1-15.2s11.6-0.7,17.1-1.8
						c5.3-1.1,10.8-6.1,16.5-5c5.6,1.1,8.9,7.9,13.4,10.8c4.6,3.1,12.1,3.5,15.2,8.1s0.7,11.6,1.8,17.1c1.1,5.3,6.1,10.8,5,16.5
						c-1.1,5.6-7.9,8.9-10.8,13.4c-3.1,4.6-3.5,12.1-8.1,15.2s-11.6,0.7-17.1,1.8c-5.3,1.1-10.8,6.1-16.5,5
						c-5.6-1.1-8.9-7.9-13.4-10.8c-4.6-3.1-12.1-3.5-15.2-8.1s-0.7-11.6-1.8-17.1C410.4,401.9,405.3,396.4,406.4,390.8z"/>
				</g>
				<path class="st47" d="M362,354.6c1.1-5.6,7.9-8.9,10.8-13.4c3.1-4.6,3.5-12.1,8.1-15.2s11.6-0.7,17.1-1.8
					c5.3-1.1,10.8-6.1,16.5-5c5.6,1.1,8.9,7.9,13.4,10.8c4.6,3.1,12.1,3.5,15.2,8.1s0.7,11.6,1.8,17.1c1.1,5.3,6.1,10.8,5,16.5
					c-1.1,5.6-7.9,8.9-10.8,13.4c-3.1,4.6-3.5,12.1-8.1,15.2s-11.6,0.7-17.1,1.8c-5.3,1.1-10.8,6.1-16.5,5
					c-5.6-1.1-8.9-7.9-13.4-10.8c-4.6-3.1-12.1-3.5-15.2-8.1s-0.7-11.6-1.8-17.1C365.9,365.8,360.9,360.2,362,354.6z"/>
			</g>
			<g>
				<g>
					<path class="st48" d="M578.6,400.3c0,37.3-20.8,67.9-47.3,71.7c-1.8,0.3-3.7,0.4-5.5,0.4c-14.5,0-27.7-8-37.2-20.9
						c-9.6,12.9-22.7,20.9-37.2,20.9c-1.9,0-3.7-0.1-5.5-0.4c-26.6-3.8-47.3-34.4-47.3-71.7c0-39.8,23.6-72,52.8-72
						c14.3,0,27.3,7.8,36.8,20.4c0.2,0.2,0.3,0.3,0.4,0.5c0.1-0.2,0.2-0.3,0.4-0.5c9.5-12.7,22.5-20.4,36.8-20.4
						C554.9,328.3,578.6,360.5,578.6,400.3z"/>
				</g>
				<g class="st31">
					<path class="st32" d="M546.2,420.7c0,20-6.5,38.2-17.2,51.2c-1.7,0.3-3.5,0.4-5.2,0.4c-13.8,0-26.2-8-35.3-20.9
						c-9,12.9-21.5,20.9-35.3,20.9c-1.8,0-3.5-0.1-5.2-0.4c-10.6-13-17.1-31.2-17.1-51.2c0-39.6,25.6-71.8,57.2-72
						c0.1,0,0.2,0,0.4,0s0.2,0,0.4,0C520.6,348.9,546.2,381.1,546.2,420.7z"/>
				</g>
				<g>
					<ellipse class="st48" cx="488.5" cy="420.7" rx="52.8" ry="72"/>
				</g>
				<g>
					<ellipse class="st48" cx="488.5" cy="342.7" rx="34.2" ry="24"/>
				</g>
				<g>
					<ellipse class="st49" cx="488.5" cy="349" rx="23.1" ry="14.7"/>
				</g>
				<g>
					<path class="st40" d="M488.4,352.6c-3.5,0-6.2-2.8-6.2-6.2v-8.6c0-14.2,5-28,14-38.9c1.2-1.4,2.5-2.8,3.8-4.1
						c2.4-2.4,6.4-2.4,8.8,0c2.4,2.4,2.4,6.4,0,8.8c-1,1-2,2.1-3,3.3c-7.2,8.6-11.2,19.6-11.2,30.9v8.6
						C494.6,349.8,491.8,352.6,488.4,352.6z"/>
				</g>
			</g>
		</g>
		<g>
			<g>
				<polygon class="st50" points="641.2,396.5 623.1,384.5 604.9,396.5 586.7,384.5 568.6,396.5 550.4,384.5 532.2,396.5 
					514.1,384.5 495.9,396.5 477.7,384.5 459.6,396.5 441.4,384.5 423.2,396.5 405.1,384.5 386.9,396.5 368.8,384.5 350.6,396.5 
					332.4,384.5 314.3,396.5 296.1,384.5 277.9,396.5 259.8,384.5 259.8,925.6 641.3,925.6 641.3,396.5 				"/>
				<polygon class="st51" points="750.2,396.5 732.1,384.5 713.9,396.5 696,384.5 696,925.6 750.2,925.6 				"/>
				<polygon class="st52" points="696,384.5 677.6,396.5 659.4,384.5 641.2,396.5 641.2,396.5 641.2,925.6 696,925.6 				"/>
			</g>
			<polygon class="st53" points="696.1,841.6 641.2,925.6 750.2,925.6 			"/>
		</g>
	</g>
	<g>
		<path class="st1" d="M390.8,801.5L390.8,801.5c-3,8.2-5.9,15.2-8.2,19.5c-1.7,3.2-3.1,4.9-4.1,4.7l-9.1-2.3
			c-2.5-0.6-5-1.3-7.5-1.9c0,0,0,0,0,0c-2.6-0.7-5.1-1.3-7.7-2c-81.1-21.4-147.1-48.6-199.1-74c0,0-0.1,0-0.1-0.1
			c-16.1-7.9-89-39.4-154.9-68.3V542.6C124.6,646.9,273.3,686.5,367.7,717c2.3,0.8,4.6,1.5,6.9,2.2c0.1,0,0.1,0,0.2,0.1
			c2,0.6,4,1.2,6.1,1.9c2.7,0.8,5.4,1.6,8.1,2.4c2.4,0.7,4.8,1.4,7.2,2.1l8.3,2.4c1.4,0.4,2.1,2.3,2.3,5.3
			C407.8,746.2,399,778.7,390.8,801.5z"/>
		<path class="st2" d="M634.6,805.2c-0.7,7.8-9.7,13-19.6,12.7c-30.5-0.8-60.3-2.2-89.6-7.4c-2.9-0.5-5.8,0.7-6.8,2.9c0,0,0,0,0,0.1
			c-1.1,2.4,0.4,5.1,3.4,6.1c22.7,7.6,46.2,14,70.4,18.9c9.8,1.8,15.3,7.8,12.5,15.4s-13.8,10.9-23.9,8.9
			c-26.9-4.9-53.1-11.6-78.4-19.7c-2.2-0.7-4.7-0.6-6.6,0.2c0,0-0.1,0-0.2,0.1c-4.5,2-4.5,7,0.2,9.2c15.2,7.8,30.8,15,47,21.7
			c8,3.1,11.1,8.7,6.8,14.6c-3.7,5-11.8,6.5-19.1,4.8c-1.3-0.3-2.6-0.7-3.9-1.2c-0.1-0.1-0.3-0.1-0.4-0.2c-15-6-29.9-12.1-44.5-18.5
			h0c-15.5-6.8-30.8-13.8-45.8-21.3c-8.2-4.1-16.3-8.4-24.4-12.9c-4.9-2.7-9.4-5.8-13.4-9.3c-2.7-2.3-5.2-4.8-7.6-7.3
			c-2.7-0.7-5.4-1.4-8.1-2c-2.2-0.6-4.4-1.1-6.6-1.7c-3.9-1-7.8-2-11.7-3.1c-0.4-0.1-0.9-0.2-1.3-0.3l0,0
			c-83.1-22.1-151.9-46.3-207.9-70.4c0,0-0.1,0-0.1-0.1C139.3,738.7,66.2,708,0,679.7V556c133.3,124.7,292.1,144.1,388.6,172.3
			c3.6,1.1,7.2,2.1,10.8,3.1c2.5,0.7,5,1.4,7.5,2c0.5,0.2,1,0.3,1.5,0.4c5.1-2.8,10.7-5.1,16.6-6.7c2.6-0.7,5.1-1.3,7.6-1.8
			c1.9-0.4,3.8-0.7,5.7-1.1c4.4-0.9,8.8-1.9,13.1-3.1c19.9-5.2,38.6-12.5,55.6-22.2c2-1.1,3.9-2.2,5.9-3.4c1.3-0.8,2.5-1.5,3.8-2.3
			c0.2-0.1,0.5-0.3,0.8-0.4c0,0,0,0,0,0c6.3-3.3,14.1-1.6,18.2,4.3c0.7,1.1,1.3,2.2,1.7,3.4h0c1.5,4.5,0.6,9.4-2.5,13.1
			c-0.8,0.9-1.7,1.8-2.7,2.5c-0.4,0.3-0.8,0.6-1.3,0.9c-2.7,2-5.5,4-8.3,5.9c-3.5,2.5-7,4.9-10.6,7.2c-0.5,0.4-1.1,0.7-1.6,1.1
			c-3.1,2-6.2,4-9.4,6c-1.7,1-2.4,2.6-2.3,4.1h0c0.1,2.3,2,4.6,5.2,4.8c0.2,0,0.4,0,0.6,0c10.7,0.5,21.4,0.6,32.1,0.4h0
			c0.5,0,1,0,1.5,0c12-0.2,24-0.8,36-1.9h0c4.1-0.4,8.3-0.8,12.4-1.2c4.5-0.5,9-1,13.5-1.7c7.6-1.2,14.7,1.7,17.2,7.7
			c0.3,0.7,0.5,1.5,0.7,2.3c1.5,7.6-4.8,14-13.8,15.3c-14.3,2.4-28.8,4.3-43.3,5.6c-7.7,0.7-15.3,1.2-23,1.6c0,0,0,0,0,0
			c-1.8,0.1-3.6,0.2-5.4,0.2c-3.2,0.1-5.6,2.6-4.9,5.3c0,0,0,0,0,0.1c0.4,1.7,2,3,4,3.4c28.4,5.6,57.4,7.4,87.2,8.5
			C628.3,792.3,635.3,797.4,634.6,805.2z"/>
		<path class="st3" d="M388.6,728.3c-3.1,16.4-18.2,70.8-24.4,87.9c-1.2,3.3-2,5.2-2.4,5.2c0,0,0,0,0,0c-2.6-0.7-5.1-1.3-7.7-2
			c-3.3-0.9-6.6-1.8-9.9-2.6c-2.5-0.7-5.1-0.3-7.1,0.9c-5.7,3.2-12.4,3.3-18.8,1.9C253,805,129.6,769.3,0,699.5V512.4
			C97.4,590.3,222.4,657.1,348.5,703c6.3,2.3,11.6,6.4,15.8,11.6c0.9,1.1,2.1,1.9,3.5,2.4c2.3,0.8,4.6,1.5,6.9,2.2
			c0.1,0,0.1,0,0.2,0.1c2,0.6,4,1.2,6.1,1.9c2.7,0.8,5.4,1.6,8.1,2.4C389.4,723.7,389.2,725.4,388.6,728.3z"/>
		<path class="st4" d="M404.6,728l-8.3-2.4c-9.7-2.8-19.2-5.7-28.6-8.7c-22.8,34.7-30.5,68-23.5,99.9c8.2,2.2,16.6,4.4,25.2,6.5
			l9.1,2.3C367.9,821,391.2,726.8,404.6,728z"/>
	</g>
</g>
</svg>
